SplineFontDB: 3.0
FontName: Vazir-Thin
FullName: Vazir Thin
FamilyName: Vazir
Weight: Thin
Copyright: Copyright (c) 2003 by Bitstream, Inc. All Rights Reserved.\nDejaVu changes are in public domain\nChanges by Saber Rastikerdar are in public domain.\nNon-Arabic(Latin) glyphs and data in extended version are imported from Roboto font under the Apache License, Version 2.0.
Version: 17.1.0
ItalicAngle: 0
UnderlinePosition: -500
UnderlineWidth: 100
Ascent: 1638
Descent: 410
InvalidEm: 0
LayerCount: 2
Layer: 0 1 "Back" 1
Layer: 1 1 "Fore" 0
PreferredKerning: 4
XUID: [1021 502 1027637223 18618]
UniqueID: 4011868
UseUniqueID: 1
FSType: 0
OS2Version: 1
OS2_WeightWidthSlopeOnly: 0
OS2_UseTypoMetrics: 1
CreationTime: 1431850356
ModificationTime: 1515587908
PfmFamily: 33
TTFWeight: 100
TTFWidth: 5
LineGap: 0
VLineGap: 0
Panose: 2 11 6 3 3 8 4 2 2 4
OS2TypoAscent: 2100
OS2TypoAOffset: 0
OS2TypoDescent: -1100
OS2TypoDOffset: 0
OS2TypoLinegap: 0
OS2WinAscent: 2100
OS2WinAOffset: 0
OS2WinDescent: 1100
OS2WinDOffset: 0
HheadAscent: 2100
HheadAOffset: 0
HheadDescent: -1100
HheadDOffset: 0
OS2SubXSize: 1331
OS2SubYSize: 1433
OS2SubXOff: 0
OS2SubYOff: 286
OS2SupXSize: 1331
OS2SupYSize: 1433
OS2SupXOff: 0
OS2SupYOff: 983
OS2StrikeYSize: 102
OS2StrikeYPos: 530
OS2CapHeight: 1638
OS2XHeight: 1082
OS2Vendor: 'PfEd'
OS2CodePages: 00000041.20080000
OS2UnicodeRanges: 80002003.80000000.00000008.00000000
Lookup: 1 9 0 "'fina' Terminal Forms in Arabic lookup 9" { "'fina' Terminal Forms in Arabic lookup 9 subtable"  } ['fina' ('arab' <'KUR ' 'SND ' 'URD ' 'dflt' > ) ]
Lookup: 1 9 0 "'medi' Medial Forms in Arabic lookup 11" { "'medi' Medial Forms in Arabic lookup 11 subtable"  } ['medi' ('arab' <'KUR ' 'SND ' 'URD ' 'dflt' > ) ]
Lookup: 1 9 0 "'init' Initial Forms in Arabic lookup 13" { "'init' Initial Forms in Arabic lookup 13 subtable"  } ['init' ('arab' <'KUR ' 'SND ' 'URD ' 'dflt' > ) ]

StartChar: exclam
Encoding: 33 33 1
GlifName: exclam
Width: 641
VWidth: 2764
GlyphClass: 2
Flags: W
LayerCount: 2
Fore
SplineSet
215.091796875 140.493164062 m 0,0,1
 215.091796875 183.94154082 215.091796875 183.94154082 245.961511507 214.810495264 c 0,2,3
 276.829943567 245.6796875 276.829943567 245.6796875 320.278320312 245.6796875 c 0,4,5
 363.72767362 245.6796875 363.72767362 245.6796875 394.596105674 214.81049527 c 0,6,7
 425.463867188 183.941973579 425.463867188 183.941973579 425.463867188 140.493164062 c 0,8,9
 425.463867188 97.0443545455 425.463867188 97.0443545455 394.59610568 66.1758328608 c 0,10,11
 363.72767362 35.306640625 363.72767362 35.306640625 320.278320312 35.306640625 c 0,12,13
 312.400893865 35.306640625 312.400893865 35.306640625 305.146808018 36.2224490811 c 0,14,15
 297.892722171 37.1382575372 297.892722171 37.1382575372 291.146741789 38.9766404122 c 0,16,17
 284.400761406 40.8150232872 284.400761406 40.8150232872 278.068740519 43.6273500709 c 0,18,19
 271.736719632 46.4396768545 271.736719632 46.4396768545 265.799850256 50.1830722942 c 0,20,21
 259.86298088 53.9264677338 259.86298088 53.9264677338 254.130689895 58.7019425347 c 0,22,23
 232.385248362 76.8174643979 232.385248362 76.8174643979 222.692851159 100.16794877 c 0,24,25
 215.091796875 118.478454132 215.091796875 118.478454132 215.091796875 140.493164062 c 0,0,1
243.978271401 1377.07128906 m 1,26,-1
 399.834499891 1377.07128906 l 1,27,-1
 376.852874976 479.32421875 l 1,28,-1
 268.106872179 479.32421875 l 1,29,-1
 243.978271401 1377.07128906 l 1,26,-1
EndSplineSet
EndChar

StartChar: period
Encoding: 46 46 2
GlifName: period
Width: 641
VWidth: 2764
GlyphClass: 2
Flags: W
LayerCount: 2
Fore
SplineSet
215.091796875 140.493164062 m 0,0,1
 215.091796875 183.94154082 215.091796875 183.94154082 245.961511507 214.810495264 c 128,-1,2
 276.829943567 245.6796875 276.829943567 245.6796875 320.278320312 245.6796875 c 128,-1,3
 363.72767362 245.6796875 363.72767362 245.6796875 394.596105674 214.81049527 c 128,-1,4
 425.463867188 183.941973579 425.463867188 183.941973579 425.463867188 140.493164062 c 128,-1,5
 425.463867188 97.0443545455 425.463867188 97.0443545455 394.59610568 66.1758328608 c 128,-1,6
 363.72767362 35.306640625 363.72767362 35.306640625 320.278320312 35.306640625 c 0,7,8
 312.400893865 35.306640625 312.400893865 35.306640625 305.146808018 36.2224490811 c 128,-1,9
 297.892722171 37.1382575372 297.892722171 37.1382575372 291.146741789 38.9766404122 c 128,-1,10
 284.400761406 40.8150232872 284.400761406 40.8150232872 278.068740519 43.6273500709 c 128,-1,11
 271.736719632 46.4396768545 271.736719632 46.4396768545 265.799850256 50.1830722942 c 128,-1,12
 259.86298088 53.9264677338 259.86298088 53.9264677338 254.130689895 58.7019425347 c 0,13,14
 232.385248362 76.8174643979 232.385248362 76.8174643979 222.692851159 100.16794877 c 0,15,16
 215.091796875 118.478454132 215.091796875 118.478454132 215.091796875 140.493164062 c 0,0,1
EndSplineSet
EndChar

StartChar: colon
Encoding: 58 58 3
GlifName: colon
Width: 641
VWidth: 2764
GlyphClass: 2
Flags: W
LayerCount: 2
Fore
SplineSet
215.091796875 1010.49316406 m 0,0,1
 215.091796875 1053.94154082 215.091796875 1053.94154082 245.961511507 1084.81049526 c 0,2,3
 261.851735172 1100.70111025 261.851735172 1100.70111025 279.894053932 1108.19039887 c 128,-1,4
 297.936372692 1115.6796875 297.936372692 1115.6796875 320.278320312 1115.6796875 c 0,5,6
 363.72767362 1115.6796875 363.72767362 1115.6796875 394.596105673 1084.81049527 c 128,-1,7
 425.463867188 1053.94197358 425.463867188 1053.94197358 425.463867188 1010.49316406 c 0,8,9
 425.463867188 988.148818079 425.463867188 988.148818079 417.974234806 970.106769484 c 128,-1,10
 410.484602424 952.064720889 410.484602424 952.064720889 394.59610568 936.175832861 c 0,11,12
 363.72767362 905.306640625 363.72767362 905.306640625 320.278320312 905.306640625 c 0,13,14
 282.213484554 905.306640625 282.213484554 905.306640625 254.130689895 928.701942535 c 0,15,16
 246.67733662 934.911123617 246.67733662 934.911123617 240.726607847 941.606225529 c 128,-1,17
 234.775879075 948.30132744 234.775879075 948.30132744 230.343719227 955.35745507 c 128,-1,18
 225.91155938 962.413582699 225.91155938 962.413582699 222.692851159 970.16794877 c 0,19,20
 215.091796875 988.478454132 215.091796875 988.478454132 215.091796875 1010.49316406 c 0,0,1
215.091796875 140.493164062 m 0,21,22
 215.091796875 183.94154082 215.091796875 183.94154082 245.961511507 214.810495264 c 128,-1,23
 276.829943567 245.6796875 276.829943567 245.6796875 320.278320312 245.6796875 c 128,-1,24
 363.72767362 245.6796875 363.72767362 245.6796875 394.596105674 214.81049527 c 128,-1,25
 425.463867188 183.941973579 425.463867188 183.941973579 425.463867188 140.493164062 c 128,-1,26
 425.463867188 97.0443545455 425.463867188 97.0443545455 394.59610568 66.1758328608 c 128,-1,27
 363.72767362 35.306640625 363.72767362 35.306640625 320.278320312 35.306640625 c 0,28,29
 312.400893865 35.306640625 312.400893865 35.306640625 305.146808018 36.2224490811 c 128,-1,30
 297.892722171 37.1382575372 297.892722171 37.1382575372 291.146741789 38.9766404122 c 128,-1,31
 284.400761406 40.8150232872 284.400761406 40.8150232872 278.068740519 43.6273500709 c 128,-1,32
 271.736719632 46.4396768545 271.736719632 46.4396768545 265.799850256 50.1830722942 c 128,-1,33
 259.86298088 53.9264677338 259.86298088 53.9264677338 254.130689895 58.7019425347 c 0,34,35
 232.385248362 76.8174643979 232.385248362 76.8174643979 222.692851159 100.16794877 c 0,36,37
 215.091796875 118.478454132 215.091796875 118.478454132 215.091796875 140.493164062 c 0,21,22
EndSplineSet
EndChar

StartChar: afii57388
Encoding: 1548 1548 5
GlifName: afii57388
Width: 739
VWidth: 2772
GlyphClass: 2
Flags: W
LayerCount: 2
Fore
SplineSet
264.910637075 284.082651121 m 0,0,1
 307.841957006 496.571002293 307.841957006 496.571002293 467.365692841 633.966496181 c 1,2,3
 340.587549519 493.420020635 340.587549519 493.420020635 326.067386861 291.349380759 c 2,4,-1
 323.725590812 258.759647625 l 1,5,-1
 356.396358593 259.201967824 l 2,6,7
 470.732674817 260.749934573 470.732674817 260.749934573 495.831417445 211.428529251 c 0,8,9
 511.830053453 179.28769214 511.830053453 179.28769214 511.092323882 148.585517716 c 0,10,11
 510.208059667 89.6886383177 510.208059667 89.6886383177 483.746492647 64.3178153633 c 128,-1,12
 457.284925628 38.9469924089 457.284925628 38.9469924089 395.927557331 38.9071858777 c 0,13,14
 370.73522181 38.8018625783 370.73522181 38.8018625783 350.135348973 42.8601864058 c 0,15,16
 286.295285382 55.4371403164 286.295285382 55.4371403164 264.017436633 111.934799505 c 128,-1,17
 241.739587883 168.432458694 241.739587883 168.432458694 264.910637075 284.082651121 c 0,0,1
EndSplineSet
EndChar

StartChar: uni0615
Encoding: 1557 1557 6
GlifName: uni0615
Width: -29
VWidth: 2714
GlyphClass: 4
Flags: W
AnchorPoint: "Anchor-10" 658.199 1624.46 mark 0
AnchorPoint: "Anchor-9" 658.199 1624.46 mark 0
AnchorPoint: "Anchor-1" 672.366 2447.86 basemark 0
AnchorPoint: "Anchor-1" 658.199 1624.46 mark 0
LayerCount: 2
Fore
SplineSet
912.769755624 1920.01350395 m 0,0,1
 912.769755624 1994.96856117 912.769755624 1994.96856117 836.782727051 1994.96856117 c 4,2,3
 730.412315598 1994.96856117 730.412315598 1994.96856117 541.2421875 1790.00390625 c 1,4,-1
 677.703125 1790.00390625 l 2,5,6
 781.798204784 1790.00390625 781.798204784 1790.00390625 845.899102392 1824.50195312 c 0,7,8
 912.769755624 1860.49063684 912.769755624 1860.49063684 912.769755624 1920.01350395 c 0,0,1
991.1328125 1928.79980469 m 0,9,10
 991.00004589 1714.07421875 991.00004589 1714.07421875 668.384765625 1714.07421875 c 2,11,-1
 354.936523438 1714.07421875 l 1,12,-1
 354.936523438 1790.00390625 l 1,13,-1
 462.987304688 1790.00390625 l 1,14,-1
 462.987304688 2322.15039062 l 1,15,-1
 540.234375 2321.18359375 l 1,16,-1
 539.275390625 1893.90234375 l 1,17,18
 703.078829305 2080.07964876 703.078829305 2080.07964876 840.555998274 2080.07964876 c 4,19,20
 990.947121021 2080.07964876 990.947121021 2080.07964876 991.1328125 1928.79980469 c 0,9,10
EndSplineSet
EndChar

StartChar: uni061B
Encoding: 1563 1563 7
GlifName: uni061B_
Width: 739
VWidth: 2772
GlyphClass: 2
Flags: W
LayerCount: 2
Fore
SplineSet
292.091796875 140.493164062 m 0,0,1
 292.091796875 183.94154082 292.091796875 183.94154082 322.961511507 214.810495264 c 128,-1,2
 353.829943567 245.6796875 353.829943567 245.6796875 397.278320312 245.6796875 c 128,-1,3
 440.72767362 245.6796875 440.72767362 245.6796875 471.596105674 214.81049527 c 128,-1,4
 502.463867188 183.941973579 502.463867188 183.941973579 502.463867188 140.493164062 c 128,-1,5
 502.463867188 97.0443545455 502.463867188 97.0443545455 471.59610568 66.1758328608 c 128,-1,6
 440.72767362 35.306640625 440.72767362 35.306640625 397.278320312 35.306640625 c 0,7,8
 377.694340471 35.306640625 377.694340471 35.306640625 361.57452748 41.0377401022 c 128,-1,9
 345.454714489 46.7688395795 345.454714489 46.7688395795 331.130689895 58.7019425347 c 0,10,11
 309.385248362 76.8174643979 309.385248362 76.8174643979 299.692851159 100.16794877 c 0,12,13
 295.906486782 109.28908416 295.906486782 109.28908416 293.999141828 119.281198249 c 128,-1,14
 292.091796875 129.273312338 292.091796875 129.273312338 292.091796875 140.493164062 c 0,0,1
264.910637075 724.082651121 m 0,15,16
 307.841957006 936.571002293 307.841957006 936.571002293 467.365692842 1073.96649618 c 1,17,18
 340.587549519 933.420020634 340.587549519 933.420020634 326.067386861 731.349380759 c 2,19,-1
 323.725590812 698.759647625 l 1,20,-1
 356.396358593 699.201967824 l 2,21,22
 470.732674817 700.749934573 470.732674817 700.749934573 495.831417445 651.428529251 c 0,23,24
 511.830053453 619.28769214 511.830053453 619.28769214 511.092323882 588.585517716 c 0,25,26
 510.208059667 529.688638318 510.208059667 529.688638318 483.746492647 504.317815363 c 128,-1,27
 457.284925628 478.946992409 457.284925628 478.946992409 395.927557331 478.907185877 c 0,28,29
 389.5127426 478.880367028 389.5127426 478.880367028 383.42028671 479.120941631 c 128,-1,30
 377.327830819 479.361516235 377.327830819 479.361516235 371.616238435 479.864090065 c 128,-1,31
 365.90464605 480.366663894 365.90464605 480.366663894 360.5568732 481.113642305 c 128,-1,32
 355.209100349 481.860620716 355.209100349 481.860620716 350.135348973 482.860186405 c 0,33,34
 286.295285382 495.437140316 286.295285382 495.437140316 264.017436633 551.934799505 c 128,-1,35
 241.739587883 608.432458694 241.739587883 608.432458694 264.910637075 724.082651121 c 0,15,16
EndSplineSet
EndChar

StartChar: uni061F
Encoding: 1567 1567 8
GlifName: uni061F_
Width: 974
VWidth: 2764
GlyphClass: 2
Flags: W
LayerCount: 2
Fore
SplineSet
448.091796875 140.493164062 m 0,0,1
 448.091796875 183.94154082 448.091796875 183.94154082 478.961511507 214.810495264 c 0,2,3
 494.851735172 230.701110247 494.851735172 230.701110247 512.894053932 238.190398873 c 0,4,5
 530.936372692 245.6796875 530.936372692 245.6796875 553.278320312 245.6796875 c 0,6,7
 596.72767362 245.6796875 596.72767362 245.6796875 627.596105674 214.81049527 c 0,8,9
 658.463867188 183.941973579 658.463867188 183.941973579 658.463867188 140.493164062 c 0,10,11
 658.463867188 97.0443545455 658.463867188 97.0443545455 627.59610568 66.1758328608 c 0,12,13
 596.72767362 35.306640625 596.72767362 35.306640625 553.278320312 35.306640625 c 0,14,15
 533.694340471 35.306640625 533.694340471 35.306640625 517.57452748 41.0377401022 c 0,16,17
 501.454714489 46.7688395795 501.454714489 46.7688395795 487.130689895 58.7019425347 c 0,18,19
 465.385248362 76.8174643979 465.385248362 76.8174643979 455.692851159 100.16794877 c 0,20,21
 451.906486782 109.28908416 451.906486782 109.28908416 449.999141828 119.281198249 c 0,22,23
 448.091796875 129.273312338 448.091796875 129.273312338 448.091796875 140.493164062 c 0,0,1
480.279536354 476.330414586 m 1,24,25
 473.9264664 511.054044523 473.9264664 511.054044523 450.279066629 547.909223402 c 0,26,27
 426.631666857 584.764402282 426.631666857 584.764402282 389.569005922 621.431205521 c 0,28,29
 352.506344987 658.09800876 352.506344987 658.09800876 298.032773662 700.793402235 c 0,30,31
 131.269202108 831.399325758 131.269202108 831.399325758 134.993838641 1034.39201678 c 0,32,33
 137.772402526 1171.46783512 137.772402526 1171.46783512 214.495627247 1259.15152051 c 0,34,35
 326.43422916 1384.96680861 326.43422916 1384.96680861 508.82526408 1384.51685764 c 0,36,37
 676.719094093 1383.82314424 676.719094093 1383.82314424 758.797899857 1301.46457753 c 0,38,39
 840.876705622 1219.10601081 840.876705622 1219.10601081 845.732085938 1046.24963098 c 1,40,-1
 745.245593316 1046.24840588 l 1,41,42
 741.624711819 1112.24163688 741.624711819 1112.24163688 713.668247808 1158.23636649 c 0,43,44
 685.711783797 1204.23109611 685.711783797 1204.23109611 636.037752548 1227.58107767 c 0,45,46
 586.363721299 1250.93105923 586.363721299 1250.93105923 517.627491086 1250.89451919 c 0,47,48
 385.922923604 1251.01263693 385.922923604 1251.01263693 321.349850214 1173.21151266 c 0,49,50
 270.065048727 1111.98158666 270.065048727 1111.98158666 269.510977319 1019.11877632 c 0,51,52
 269.225191766 946.936886501 269.225191766 946.936886501 307.345401196 877.202595172 c 0,53,54
 345.465610625 807.468303844 345.465610625 807.468303844 419.410499291 740.52706592 c 0,55,56
 603.462407667 573.29377312 603.462407667 573.29377312 622.963061921 476.33253256 c 1,57,-1
 480.279536354 476.330414586 l 1,24,25
EndSplineSet
EndChar

StartChar: uni0621
Encoding: 1569 1569 9
GlifName: uni0621
Width: 868
VWidth: 2952
GlyphClass: 2
Flags: W
AnchorPoint: "Anchor-7" 471.326 -95.646 basechar 0
AnchorPoint: "Anchor-10" 467.848 1181.06 basechar 0
LayerCount: 2
Fore
SplineSet
147.76953125 62.3591824075 m 1,0,-1
 147.76953125 173.380096647 l 1,1,2
 247.382956284 236.136206964 247.382956284 236.136206964 325.456529234 259.09999097 c 2,3,-1
 396.914857302 280.118032661 l 1,4,-1
 330.836908723 314.494702631 l 2,5,6
 168.0293141 399.194410617 168.0293141 399.194410617 168.256703447 540.515592538 c 0,7,8
 168.602759313 603.554602488 168.602759313 603.554602488 184.834161613 652.804682157 c 128,-1,9
 201.065563914 702.054761826 201.065563914 702.054761826 232.701780041 738.756443224 c 0,10,11
 325.701921417 846.008868958 325.701921417 846.008868958 475.256526 846.105474681 c 0,12,13
 616.964051544 846.016366019 616.964051544 846.016366019 697.008697809 777.858662529 c 1,14,-1
 661.916832387 692.375619764 l 1,15,16
 622.473309748 714.17885661 622.473309748 714.17885661 579.284379845 724.516452818 c 128,-1,17
 536.095449943 734.854049027 536.095449943 734.854049027 486.873268469 734.73602385 c 0,18,19
 387.7499762 733.897438017 387.7499762 733.897438017 328.823451777 676.840398312 c 0,20,21
 315.189241399 663.62511944 315.189241399 663.62511944 304.835220837 648.189503691 c 128,-1,22
 294.481200275 632.753887941 294.481200275 632.753887941 287.634283031 615.586752521 c 128,-1,23
 280.787365787 598.419617102 280.787365787 598.419617102 277.297877563 579.611628296 c 128,-1,24
 273.80838934 560.803639491 273.80838934 560.803639491 273.731275719 540.579120154 c 0,25,26
 274.057150333 430.682350512 274.057150333 430.682350512 464.028274291 344.052764393 c 2,27,-1
 473.226227918 339.858364216 l 1,28,-1
 483.086865247 342.086182711 l 1,29,-1
 704.666235695 392.147715567 l 1,30,-1
 722.50020992 281.512543516 l 1,31,32
 487.416267758 244.549445924 487.416267758 244.549445924 147.76953125 62.3591824075 c 1,0,-1
EndSplineSet
EndChar

StartChar: uni0627
Encoding: 1575 1575 15
GlifName: uni0627
Width: 477
VWidth: 2952
GlyphClass: 2
Flags: W
AnchorPoint: "Anchor-10" 229.871 1543.46 basechar 0
AnchorPoint: "Anchor-7" 233.587 -236.365 basechar 0
LayerCount: 2
Fore
SplineSet
180.890625 1378.15039062 m 1,0,-1
 294.205078125 1378.15039062 l 1,1,-1
 294.205078125 30.751953125 l 1,2,-1
 180.890625 30.751953125 l 1,3,-1
 180.890625 1378.15039062 l 1,0,-1
EndSplineSet
Substitution2: "'fina' Terminal Forms in Arabic lookup 9 subtable" uniFE8E
EndChar

StartChar: uni062D
Encoding: 1581 1581 21
GlifName: uni062D_
Width: 1386
VWidth: 2952
GlyphClass: 2
Flags: W
AnchorPoint: "Anchor-7" 580.833 -810.619 basechar 0
AnchorPoint: "Anchor-10" 649.478 1262.07 basechar 0
LayerCount: 2
Fore
SplineSet
154.987304708 -144.851950345 m 0,0,1
 154.987304708 135.957960969 154.987304708 135.957960969 326.021296549 313.363130624 c 128,-1,2
 497.05528839 490.768300279 497.05528839 490.768300279 847.495496549 568.48799877 c 2,3,-1
 857.495496549 570.705772207 l 1,4,-1
 954.6464056 592.251642755 l 1,5,-1
 861.774868768 627.992394196 l 2,6,7
 858.945258631 629.08134347 858.945258631 629.08134347 855.330557351 630.486854509 c 128,-1,8
 851.715856071 631.892365547 851.715856071 631.892365547 847.31677984 633.614200427 c 128,-1,9
 842.917703609 635.336035306 842.917703609 635.336035306 837.747918518 637.368790104 c 128,-1,10
 832.578133426 639.401544902 832.578133426 639.401544902 826.625229266 641.750202408 c 128,-1,11
 820.672325105 644.098859915 820.672325105 644.098859915 813.96396946 646.752447445 c 128,-1,12
 807.255613815 649.406034975 807.255613815 649.406034975 799.765394982 652.375104081 c 128,-1,13
 792.275176149 655.344173188 792.275176149 655.344173188 784.044763208 658.612182424 c 128,-1,14
 775.814350266 661.88019166 775.814350266 661.88019166 766.803330018 665.46326134 c 128,-1,15
 757.792309769 669.04633102 757.792309769 669.04633102 748.055477695 672.922698983 c 0,16,17
 680.803625653 700.15687828 680.803625653 700.15687828 630.026657429 717.646659511 c 128,-1,18
 579.249689204 735.136440742 579.249689204 735.136440742 538.535106071 744.473100704 c 128,-1,19
 497.820522938 753.809760666 497.820522938 753.809760666 469.528023806 753.687752923 c 0,20,21
 427.545142533 753.804291754 427.545142533 753.804291754 389.701070772 741.863999629 c 128,-1,22
 351.856999012 729.923707504 351.856999012 729.923707504 319.275108995 706.457728821 c 128,-1,23
 286.693218978 682.991750139 286.693218978 682.991750139 259.94175455 648.533895416 c 2,24,-1
 246.931496747 631.77572599 l 1,25,-1
 144.346917741 682.421136162 l 1,26,27
 261.405925788 875.064249624 261.405925788 875.064249624 471.160198282 875.840983806 c 0,28,29
 510.773994552 875.890639367 510.773994552 875.890639367 555.794035492 866.946795355 c 128,-1,30
 600.814076432 858.002951342 600.814076432 858.002951342 652.527288054 839.523249601 c 128,-1,31
 704.240499676 821.04354786 704.240499676 821.04354786 761.850380812 793.060452191 c 0,32,33
 1052.59569329 651.391989715 1052.59569329 651.391989715 1225.75681022 633.031228943 c 1,34,-1
 1216.94420308 515.141986381 l 1,35,36
 1055.92268244 503.792950472 1055.92268244 503.792950472 945.993153523 478.80947015 c 0,37,38
 610.528756135 400.99076743 610.528756135 400.99076743 437.822818739 248.966901261 c 128,-1,39
 265.116881343 96.9430350925 265.116881343 96.9430350925 265.249030281 -129.282471948 c 0,40,41
 265.114686688 -328.187907681 265.114686688 -328.187907681 409.101367603 -428.041292114 c 128,-1,42
 553.088048519 -527.894676547 553.088048519 -527.894676547 826.353764056 -527.7831881 c 0,43,44
 1030.83492908 -527.987839808 1030.83492908 -527.987839808 1221.37306095 -445.257407968 c 1,45,-1
 1245.30584033 -563.94454931 l 1,46,47
 1058.68687985 -648.019793418 1058.68687985 -648.019793418 811.54769814 -648.249029696 c 0,48,49
 439.112131305 -648.008463231 439.112131305 -648.008463231 276.011845807 -471.923347364 c 0,50,51
 154.987304708 -341.229376405 154.987304708 -341.229376405 154.987304708 -144.851950345 c 0,0,1
EndSplineSet
Substitution2: "'fina' Terminal Forms in Arabic lookup 9 subtable" uniFEA2
Substitution2: "'medi' Medial Forms in Arabic lookup 11 subtable" uniFEA4
Substitution2: "'init' Initial Forms in Arabic lookup 13 subtable" uniFEA3
EndChar

StartChar: uni062F
Encoding: 1583 1583 23
GlifName: uni062F_
Width: 994
VWidth: 2952
GlyphClass: 2
Flags: W
AnchorPoint: "Anchor-10" 396.137 1231.03 basechar 0
AnchorPoint: "Anchor-7" 437.24 -239.316 basechar 0
LayerCount: 2
Fore
SplineSet
130.982421875 174.814195265 m 1,0,1
 240.847192041 155.012982128 240.847192041 155.012982128 341.65438398 155.107423137 c 0,2,3
 742.007591309 154.991294578 742.007591309 154.991294578 741.954100836 366.374259055 c 0,4,5
 741.978995043 479.524255594 741.978995043 479.524255594 640.221468401 597.778272691 c 128,-1,6
 538.463941759 716.032289787 538.463941759 716.032289787 338.81861139 844.933146903 c 1,7,-1
 406.419322424 947.494157077 l 1,8,9
 862.037454729 667.739922047 862.037454729 667.739922047 862.479517947 368.935798099 c 0,10,11
 862.332984321 257.117211438 862.332984321 257.117211438 809.259588633 183.230802661 c 128,-1,12
 756.186192944 109.344393884 756.186192944 109.344393884 643.042091206 70.9227494132 c 128,-1,13
 529.897989469 32.5011049422 529.897989469 32.5011049422 354.756976356 32.2597873934 c 0,14,15
 227.420920922 32.0344194437 227.420920922 32.0344194437 130.982421875 50.3027757364 c 1,16,-1
 130.982421875 174.814195265 l 1,0,1
EndSplineSet
Substitution2: "'fina' Terminal Forms in Arabic lookup 9 subtable" uniFEAA
EndChar

StartChar: uni0631
Encoding: 1585 1585 25
GlifName: uni0631
Width: 826
VWidth: 2144
GlyphClass: 2
Flags: W
AnchorPoint: "Anchor-10" 507.256 926.2 basechar 0
AnchorPoint: "Anchor-7" 322.969 -667.998 basechar 0
LayerCount: 2
Fore
SplineSet
628.549232294 493.983317582 m 1,0,1
 664.128020082 407.46154419 664.128020082 407.46154419 681.667406479 325.436526255 c 0,2,3
 699.206792877 243.41150832 699.206792877 243.41150832 699.37500586 164.011914272 c 0,4,5
 699.197972386 -119.238416836 699.197972386 -119.238416836 539.688460747 -278.076044393 c 0,6,7
 380.178949109 -436.91367195 380.178949109 -436.91367195 52.1633701236 -477.364315946 c 1,8,-1
 24.2904622493 -365.871405582 l 1,9,10
 299.456817928 -331.554663764 299.456817928 -331.554663764 441.54584835 -201.18197727 c 0,11,12
 583.634878771 -70.8092907751 583.634878771 -70.8092907751 583.250936071 152.292453422 c 0,13,14
 583.01235854 297.502621994 583.01235854 297.502621994 515.726407592 454.475286425 c 1,15,-1
 628.549232294 493.983317582 l 1,0,1
EndSplineSet
PairPos2: "'kern' Horizontal Kerning lookup 15-2" uniFBFE dx=60 dy=0 dh=60 dv=0 dx=0 dy=0 dh=0 dv=0
PairPos2: "'kern' Horizontal Kerning lookup 15-1" uniFEE7 dx=-178 dy=0 dh=-178 dv=0 dx=0 dy=0 dh=0 dv=0
PairPos2: "'kern' Horizontal Kerning lookup 15-2" uniFB90 dx=-226 dy=0 dh=-226 dv=0 dx=0 dy=0 dh=0 dv=0
PairPos2: "'kern' Horizontal Kerning lookup 15-2" uniFB8E dx=-226 dy=0 dh=-226 dv=0 dx=0 dy=0 dh=0 dv=0
PairPos2: "'kern' Horizontal Kerning lookup 15-2" uni06A9 dx=-226 dy=0 dh=-226 dv=0 dx=0 dy=0 dh=0 dv=0
PairPos2: "'kern' Horizontal Kerning lookup 15-2" uni064A dx=-60 dy=0 dh=-60 dv=0 dx=0 dy=0 dh=0 dv=0
PairPos2: "'kern' Horizontal Kerning lookup 15-2" afii57414 dx=-60 dy=0 dh=-60 dv=0 dx=0 dy=0 dh=0 dv=0
PairPos2: "'kern' Horizontal Kerning lookup 15-2" uni0649 dx=-60 dy=0 dh=-60 dv=0 dx=0 dy=0 dh=0 dv=0
PairPos2: "'kern' Horizontal Kerning lookup 15-2" uniFEEB dx=-178 dy=0 dh=-178 dv=0 dx=0 dy=0 dh=0 dv=0
PairPos2: "'kern' Horizontal Kerning lookup 15-2" uni0647 dx=-178 dy=0 dh=-178 dv=0 dx=0 dy=0 dh=0 dv=0
PairPos2: "'kern' Horizontal Kerning lookup 15-2" uni0646 dx=-60 dy=0 dh=-60 dv=0 dx=0 dy=0 dh=0 dv=0
PairPos2: "'kern' Horizontal Kerning lookup 15-2" uniFEE3 dx=-178 dy=0 dh=-178 dv=0 dx=0 dy=0 dh=0 dv=0
PairPos2: "'kern' Horizontal Kerning lookup 15-2" uni0645 dx=-178 dy=0 dh=-178 dv=0 dx=0 dy=0 dh=0 dv=0
PairPos2: "'kern' Horizontal Kerning lookup 15-2" uniFEFB dx=-143 dy=0 dh=-143 dv=0 dx=0 dy=0 dh=0 dv=0
PairPos2: "'kern' Horizontal Kerning lookup 15-2" uniFEDF dx=-143 dy=0 dh=-143 dv=0 dx=0 dy=0 dh=0 dv=0
PairPos2: "'kern' Horizontal Kerning lookup 15-2" uni0644 dx=-60 dy=0 dh=-60 dv=0 dx=0 dy=0 dh=0 dv=0
PairPos2: "'kern' Horizontal Kerning lookup 15-2" uniFEDB dx=-226 dy=0 dh=-226 dv=0 dx=0 dy=0 dh=0 dv=0
PairPos2: "'kern' Horizontal Kerning lookup 15-2" uni0643 dx=-143 dy=0 dh=-143 dv=0 dx=0 dy=0 dh=0 dv=0
PairPos2: "'kern' Horizontal Kerning lookup 15-2" uniFED7 dx=-178 dy=0 dh=-178 dv=0 dx=0 dy=0 dh=0 dv=0
PairPos2: "'kern' Horizontal Kerning lookup 15-2" uni0642 dx=-60 dy=0 dh=-60 dv=0 dx=0 dy=0 dh=0 dv=0
PairPos2: "'kern' Horizontal Kerning lookup 15-2" uniFED3 dx=-178 dy=0 dh=-178 dv=0 dx=0 dy=0 dh=0 dv=0
PairPos2: "'kern' Horizontal Kerning lookup 15-2" uni0641 dx=-178 dy=0 dh=-178 dv=0 dx=0 dy=0 dh=0 dv=0
PairPos2: "'kern' Horizontal Kerning lookup 15-2" uniFECF dx=-178 dy=0 dh=-178 dv=0 dx=0 dy=0 dh=0 dv=0
PairPos2: "'kern' Horizontal Kerning lookup 15-2" uniFECB dx=-178 dy=0 dh=-178 dv=0 dx=0 dy=0 dh=0 dv=0
PairPos2: "'kern' Horizontal Kerning lookup 15-2" uniFEC7 dx=-178 dy=0 dh=-178 dv=0 dx=0 dy=0 dh=0 dv=0
PairPos2: "'kern' Horizontal Kerning lookup 15-2" uni0638 dx=-178 dy=0 dh=-178 dv=0 dx=0 dy=0 dh=0 dv=0
PairPos2: "'kern' Horizontal Kerning lookup 15-2" uniFEC3 dx=-178 dy=0 dh=-178 dv=0 dx=0 dy=0 dh=0 dv=0
PairPos2: "'kern' Horizontal Kerning lookup 15-2" uni0637 dx=-178 dy=0 dh=-178 dv=0 dx=0 dy=0 dh=0 dv=0
PairPos2: "'kern' Horizontal Kerning lookup 15-2" uniFEBF dx=-178 dy=0 dh=-178 dv=0 dx=0 dy=0 dh=0 dv=0
PairPos2: "'kern' Horizontal Kerning lookup 15-2" uni0636 dx=-178 dy=0 dh=-178 dv=0 dx=0 dy=0 dh=0 dv=0
PairPos2: "'kern' Horizontal Kerning lookup 15-2" uniFEBB dx=-178 dy=0 dh=-178 dv=0 dx=0 dy=0 dh=0 dv=0
PairPos2: "'kern' Horizontal Kerning lookup 15-2" uni0635 dx=-178 dy=0 dh=-178 dv=0 dx=0 dy=0 dh=0 dv=0
PairPos2: "'kern' Horizontal Kerning lookup 15-2" uniFEB7 dx=-178 dy=0 dh=-178 dv=0 dx=0 dy=0 dh=0 dv=0
PairPos2: "'kern' Horizontal Kerning lookup 15-2" uni0634 dx=-178 dy=0 dh=-178 dv=0 dx=0 dy=0 dh=0 dv=0
PairPos2: "'kern' Horizontal Kerning lookup 15-2" uniFEB3 dx=-178 dy=0 dh=-178 dv=0 dx=0 dy=0 dh=0 dv=0
PairPos2: "'kern' Horizontal Kerning lookup 15-2" uni0633 dx=-178 dy=0 dh=-178 dv=0 dx=0 dy=0 dh=0 dv=0
PairPos2: "'kern' Horizontal Kerning lookup 15-2" uni0630 dx=-178 dy=0 dh=-178 dv=0 dx=0 dy=0 dh=0 dv=0
PairPos2: "'kern' Horizontal Kerning lookup 15-2" uni062F dx=-178 dy=0 dh=-178 dv=0 dx=0 dy=0 dh=0 dv=0
PairPos2: "'kern' Horizontal Kerning lookup 15-2" uniFEA7 dx=-178 dy=0 dh=-178 dv=0 dx=0 dy=0 dh=0 dv=0
PairPos2: "'kern' Horizontal Kerning lookup 15-2" uniFEA3 dx=-178 dy=0 dh=-178 dv=0 dx=0 dy=0 dh=0 dv=0
PairPos2: "'kern' Horizontal Kerning lookup 15-2" uniFE9F dx=-178 dy=0 dh=-178 dv=0 dx=0 dy=0 dh=0 dv=0
PairPos2: "'kern' Horizontal Kerning lookup 15-2" uniFE9B dx=-178 dy=0 dh=-178 dv=0 dx=0 dy=0 dh=0 dv=0
PairPos2: "'kern' Horizontal Kerning lookup 15-2" uni062B dx=-178 dy=0 dh=-178 dv=0 dx=0 dy=0 dh=0 dv=0
PairPos2: "'kern' Horizontal Kerning lookup 15-2" uniFE97 dx=-178 dy=0 dh=-178 dv=0 dx=0 dy=0 dh=0 dv=0
PairPos2: "'kern' Horizontal Kerning lookup 15-2" uni062A dx=-178 dy=0 dh=-178 dv=0 dx=0 dy=0 dh=0 dv=0
PairPos2: "'kern' Horizontal Kerning lookup 15-2" uni0629 dx=-178 dy=0 dh=-178 dv=0 dx=0 dy=0 dh=0 dv=0
PairPos2: "'kern' Horizontal Kerning lookup 15-2" uni0628 dx=-178 dy=0 dh=-178 dv=0 dx=0 dy=0 dh=0 dv=0
PairPos2: "'kern' Horizontal Kerning lookup 15-2" uni0627 dx=-143 dy=0 dh=-143 dv=0 dx=0 dy=0 dh=0 dv=0
PairPos2: "'kern' Horizontal Kerning lookup 15-2" uni0623 dx=-143 dy=0 dh=-143 dv=0 dx=0 dy=0 dh=0 dv=0
PairPos2: "'kern' Horizontal Kerning lookup 15-2" uni0622 dx=-143 dy=0 dh=-143 dv=0 dx=0 dy=0 dh=0 dv=0
PairPos2: "'kern' Horizontal Kerning lookup 15-2" uni0621 dx=-178 dy=0 dh=-178 dv=0 dx=0 dy=0 dh=0 dv=0
PairPos2: "'kern' Horizontal Kerning lookup 15-2" uniFB94 dx=-226 dy=0 dh=-226 dv=0 dx=0 dy=0 dh=0 dv=0
PairPos2: "'kern' Horizontal Kerning lookup 15-2" uniFB92 dx=-226 dy=0 dh=-226 dv=0 dx=0 dy=0 dh=0 dv=0
PairPos2: "'kern' Horizontal Kerning lookup 15-2" uni06AF dx=-226 dy=0 dh=-226 dv=0 dx=0 dy=0 dh=0 dv=0
PairPos2: "'kern' Horizontal Kerning lookup 15-2" afii57506 dx=-178 dy=0 dh=-178 dv=0 dx=0 dy=0 dh=0 dv=0
PairPos2: "'kern' Horizontal Kerning lookup 15-2" afii57440 dx=-178 dy=0 dh=-178 dv=0 dx=0 dy=0 dh=0 dv=0
PairPos2: "'kern' Horizontal Kerning lookup 15-2" uniFE8B dx=-178 dy=0 dh=-178 dv=0 dx=0 dy=0 dh=0 dv=0
Substitution2: "'fina' Terminal Forms in Arabic lookup 9 subtable" uniFEAE
EndChar

StartChar: uni0633
Encoding: 1587 1587 27
GlifName: uni0633
Width: 2500
VWidth: 2952
GlyphClass: 2
Flags: W
AnchorPoint: "Anchor-10" 1818.53 1137.1 basechar 0
AnchorPoint: "Anchor-7" 681.902 -756.086 basechar 0
LayerCount: 2
Fore
SplineSet
1552.81036923 29.9189501568 m 0,0,1
 1448.76034235 30.0001871125 1448.76034235 30.0001871125 1388.98786705 79.2104062988 c 2,2,-1
 1340.34047883 119.261426859 l 1,3,-1
 1339.92058793 56.249711118 l 2,4,5
 1339 -75 1339 -75 1276.83618404 -203.975792935 c 0,6,7
 1139 -490 1139 -490 707.321312762 -489.72461248 c 0,8,9
 609 -490 609 -490 528.849478065 -475.360458823 c 0,10,11
 448 -461 448 -461 384.273015692 -431.751601424 c 0,12,13
 320 -403 320 -403 272.881193098 -358.718459096 c 0,14,15
 226 -315 226 -315 194.118761988 -255.74209223 c 0,16,17
 163 -197 163 -197 147.2646242 -122.665543535 c 0,18,19
 132 -49 132 -49 131.753165821 41.0075027023 c 0,20,21
 132 228 132 228 219.53301016 450.873820797 c 1,22,-1
 323.043226785 408.209692945 l 1,23,24
 248 207 248 207 248.268561954 42.8812312374 c 0,25,26
 248 -162 248 -162 367.425286989 -267.50075534 c 128,-1,27
 487 -373 487 -373 714.374789699 -373.203454253 c 0,28,29
 962 -373 962 -373 1090.69264216 -252.475440951 c 0,30,31
 1220 -132 1220 -132 1220.55484497 101.861108175 c 0,32,33
 1221 277 1221 277 1141.69527933 454.40181101 c 1,34,-1
 1254.00057115 493.638942835 l 1,35,-1
 1304.43547627 337.831140531 l 2,36,37
 1333 248 1333 248 1397.06636892 201.798688448 c 0,38,39
 1461 155 1461 155 1554.50221994 154.992187526 c 0,40,41
 1659 155 1659 155 1715.9074385 210.535162444 c 128,-1,42
 1773 266 1773 266 1772.30135596 368.855472215 c 0,43,44
 1772.00009941 426.980820408 1772.00009941 426.980820408 1769.15700314 471.580415043 c 2,45,-1
 1765.56628165 527.907991521 l 1,46,-1
 1870.7969099 540.258377445 l 1,47,-1
 1884.68090363 340.552204985 l 2,48,49
 1891 253 1891 253 1939.46806345 205.134671306 c 0,50,51
 1988 157 1988 157 2073.10135077 157.5001712 c 0,52,53
 2162 158 2162 158 2206.13905183 221.928582719 c 0,54,55
 2251 286 2251 286 2250.42259719 399.440923093 c 0,56,57
 2250 496 2250 496 2213.40760699 633.068075416 c 1,58,-1
 2327.08142388 663.483000157 l 1,59,60
 2367 526 2367 526 2366.4365787 400.476529253 c 0,61,62
 2366 187 2366 187 2255.03125722 89.7443769832 c 0,63,64
 2222 61 2222 61 2177.00419807 45.7414919307 c 0,65,66
 2132 31 2132 31 2075.17634943 30.9121059953 c 0,67,68
 1906 31 1906 31 1838.03417969 192.00390625 c 5,69,70
 1722 30 1722 30 1552.81036923 29.9189501568 c 0,0,1
EndSplineSet
Substitution2: "'fina' Terminal Forms in Arabic lookup 9 subtable" uniFEB2
Substitution2: "'medi' Medial Forms in Arabic lookup 11 subtable" uniFEB4
Substitution2: "'init' Initial Forms in Arabic lookup 13 subtable" uniFEB3
EndChar

StartChar: uni0635
Encoding: 1589 1589 29
GlifName: uni0635
Width: 2607
VWidth: 2952
GlyphClass: 2
Flags: W
AnchorPoint: "Anchor-7" 681.902 -756.086 basechar 0
AnchorPoint: "Anchor-10" 2066.53 1236.1 basechar 0
LayerCount: 2
Fore
SplineSet
1624.65625 154.416992188 m 1,0,-1
 1778.70781124 154.417026116 l 2,1,2
 2062.40625662 153.990357819 2062.40625662 153.990357819 2188.80202997 210.589375231 c 0,3,4
 2267.89426334 245.400944275 2267.89426334 245.400944275 2310.09707538 302.788727698 c 128,-1,5
 2352.29988742 360.176511122 2352.29988742 360.176511122 2352.6694848 436.434738732 c 0,6,7
 2353.07230783 511.057708587 2353.07230783 511.057708587 2311.77840866 565.234457806 c 0,8,9
 2243.89491248 653.920652452 2243.89491248 653.920652452 2122.15899369 654.573454575 c 0,10,11
 2000.99593885 654.253530176 2000.99593885 654.253530176 1871.99833593 540.007366189 c 128,-1,12
 1743.00073301 425.761202202 1743.00073301 425.761202202 1599.36275117 200.548914484 c 2,13,-1
 1569.94030587 154.416992188 l 1,14,-1
 1624.65625 154.416992188 l 1,0,-1
1722.34082031 30 m 2,15,16
 1663.80913407 30 1663.80913407 30 1612.63200799 33.5081180944 c 128,-1,17
 1561.4548819 37.0162361888 1561.4548819 37.0162361888 1519.19598728 43.8126881134 c 128,-1,18
 1476.93709267 50.609140038 1476.93709267 50.609140038 1442.94298127 60.3983650653 c 128,-1,19
 1408.94886987 70.1875900926 1408.94886987 70.1875900926 1383.24302535 82.9290701883 c 2,20,-1
 1340.24040694 104.243950788 l 1,21,22
 1339.04567243 -75.04612457 1339.04567243 -75.04612457 1276.83618404 -203.975792935 c 4,23,24
 1139.15217478 -489.988493989 1139.15217478 -489.988493989 707.321312762 -489.72461248 c 0,25,26
 609.414391478 -489.76915418 609.414391478 -489.76915418 528.849478065 -475.360458823 c 128,-1,27
 448.284564652 -460.951763467 448.284564652 -460.951763467 384.273015692 -431.751601424 c 128,-1,28
 320.261466731 -402.551439382 320.261466731 -402.551439382 272.881193098 -358.718459096 c 128,-1,29
 225.500919465 -314.88547881 225.500919465 -314.88547881 194.118761988 -255.74209223 c 128,-1,30
 162.736604511 -196.59870565 162.736604511 -196.59870565 147.2646242 -122.665543535 c 128,-1,31
 131.792643889 -48.7323814201 131.792643889 -48.7323814201 131.753165821 41.0075027023 c 0,32,33
 131.97836069 228.012361744 131.97836069 228.012361744 219.53301016 450.873820797 c 1,34,-1
 323.043226785 408.209692945 l 1,35,36
 248.009157495 207.223860375 248.009157495 207.223860375 248.268561954 42.8812312374 c 0,37,38
 248.126033479 -161.904200056 248.126033479 -161.904200056 367.425286989 -267.50075534 c 128,-1,39
 486.724540499 -373.097310624 486.724540499 -373.097310624 714.374789699 -373.203454253 c 0,40,41
 961.647213629 -373.097459157 961.647213629 -373.097459157 1090.69264216 -252.475440951 c 128,-1,42
 1219.73807069 -131.853422746 1219.73807069 -131.853422746 1220.55484497 101.861108175 c 0,43,44
 1220.9788821 277.230008688 1220.9788821 277.230008688 1141.69527933 454.40181101 c 1,45,-1
 1253.94875919 493.620840815 l 1,46,-1
 1312.45666444 311.765391438 l 2,47,48
 1351.50459921 191.071774874 1351.50459921 191.071774874 1430.84458635 183.252077995 c 2,49,-1
 1449.87325932 181.376624519 l 1,50,-1
 1459.60802468 197.833904489 l 2,51,52
 1635.16186804 494.61956328 1635.16186804 494.61956328 1801.18812678 640.655669351 c 128,-1,53
 1967.21438551 786.691775422 1967.21438551 786.691775422 2119.27237462 786.425842523 c 0,54,55
 2314.33437992 786.031600675 2314.33437992 786.031600675 2415.62496273 640.944243026 c 0,56,57
 2475.95633141 553.700545361 2475.95633141 553.700545361 2475.47033214 449.426403876 c 0,58,59
 2475.25151405 424.165425473 2475.25151405 424.165425473 2471.93683951 396.778629692 c 128,-1,60
 2468.62216497 369.391833912 2468.62216497 369.391833912 2462.24639598 340.520000561 c 0,61,62
 2390.16618012 30 2390.16618012 30 1773.15136719 30 c 2,63,-1
 1722.34082031 30 l 2,15,16
EndSplineSet
Substitution2: "'fina' Terminal Forms in Arabic lookup 9 subtable" uniFEBA
Substitution2: "'medi' Medial Forms in Arabic lookup 11 subtable" uniFEBC
Substitution2: "'init' Initial Forms in Arabic lookup 13 subtable" uniFEBB
EndChar

StartChar: uni0637
Encoding: 1591 1591 31
GlifName: uni0637
Width: 1490
VWidth: 2952
GlyphClass: 2
Flags: W
AnchorPoint: "Anchor-10" 471.36 1576.58 basechar 0
AnchorPoint: "Anchor-7" 641.602 -236.453 basechar 0
LayerCount: 2
Fore
SplineSet
1007.84550011 786.423770617 m 0,0,1
 1204.21617869 786.031472177 1204.21617869 786.031472177 1304.79766684 640.037513423 c 0,2,3
 1359.97362366 559.726011243 1359.97362366 559.726011243 1359.6737976 453.823677921 c 0,4,5
 1359.82552691 242.727778511 1359.82552691 242.727778511 1188.46060331 136.363889255 c 0,6,7
 1017.09567971 30 1017.09567971 30 658.228515625 30 c 2,8,-1
 131.302734375 30 l 1,9,-1
 131.302734375 154.242795644 l 1,10,-1
 321.843130615 154.376957918 l 1,11,-1
 323.570669678 154.377934481 l 1,12,-1
 340.849775742 154.387702212 l 1,13,-1
 349.51185498 169.338822072 l 1,14,15
 371.784671138 199.313474889 371.784671138 199.313474889 420.975367846 281.790255264 c 2,16,-1
 425.6328125 289.599273342 l 1,17,-1
 425.6328125 298.692382812 l 1,18,-1
 425.6328125 1408.87402344 l 1,19,-1
 538.946289062 1408.87402344 l 1,20,-1
 538.946289062 544.209960938 l 1,21,-1
 538.946289062 458.876882391 l 1,22,-1
 592.346221392 525.436491175 l 2,23,24
 801.415179465 786.027609009 801.415179465 786.027609009 1007.84550011 786.423770617 c 0,0,1
663.833007812 154.534179688 m 2,25,26
 941.509474358 154.534179688 941.509474358 154.534179688 1072.98558706 212.116698877 c 0,27,28
 1095.5684095 222.007284927 1095.5684095 222.007284927 1115.2583326 233.683465175 c 0,29,30
 1134.94825571 245.359645423 1134.94825571 245.359645423 1151.7029283 258.862438282 c 0,31,32
 1168.4576009 272.36523114 1168.4576009 272.36523114 1182.07427853 287.504909019 c 0,33,34
 1195.69095616 302.644586897 1195.69095616 302.644586897 1206.11245127 319.590892928 c 0,35,36
 1216.53394638 336.537198958 1216.53394638 336.537198958 1223.57333999 354.963099183 c 0,37,38
 1230.61273359 373.388999408 1230.61273359 373.388999408 1234.19701266 393.601543327 c 0,39,40
 1237.78129173 413.814087246 1237.78129173 413.814087246 1237.73837367 435.357516181 c 0,41,42
 1237.8367284 467.160224758 1237.8367284 467.160224758 1230.17552337 495.964942672 c 0,43,44
 1222.51431835 524.769660585 1222.51431835 524.769660585 1207.14481382 549.937078906 c 0,45,46
 1191.7753093 575.104497226 1191.7753093 575.104497226 1169.16352942 595.543138702 c 0,47,48
 1104.66263742 655.05851435 1104.66263742 655.05851435 1007.35088261 654.573387644 c 0,49,50
 885.282235407 654.810828772 885.282235407 654.810828772 756.066935365 540.441208372 c 0,51,52
 626.851635322 426.071587973 626.851635322 426.071587973 484.3926275 200.55624163 c 2,53,-1
 455.320294338 154.534179688 l 1,54,-1
 509.755859375 154.534179688 l 1,55,-1
 663.833007812 154.534179688 l 2,25,26
EndSplineSet
Substitution2: "'fina' Terminal Forms in Arabic lookup 9 subtable" uniFEC2
Substitution2: "'medi' Medial Forms in Arabic lookup 11 subtable" uniFEC4
Substitution2: "'init' Initial Forms in Arabic lookup 13 subtable" uniFEC3
EndChar

StartChar: uni0639
Encoding: 1593 1593 33
GlifName: uni0639
Width: 1330
VWidth: 2952
GlyphClass: 2
Flags: W
AnchorPoint: "Anchor-7" 580.833 -810.619 basechar 0
AnchorPoint: "Anchor-10" 723.478 1366.07 basechar 0
LayerCount: 2
Fore
SplineSet
640.104846811 433.655660393 m 2,0,1
 816.624722323 464.011011185 816.624722323 464.011011185 941.349028916 464.547225068 c 0,2,3
 1017.28532268 464.914070886 1017.28532268 464.914070886 1090.09385899 458.174485816 c 1,4,-1
 1075.09804908 340.663522082 l 1,5,6
 1009.92648098 342.871402676 1009.92648098 342.871402676 984.174368632 342.160750763 c 0,7,8
 622.198017641 331.876491565 622.198017641 331.876491565 433.654788105 210.522853548 c 128,-1,9
 245.111558569 89.1692155314 245.111558569 89.1692155314 245.240241317 -144.834084086 c 0,10,11
 245.153197042 -272.789522133 245.153197042 -272.789522133 309.649082253 -358.790679735 c 128,-1,12
 374.144967465 -444.791837336 374.144967465 -444.791837336 496.055385635 -486.48376344 c 128,-1,13
 617.965803805 -528.175689544 617.965803805 -528.175689544 795.343196026 -528.266576847 c 0,14,15
 844.428248785 -528.203570361 844.428248785 -528.203570361 893.197443224 -522.974284839 c 128,-1,16
 941.966637663 -517.744999317 941.966637663 -517.744999317 990.233244523 -507.386834998 c 128,-1,17
 1038.49985138 -497.02867068 1038.49985138 -497.02867068 1086.26785748 -481.608926648 c 128,-1,18
 1134.03586357 -466.189182617 1134.03586357 -466.189182617 1181.36440899 -445.69789972 c 1,19,-1
 1205.32693316 -564.532551027 l 1,20,21
 1020.39956274 -648.978722915 1020.39956274 -648.978722915 783.040938764 -648.733400757 c 0,22,23
 452.39751033 -648.863405475 452.39751033 -648.863405475 293.692343987 -525.623887379 c 128,-1,24
 134.987177644 -402.384369283 134.987177644 -402.384369283 134.97558588 -152.313390377 c 0,25,26
 134.981448472 -58.1069219668 134.981448472 -58.1069219668 155.915539448 21.0655266801 c 128,-1,27
 176.849630424 100.237975327 176.849630424 100.237975327 219.199995522 165.391931894 c 128,-1,28
 261.55036062 230.545888462 261.55036062 230.545888462 325.303368377 281.680621373 c 128,-1,29
 389.056376134 332.815354283 389.056376134 332.815354283 474.948802291 370.799468442 c 2,30,-1
 512.017174883 387.192174518 l 1,31,-1
 485.511246061 417.855194533 l 2,32,33
 371.988731518 549.182157605 371.988731518 549.182157605 371.843672924 695.002308594 c 0,34,35
 371.987128942 758.287930941 371.987128942 758.287930941 397.235236579 822.582719285 c 0,36,37
 409.415615691 852.909122398 409.415615691 852.909122398 427.96128722 881.323621176 c 128,-1,38
 446.506958749 909.738119953 446.506958749 909.738119953 471.505926777 936.166003116 c 0,39,40
 563.929054828 1034 563.929054828 1034 734 1034 c 0,41,42
 868.521158868 1034 868.521158868 1034 1027.86169865 930.832700161 c 1,43,-1
 984.553801832 834.779785178 l 1,44,45
 846.462806708 910.99528878 846.462806708 910.99528878 743.938141712 910.802777464 c 0,46,47
 598.04226519 911.025978112 598.04226519 911.025978112 530.244070055 798.1887626 c 0,48,49
 495.966096166 742.428521003 495.966096166 742.428521003 496.206756628 682.174860472 c 0,50,51
 496.086795204 656.004030938 496.086795204 656.004030938 502.791702836 629.316580478 c 128,-1,52
 509.496610468 602.629130017 509.496610468 602.629130017 522.671288172 575.903792435 c 0,53,54
 546.478663258 527.941187069 546.478663258 527.941187069 611.367344138 444.76828303 c 2,55,-1
 622.410888198 430.612907734 l 1,56,-1
 640.104846811 433.655660393 l 2,0,1
EndSplineSet
Substitution2: "'fina' Terminal Forms in Arabic lookup 9 subtable" uniFECA
Substitution2: "'medi' Medial Forms in Arabic lookup 11 subtable" uniFECC
Substitution2: "'init' Initial Forms in Arabic lookup 13 subtable" uniFECB
EndChar

StartChar: afii57440
Encoding: 1600 1600 35
GlifName: afii57440
Width: 286
VWidth: 2952
GlyphClass: 2
Flags: W
AnchorPoint: "Anchor-10" 143.774 1376.11 basechar 0
AnchorPoint: "Anchor-7" 147.7 -234.739 basechar 0
LayerCount: 2
Fore
SplineSet
-6.9384765625 30 m 2,0,1
 -15.9167709632 30 -15.9167709632 30 -21.0628320443 32.8211581577 c 0,2,3
 -26.2088931254 35.6423163154 -26.2088931254 35.6423163154 -30.4936067189 49.1514858278 c 0,4,5
 -34.7783203125 62.6606553402 -34.7783203125 62.6606553402 -34.7783203125 88.3134765625 c 2,6,-1
 -34.7784452612 107.278967492 l 2,7,8
 -34.8656455826 137.492150222 -34.8656455826 137.492150222 -28.6218268735 145.74558683 c 0,9,10
 -22.3780081643 153.999023438 -22.3780081643 153.999023438 -6.9384765625 153.999023438 c 2,11,-1
 281.462188615 153.999023438 l 1,12,13
 284.771484375 137.893788582 284.771484375 137.893788582 284.771484375 107.174804688 c 2,14,-1
 284.771584779 88.2475793414 l 2,15,16
 284.873199036 48.9719321579 284.873199036 48.9719321579 280.889294535 30 c 1,17,-1
 -6.9384765625 30 l 2,0,1
EndSplineSet
EndChar

StartChar: uni0643
Encoding: 1603 1603 38
GlifName: uni0643
Width: 1971
VWidth: 2952
GlyphClass: 2
Flags: W
AnchorPoint: "Anchor-7" 740.268 -236.468 basechar 0
AnchorPoint: "Anchor-10" 978.11 1452.05 basechar 0
LayerCount: 2
Fore
SplineSet
940.339282767 154.215890358 m 0,0,1
 1034.35132618 153.996768867 1034.35132618 153.996768867 1152.48343479 164.937233309 c 0,2,3
 1403.52744404 188.171356365 1403.52744404 188.171356365 1534.19655755 282.307807867 c 0,4,5
 1664.86567105 376.44425937 1664.86567105 376.44425937 1661.82910156 542.284441788 c 2,6,-1
 1661.82910156 1374.56640625 l 1,7,-1
 1779.70996094 1374.56640625 l 1,8,-1
 1779.70998334 544.302205829 l 2,9,10
 1779.80206397 468.952658339 1779.80206397 468.952658339 1762.47692091 404.96604554 c 0,11,12
 1745.15177785 340.979432741 1745.15177785 340.979432741 1710.47802022 287.835343472 c 0,13,14
 1675.80426259 234.691254202 1675.80426259 234.691254202 1623.27909899 191.1348994 c 0,15,16
 1430.12934155 30 1430.12934155 30 942.133789062 30 c 0,17,18
 460.814844872 30 460.814844872 30 283.365169957 160.026771336 c 0,19,20
 129.948337481 271.335739262 129.948337481 271.335739262 129.16111095 504.566491245 c 0,21,22
 129.028664115 614.275014723 129.028664115 614.275014723 161.859526865 703.04006868 c 1,23,-1
 266.12294234 657.742100569 l 1,24,25
 247.190474662 594.073757078 247.190474662 594.073757078 248.455433315 516.494727015 c 0,26,27
 250.156428548 336.285879746 250.156428548 336.285879746 384.746380076 252.060644442 c 0,28,29
 540.385883858 155.017198197 540.385883858 155.017198197 940.339282767 154.215890358 c 0,0,1
746.16015625 668.855985287 m 1,30,31
 821.140106759 661.879083704 821.140106759 661.879083704 878.343934032 661.267003485 c 0,32,33
 990.866509938 660.985214495 990.866509938 660.985214495 1049.96067354 685.17745394 c 0,34,35
 1071.73741128 694.172245298 1071.73741128 694.172245298 1087.70550724 707.793184139 c 0,36,37
 1103.6736032 721.41412298 1103.6736032 721.41412298 1113.03262519 740.312990099 c 0,38,39
 1122.39164719 759.211857217 1122.39164719 759.211857217 1122.7456689 781.314844231 c 0,40,41
 1122.85316048 799.74114114 1122.85316048 799.74114114 1118.20657464 816.471159374 c 0,42,43
 1113.55998881 833.201177607 1113.55998881 833.201177607 1104.31024481 847.622601882 c 0,44,45
 1095.06050081 862.044026156 1095.06050081 862.044026156 1081.57057516 873.474388789 c 0,46,47
 1061.86419718 890.437184938 1061.86419718 890.437184938 1035.53989732 900.442808079 c 0,48,49
 1009.21559746 910.44843122 1009.21559746 910.44843122 975.408924872 915.138728288 c 0,50,51
 925.635642231 922.706058108 925.635642231 922.706058108 890.156461116 937.576737965 c 0,52,53
 854.67728 952.447417823 854.67728 952.447417823 832.411489436 975.320570068 c 0,54,55
 810.145698872 998.193722313 810.145698872 998.193722313 800.106107839 1028.34189273 c 0,56,57
 790.066516807 1058.49006315 790.066516807 1058.49006315 790.921629144 1097.75597188 c 0,58,59
 795.118063229 1268.70467871 795.118063229 1268.70467871 1123.61035156 1300.88202835 c 1,60,-1
 1123.61035156 1232.08747533 l 1,61,62
 1063.73467252 1225.36480036 1063.73467252 1225.36480036 1019.07049668 1215.19312589 c 0,63,64
 974.406320843 1205.02145141 974.406320843 1205.02145141 938.064217167 1188.71768753 c 0,65,66
 901.722113492 1172.41392365 901.722113492 1172.41392365 882.905735278 1147.72371109 c 0,67,68
 864.089357064 1123.03349853 864.089357064 1123.03349853 864.139605045 1090.45031811 c 0,69,70
 863.951637068 990.246298681 863.951637068 990.246298681 1028.34655863 965.106877038 c 0,71,72
 1116.01003704 951.596757319 1116.01003704 951.596757319 1155.82766084 908.422873948 c 0,73,74
 1195.64528465 865.248990577 1195.64528465 865.248990577 1195.36439346 786.217169915 c 0,75,76
 1195.05348051 682.829027146 1195.05348051 682.829027146 1092.00364564 626.559627328 c 0,77,78
 1023.34099386 589.005001289 1023.34099386 589.005001289 895.966674825 589.088848679 c 0,79,80
 828.693987941 589.014119497 828.693987941 589.014119497 746.16015625 600.312663536 c 1,81,-1
 746.16015625 668.855985287 l 1,30,31
EndSplineSet
Substitution2: "'fina' Terminal Forms in Arabic lookup 9 subtable" uniFEDA
Substitution2: "'medi' Medial Forms in Arabic lookup 11 subtable" uniFEDC
Substitution2: "'init' Initial Forms in Arabic lookup 13 subtable" uniFEDB
EndChar

StartChar: uni0644
Encoding: 1604 1604 39
GlifName: uni0644
Width: 1441
VWidth: 2952
GlyphClass: 2
Flags: W
AnchorPoint: "Anchor-7" 681.902 -756.086 basechar 0
AnchorPoint: "Anchor-10" 593.908 1171.66 basechar 0
LayerCount: 2
Fore
SplineSet
1142.60435456 99.7113772435 m 2,0,-1
 1145.8411246 1377.99316406 l 1,1,-1
 1257.86678934 1377.99316406 l 1,2,-1
 1257.18557238 299.36040058 l 2,3,4
 1257.0013892 158.085126791 1257.0013892 158.085126791 1247.94047032 30.6988685671 c 0,5,6
 1237.85016393 -101.516771917 1237.85016393 -101.516771917 1198.24834238 -199.13565707 c 0,7,8
 1158.64652083 -296.754542224 1158.64652083 -296.754542224 1088.23459033 -361.493305331 c 0,9,10
 1017.82265983 -426.232068439 1017.82265983 -426.232068439 916.561005796 -458.015286651 c 0,11,12
 815.299351761 -489.798504864 815.299351761 -489.798504864 681.415958448 -489.734378141 c 0,13,14
 401.468019752 -489.862492145 401.468019752 -489.862492145 266.68596893 -359.319809022 c 0,15,16
 131.903918108 -228.777125898 131.903918108 -228.777125898 132.740068278 40.6541518737 c 0,17,18
 132.992163294 138.907188093 132.992163294 138.907188093 152.836528589 235.330765886 c 0,19,20
 161.786308117 278.36982219 161.786308117 278.36982219 174.449648108 321.605474279 c 0,21,22
 187.112988099 364.841126368 187.112988099 364.841126368 203.094085239 407.114129906 c 1,23,-1
 306.515232581 364.486490197 l 1,24,25
 248.012047094 202.563973334 248.012047094 202.563973334 248.246100002 38.2058914123 c 0,26,27
 248.115839853 -163.560359454 248.115839853 -163.560359454 358.97586497 -268.334042547 c 0,28,29
 469.835890087 -373.10772564 469.835890087 -373.10772564 681.801017256 -373.226769337 c 0,30,31
 831.865165487 -373.14748369 831.865165487 -373.14748369 934.600730463 -319.256856212 c 0,32,33
 1037.33629544 -265.366228734 1037.33629544 -265.366228734 1089.69118475 -159.863848968 c 0,34,35
 1142.04607406 -54.361469202 1142.04607406 -54.361469202 1142.60435456 99.7113772435 c 2,0,-1
EndSplineSet
Substitution2: "'fina' Terminal Forms in Arabic lookup 9 subtable" uniFEDE
Substitution2: "'medi' Medial Forms in Arabic lookup 11 subtable" uniFEE0
Substitution2: "'init' Initial Forms in Arabic lookup 13 subtable" uniFEDF
EndChar

StartChar: uni0645
Encoding: 1605 1605 40
GlifName: uni0645
Width: 1242
VWidth: 2622
GlyphClass: 2
Flags: W
AnchorPoint: "Anchor-7" 724.983 -336.909 basechar 0
AnchorPoint: "Anchor-10" 769.239 1134.48 basechar 0
LayerCount: 2
Fore
SplineSet
841.884617091 128 m 0,0,1
 918.179998602 127.41311245 918.179998602 127.41311245 960.166566508 172.11405798 c 0,2,3
 1002.15313441 216.815003509 1002.15313441 216.815003509 1002.35834409 297.022271678 c 0,4,5
 1000.8202996 361.018436895 1000.8202996 361.018436895 978.343263546 418.000372311 c 0,6,7
 961.821681709 458.704068238 961.821681709 458.704068238 934.963825529 487.067204091 c 0,8,9
 908.105969348 515.430339944 908.105969348 515.430339944 872.060150347 530.335084644 c 0,10,11
 836.014331346 545.239829344 836.014331346 545.239829344 792.240505301 546.001645687 c 0,12,13
 634.95547084 548.3124154 634.95547084 548.3124154 553.10655433 318.673652756 c 2,14,-1
 546.246548201 299.426931034 l 1,15,-1
 561.643779362 285.994833144 l 2,16,17
 652.39710963 206.824259993 652.39710963 206.824259993 720.381091023 167.412129996 c 0,18,19
 788.365072416 128 788.365072416 128 841.884617091 128 c 0,0,1
1113.39247824 309.021935715 m 0,20,21
 1113.02724426 176.897177441 1113.02724426 176.897177441 1050.25148428 91.7149202553 c 0,22,23
 987.576739186 7.40658442412 987.576739186 7.40658442412 852.040347843 6.86279007891 c 0,24,25
 821.965024906 6.90323926194 821.965024906 6.90323926194 786.826552634 15.7950251763 c 0,26,27
 751.688080362 24.6868110906 751.688080362 24.6868110906 710.053972841 43.3991068409 c 0,28,29
 668.41986532 62.1114025912 668.41986532 62.1114025912 622.534948662 90.1986832561 c 0,30,31
 598.104966304 105.195883784 598.104966304 105.195883784 571.916873986 119.829375673 c 0,32,33
 545.728781669 134.462867562 545.728781669 134.462867562 517.871005861 148.689308098 c 0,34,35
 477.823100264 169.213491467 477.823100264 169.213491467 427.75853784 167.742050017 c 0,36,37
 386.734303031 167.274734584 386.734303031 167.274734584 355.451508488 143.601946181 c 0,38,39
 324.168713945 119.929157777 324.168713945 119.929157777 303.424759219 77.5932474644 c 0,40,41
 282.680804493 35.2573371513 282.680804493 35.2573371513 269.624784996 -28.4560156572 c 0,42,43
 256.568765499 -92.1693684658 256.568765499 -92.1693684658 251.085025985 -167.60909708 c 0,44,45
 245.601286472 -243.048825693 245.601286472 -243.048825693 245.751977149 -338.037966328 c 0,46,47
 245.976422194 -515.38843235 245.976422194 -515.38843235 257.290946857 -664.813476562 c 1,48,-1
 138.427367982 -664.813476562 l 1,49,50
 128.084867415 -491.408439945 128.084867415 -491.408439945 129.060422599 -334.257000181 c 0,51,52
 131.938671862 1.71283865866 131.938671862 1.71283865866 204.727184407 145.374376577 c 0,53,54
 275.728893375 284.646959552 275.728893375 284.646959552 397.159451589 303.046580738 c 2,55,-1
 414.1948169 305.627844245 l 1,56,-1
 420.549841018 321.64284537 l 2,57,58
 560.415946114 674.112920835 560.415946114 674.112920835 789.029453051 675.382054115 c 0,59,60
 864.077859336 675.668275782 864.077859336 675.668275782 922.01702652 649.541460623 c 0,61,62
 979.956193704 623.414645465 979.956193704 623.414645465 1023.80779889 569.97050165 c 0,63,64
 1113.02584019 461.236013814 1113.02584019 461.236013814 1113.39247824 309.021935715 c 0,20,21
EndSplineSet
Substitution2: "'init' Initial Forms in Arabic lookup 13 subtable" uniFEE3
Substitution2: "'medi' Medial Forms in Arabic lookup 11 subtable" uniFEE4
Substitution2: "'fina' Terminal Forms in Arabic lookup 9 subtable" uniFEE2
EndChar

StartChar: uni0647
Encoding: 1607 1607 42
GlifName: uni0647
Width: 942
VWidth: 2952
GlyphClass: 2
Flags: W
AnchorPoint: "Anchor-10" 424.775 1211.01 basechar 0
AnchorPoint: "Anchor-7" 450.63 -240.576 basechar 0
LayerCount: 2
Fore
SplineSet
442.109813396 666.742336449 m 2,0,1
 343.221570295 580.197830601 343.221570295 580.197830601 292.586282617 502.127693304 c 128,-1,2
 241.950994939 424.057556007 241.950994939 424.057556007 241.88456059 350.968589377 c 0,3,4
 241.951025757 254.829113771 241.951025757 254.829113771 303.403974367 204.412773147 c 128,-1,5
 364.856922977 153.996432522 364.856922977 153.996432522 475.346848349 153.992187522 c 0,6,7
 586.976694727 153.996448894 586.976694727 153.996448894 648.874310475 204.724652606 c 128,-1,8
 710.771926224 255.452856317 710.771926224 255.452856317 710.423724335 352.255511525 c 0,9,10
 710.171891996 422.266731412 710.171891996 422.266731412 652.247603981 499.532221374 c 128,-1,11
 594.323315965 576.797711336 594.323315965 576.797711336 480.585797707 667.610832145 c 2,12,-1
 460.984737113 683.261195464 l 1,13,-1
 442.109813396 666.742336449 l 2,0,1
389.824069911 905.54444936 m 1,14,15
 820.982380002 583.054315295 820.982380002 583.054315295 820.791845814 346.344321863 c 0,16,17
 820.981673224 173.655638991 820.981673224 173.655638991 670.381143825 79.9531665047 c 0,18,19
 598.317001925 34.9471457131 598.317001925 34.9471457131 475.934413916 34.1941877804 c 0,20,21
 362.062980538 34.0113776281 362.062980538 34.0113776281 282.863429495 73.6342070241 c 0,22,23
 131.031817187 149.527567594 131.031817187 149.527567594 131.368388639 345.789675434 c 0,24,25
 131.197572294 441.882391754 131.197572294 441.882391754 185.238951001 543.726746113 c 128,-1,26
 239.280329709 645.571100472 239.280329709 645.571100472 349.817052216 753.012110812 c 2,27,-1
 373.087566421 775.630906635 l 1,28,-1
 348.713965519 797.05645995 l 1,29,-1
 324.613574364 818.241848918 l 1,30,-1
 389.824069911 905.54444936 l 1,14,15
EndSplineSet
Substitution2: "'fina' Terminal Forms in Arabic lookup 9 subtable" uniFEEA
Substitution2: "'medi' Medial Forms in Arabic lookup 11 subtable" uniFEEC
Substitution2: "'init' Initial Forms in Arabic lookup 13 subtable" uniFEEB
EndChar

StartChar: uni0648
Encoding: 1608 1608 43
GlifName: uni0648
Width: 890
VWidth: 2144
GlyphClass: 2
Flags: W
AnchorPoint: "Anchor-7" 382.969 -667.998 basechar 0
AnchorPoint: "Anchor-10" 443.256 1112.2 basechar 0
LayerCount: 2
Fore
SplineSet
650.566945719 203.544770897 m 2,0,1
 627.118076303 564.979624391 627.118076303 564.979624391 427.366679076 565.123998613 c 0,2,3
 368.6290033 565.048433779 368.6290033 565.048433779 326.590037065 528.150807501 c 0,4,5
 284.551070831 491.253181223 284.551070831 491.253181223 262.021781206 424.580647773 c 0,6,7
 241.983617167 365.935911289 241.983617167 365.935911289 242.159122647 312.530562909 c 0,8,9
 242.062773684 229.266143276 242.062773684 229.266143276 302.543966984 187.447766447 c 0,10,11
 363.025160285 145.629389618 363.025160285 145.629389618 469.21559245 146.364420896 c 0,12,13
 546.711397671 147.039928122 546.711397671 147.039928122 629.588316402 172.971324145 c 2,14,-1
 652.093619163 180.013018352 l 1,15,-1
 650.566945719 203.544770897 l 2,0,1
468.102263726 27.8115678971 m 0,16,17
 294.442910673 27.9011967332 294.442910673 27.9011967332 213.722778783 94.3603372159 c 0,18,19
 133.002646893 160.819477699 133.002646893 160.819477699 133.004882787 298.354729787 c 0,20,21
 133.002574365 355.392168819 133.002574365 355.392168819 145.165773494 409.345317212 c 0,22,23
 157.328972623 463.298465605 157.328972623 463.298465605 181.706818245 514.478992366 c 0,24,25
 267.880690026 694.007668899 267.880690026 694.007668899 439.094117524 694.077150586 c 0,26,27
 531.505428504 694.042184526 531.505428504 694.042184526 596.550505866 642.985659378 c 0,28,29
 661.595583228 591.929134231 661.595583228 591.929134231 702.996798104 484.150779285 c 0,30,31
 761.966829562 331.492927895 761.966829562 331.492927895 760.833662531 140.362261134 c 0,32,33
 759.027771685 -132.977377273 759.027771685 -132.977377273 602.373276471 -286.113035886 c 0,34,35
 445.718781256 -439.248694499 445.718781256 -439.248694499 126.057210771 -477.456572754 c 1,36,-1
 98.145716144 -365.810594245 l 1,37,38
 557.510113993 -308.223828166 557.510113993 -308.223828166 649.090951547 4.6775337301 c 2,39,-1
 661.951467698 48.6176540195 l 1,40,-1
 616.530593898 42.866891466 l 2,41,42
 593.207423232 39.9139316201 593.207423232 39.9139316201 572.589028581 37.4787516056 c 0,43,44
 551.97063393 35.0435715912 551.97063393 35.0435715912 535.435373029 33.2744037848 c 0,45,46
 518.900112128 31.5052359785 518.900112128 31.5052359785 505.603833621 30.2836794064 c 0,47,48
 492.307555114 29.0621228344 492.307555114 29.0621228344 482.98139506 28.4527903096 c 0,49,50
 473.655235007 27.8434577848 473.655235007 27.8434577848 468.102263726 27.8115678971 c 0,16,17
EndSplineSet
Substitution2: "'fina' Terminal Forms in Arabic lookup 9 subtable" uniFEEE
EndChar

StartChar: uni0649
Encoding: 1609 1609 44
GlifName: uni0649
Width: 1504
VWidth: 2952
GlyphClass: 2
Flags: MW
AnchorPoint: "Anchor-7" 671.902 -716.086 basechar 0
AnchorPoint: "Anchor-10" 727.6 956.22 basechar 0
LayerCount: 2
Fore
SplineSet
248.268540143 41.2248158718 m 0,0,1
 248.124553727 -153.523880558 248.124553727 -153.523880558 374.509265866 -253.149006956 c 0,2,3
 500.893978005 -352.774133355 500.893978005 -352.774133355 740.847929737 -353.607348983 c 0,4,5
 925.605821441 -354.014634969 925.605821441 -354.014634969 1071.62426785 -286.077760142 c 0,6,7
 1149.64157526 -249.887047494 1149.64157526 -249.887047494 1208.33797825 -189.575866326 c 0,8,9
 1272.03276299 -124.159021807 1272.03276299 -124.159021807 1271.80775229 -40.376230105 c 0,10,11
 1271.9498279 1.98898947214 1271.9498279 1.98898947214 1241.39077502 24.3603730384 c 0,12,13
 1210.83172213 46.7317566046 1210.83172213 46.7317566046 1163.74630103 47.0141090638 c 2,14,-1
 1050.54097121 47.6929476017 l 2,15,16
 972.334789853 48.1027070896 972.334789853 48.1027070896 923.564285716 67.1846654203 c 0,17,18
 874.79378158 86.2666237511 874.79378158 86.2666237511 852.822941081 122.927430866 c 0,19,20
 830.852100583 159.588237982 830.852100583 159.588237982 830.791974058 216.762916962 c 0,21,22
 830.987180053 394.322473652 830.987180053 394.322473652 943.109192998 516.722337783 c 0,23,24
 1086.14378853 672.676187114 1086.14378853 672.676187114 1348.32831433 675.508766419 c 1,25,-1
 1348.11778571 542.709596758 l 1,26,27
 1183.85686505 541.112184622 1183.85686505 541.112184622 1074.14892119 464.474843738 c 0,28,29
 954.224041674 380.805714036 954.224041674 380.805714036 952.436726652 256.43354847 c 0,30,31
 951.792877284 211.886132768 951.792877284 211.886132768 978.879055521 189.885903588 c 0,32,33
 1004.06979288 169.136365909 1004.06979288 169.136365909 1052.04970547 169.215861489 c 2,34,-1
 1171.13485856 169.413177975 l 2,35,36
 1280.54661039 169.684197828 1280.54661039 169.684197828 1329.37216845 128.66277286 c 0,37,38
 1378.19772652 87.6413478929 1378.19772652 87.6413478929 1378.35158452 0.17307012015 c 0,39,40
 1378.18601135 -136.470790309 1378.18601135 -136.470790309 1311.47519701 -234.067176667 c 0,41,42
 1244.76438267 -331.663563025 1244.76438267 -331.663563025 1107.52281477 -394.427735062 c 0,43,44
 944.451473389 -469.006376158 944.451473389 -469.006376158 735.996232811 -469.20898601 c 0,45,46
 428.591110065 -469.107494296 428.591110065 -469.107494296 280.733240232 -343.648068207 c 0,47,48
 132.875370398 -218.188642118 132.875370398 -218.188642118 132.761703713 37.9797289559 c 0,49,50
 132.982669699 258.675846767 132.982669699 258.675846767 248.227581907 528.399179384 c 1,51,-1
 351.368802184 485.886656799 l 1,52,53
 248.007091919 240.572906303 248.007091919 240.572906303 248.268540143 41.2248158718 c 0,0,1
EndSplineSet
Substitution2: "'fina' Terminal Forms in Arabic lookup 9 subtable" uniFEF0
Substitution2: "'medi' Medial Forms in Arabic lookup 11 subtable" uniFBE9
Substitution2: "'init' Initial Forms in Arabic lookup 13 subtable" uniFBE8
EndChar

StartChar: uni064B
Encoding: 1611 1611 46
GlifName: uni064B_
Width: -26
VWidth: 2316
GlyphClass: 4
Flags: W
AnchorPoint: "Anchor-10" 593.551 1113.65 mark 0
AnchorPoint: "Anchor-9" 593.551 1113.65 mark 0
AnchorPoint: "Anchor-1" 553.285 1596.25 basemark 0
AnchorPoint: "Anchor-1" 593.551 1113.65 mark 0
LayerCount: 2
Fore
SplineSet
341.700195312 1098.74338944 m 1,0,-1
 341.700195312 1169.90729042 l 1,1,-1
 767.099609375 1343.93527714 l 1,2,-1
 767.099609375 1272.77046393 l 1,3,-1
 341.700195312 1098.74338944 l 1,0,-1
341.700195312 1310.74338944 m 1,4,-1
 341.700195312 1381.90729042 l 1,5,-1
 767.099609375 1555.93527714 l 1,6,-1
 767.099609375 1484.77046393 l 1,7,-1
 341.700195312 1310.74338944 l 1,4,-1
EndSplineSet
EndChar

StartChar: uni064C
Encoding: 1612 1612 47
GlifName: uni064C_
Width: -26
VWidth: 2316
GlyphClass: 4
Flags: W
AnchorPoint: "Anchor-10" 680.906 1218.67 mark 0
AnchorPoint: "Anchor-9" 680.906 1218.67 mark 0
AnchorPoint: "Anchor-1" 571.739 1915.46 basemark 0
AnchorPoint: "Anchor-1" 680.906 1218.67 mark 0
LayerCount: 2
Fore
SplineSet
576.251005355 1726.89125325 m 0,0,1
 553.052616685 1699.57136431 553.052616685 1699.57136431 552.713513768 1664.12758669 c 0,2,3
 553.042001397 1597.43562898 553.042001397 1597.43562898 627.768446666 1566.01811352 c 0,4,5
 640.103537373 1560.83202576 640.103537373 1560.83202576 658.872977534 1554.50582643 c 128,-1,6
 677.642417694 1548.1796271 677.642417694 1548.1796271 703.486426876 1540.46042046 c 2,7,-1
 714.736924058 1537.1000706 l 1,8,-1
 720.700518265 1547.21447529 l 2,9,10
 749.999832808 1596.90684435 749.999832808 1596.90684435 750.001953122 1648.8206109 c 0,11,12
 750.000888661 1702.32893305 750.000888661 1702.32893305 725.435625817 1732.01543949 c 128,-1,13
 700.870362973 1761.70194593 700.870362973 1761.70194593 654.195570798 1761.29358315 c 0,14,15
 604.98942482 1760.95164503 604.98942482 1760.95164503 576.251005355 1726.89125325 c 0,0,1
304.209399481 1499.47949219 m 1,16,17
 313.143948394 1272.90223336 313.143948394 1272.90223336 452.68919645 1274.27616166 c 0,18,19
 530.136795135 1275.06145394 530.136795135 1275.06145394 610.992498878 1353.37516161 c 0,20,21
 657.27459091 1399.03861502 657.27459091 1399.03861502 698.008346723 1479.4019588 c 2,22,-1
 706.830015727 1496.80616827 l 1,23,-1
 687.742831559 1500.85681661 l 1,24,-1
 658.196982724 1507.12691826 l 2,25,26
 563.564223392 1527.49992199 563.564223392 1527.49992199 530.259266768 1571.1111921 c 0,27,28
 501 1610.0115111 501 1610.0115111 501 1655.09960938 c 0,29,30
 501 1702.41785382 501 1702.41785382 516.427871093 1732.87728534 c 0,31,32
 529.845170751 1758.92954439 529.845170751 1758.92954439 548.750729321 1776.00866993 c 128,-1,33
 567.656287891 1793.08779547 567.656287891 1793.08779547 592.916289256 1801.68672457 c 128,-1,34
 618.176290621 1810.28565367 618.176290621 1810.28565367 650.297168018 1810.4145616 c 0,35,36
 715.989822302 1810.95047089 715.989822302 1810.95047089 754.758467751 1773.50280647 c 0,37,38
 798.028310699 1731.6161914 798.028310699 1731.6161914 798.391129555 1650.23229381 c 0,39,40
 798.501686317 1642.90649092 798.501686317 1642.90649092 797.759102866 1634.37034717 c 128,-1,41
 797.016519415 1625.83420341 797.016519415 1625.83420341 795.380507457 1615.93758649 c 128,-1,42
 793.744495499 1606.04096956 793.744495499 1606.04096956 791.239999129 1595.01933271 c 128,-1,43
 788.735502758 1583.99769587 788.735502758 1583.99769587 785.272428109 1571.58924032 c 128,-1,44
 781.80935346 1559.18078477 781.80935346 1559.18078477 777.462450198 1545.73263026 c 2,45,-1
 771.460112218 1527.16300409 l 1,46,-1
 790.948880136 1526.13977272 l 1,47,-1
 821.076854795 1524.55794471 l 2,48,49
 842.878179669 1523.40766027 842.878179669 1523.40766027 865.497070312 1522.82782853 c 1,50,-1
 865.497070312 1474.41330741 l 1,51,52
 839.094134333 1475.1910653 839.094134333 1475.1910653 831.3263111 1475.93797138 c 2,53,-1
 755.1544361 1483.26219013 l 1,54,-1
 744.072360792 1484.32777429 l 1,55,-1
 739.843167838 1474.02914381 l 2,56,57
 725.016687129 1437.92475044 725.016687129 1437.92475044 705.699191577 1405.76737165 c 128,-1,58
 686.381696025 1373.60999286 686.381696025 1373.60999286 662.530503126 1345.3147602 c 128,-1,59
 638.679310226 1317.01952754 638.679310226 1317.01952754 610.197704654 1292.45417436 c 0,60,61
 571.832463366 1258.83684232 571.832463366 1258.83684232 532.884613577 1242.40869561 c 128,-1,62
 493.936763787 1225.98054889 493.936763787 1225.98054889 453.601823231 1225.96366509 c 0,63,64
 412.451760003 1225.75005424 412.451760003 1225.75005424 381.218131435 1241.70951861 c 128,-1,65
 349.984502867 1257.66898298 349.984502867 1257.66898298 327.746933348 1290.91996792 c 128,-1,66
 305.509363829 1324.17095285 305.509363829 1324.17095285 293.191426067 1376.26865885 c 128,-1,67
 280.873488305 1428.36636485 280.873488305 1428.36636485 278.509002569 1499.47949219 c 1,68,-1
 304.209399481 1499.47949219 l 1,16,17
EndSplineSet
EndChar

StartChar: uni064D
Encoding: 1613 1613 48
GlifName: uni064D_
Width: -26
VWidth: 2316
GlyphClass: 4
Flags: W
AnchorPoint: "Anchor-7" 546.278 61.7109 mark 0
AnchorPoint: "Anchor-6" 546.278 61.7109 mark 0
AnchorPoint: "Anchor-0" 592.022 -407.025 basemark 0
AnchorPoint: "Anchor-0" 546.278 61.7109 mark 0
LayerCount: 2
Fore
SplineSet
347.099609375 -423.65701932 m 1,0,-1
 347.099609375 -352.493108376 l 1,1,-1
 772.5 -178.465095337 l 1,2,-1
 772.5 -249.629918511 l 1,3,-1
 347.099609375 -423.65701932 l 1,0,-1
347.099609375 -211.65701932 m 1,4,-1
 347.099609375 -140.493108376 l 1,5,-1
 772.5 33.5349046624 l 1,6,-1
 772.5 -37.6299185118 l 1,7,-1
 347.099609375 -211.65701932 l 1,4,-1
EndSplineSet
EndChar

StartChar: uni064E
Encoding: 1614 1614 49
GlifName: uni064E_
Width: -26
VWidth: 2316
GlyphClass: 4
Flags: W
AnchorPoint: "Anchor-10" 581.66 1364.63 mark 0
AnchorPoint: "Anchor-9" 581.66 1364.63 mark 0
AnchorPoint: "Anchor-1" 541.396 1651.77 basemark 0
AnchorPoint: "Anchor-1" 581.66 1364.63 mark 0
LayerCount: 2
Fore
SplineSet
311.099609375 1371.4426344 m 1,0,-1
 311.099609375 1442.60747757 l 1,1,-1
 736.5 1616.6354906 l 1,2,-1
 736.5 1545.47064743 l 1,3,-1
 311.099609375 1371.4426344 l 1,0,-1
EndSplineSet
EndChar

StartChar: uni064F
Encoding: 1615 1615 50
GlifName: uni064F_
Width: -26
VWidth: 2316
GlyphClass: 4
Flags: W
AnchorPoint: "Anchor-10" 591.295 1299.37 mark 0
AnchorPoint: "Anchor-9" 591.295 1299.37 mark 0
AnchorPoint: "Anchor-1" 570.134 1910.4 basemark 0
AnchorPoint: "Anchor-1" 591.295 1299.37 mark 0
LayerCount: 2
Fore
SplineSet
797.65234375 1479.08363529 m 1,0,1
 772.526892241 1479.3736197 772.526892241 1479.3736197 752.404573758 1480.56105531 c 128,-1,2
 732.282255276 1481.74849093 732.282255276 1481.74849093 715.934654387 1483.87471386 c 2,3,-1
 684.617271575 1487.94795605 l 1,4,-1
 675.644916275 1489.1149302 l 1,5,-1
 670.427575883 1481.72274869 l 2,6,7
 553.288046222 1315.75376823 553.288046222 1315.75376823 333.57421875 1298.66242142 c 1,8,-1
 333.57421875 1346.74449115 l 1,9,10
 516.633485464 1359.47187457 516.633485464 1359.47187457 608.151796479 1488.83803298 c 2,11,-1
 621.510095467 1507.72072218 l 1,12,-1
 598.820873118 1512.21508449 l 2,13,14
 558.178904004 1520.26559107 558.178904004 1520.26559107 513.804524164 1544.5608508 c 0,15,16
 435.025687237 1588.76853723 435.025687237 1588.76853723 435.249744962 1665.44354134 c 0,17,18
 435.937584771 1724.54940118 435.937584771 1724.54940118 467.743178644 1763.2314271 c 0,19,20
 509.041500846 1812.99652616 509.041500846 1812.99652616 582.980544067 1812.95996417 c 0,21,22
 638.716082427 1812.99653019 638.716082427 1812.99653019 679.303328024 1780.31681191 c 0,23,24
 708.422707768 1756.8691236 708.422707768 1756.8691236 721.679461763 1721.97012364 c 0,25,26
 724.73897851 1713.56205796 724.73897851 1713.56205796 726.749518993 1704.55062909 c 128,-1,27
 728.760059475 1695.53920023 728.760059475 1695.53920023 729.723556812 1685.73781043 c 128,-1,28
 730.687054148 1675.93642063 730.687054148 1675.93642063 730.546553715 1665.5405972 c 0,29,30
 730.28773169 1637.85173366 730.28773169 1637.85173366 724.16213037 1609.49416943 c 128,-1,31
 718.036529049 1581.1366052 718.036529049 1581.1366052 705.95169115 1551.99376821 c 2,32,-1
 698.124476993 1533.1182791 l 1,33,-1
 718.478074946 1531.30708582 l 1,34,-1
 738.293922082 1529.54374682 l 2,35,36
 769.202794746 1526.80840088 769.202794746 1526.80840088 797.65234375 1526.94823629 c 1,37,-1
 797.65234375 1479.08363529 l 1,0,1
653.695468043 1553.81279358 m 1,38,-1
 659.852428704 1568.01168133 l 2,39,40
 681.988157407 1618.84876839 681.988157407 1618.84876839 682.15831212 1663.71709561 c 0,41,42
 682.068685974 1687.10509376 682.068685974 1687.10509376 674.488414388 1705.78027434 c 128,-1,43
 666.908142802 1724.45545493 666.908142802 1724.45545493 651.733496207 1736.87010152 c 0,44,45
 622.672661438 1761.91271506 622.672661438 1761.91271506 587.117730441 1762.47064331 c 0,46,47
 570.167227502 1762.66990933 570.167227502 1762.66990933 555.280894258 1758.59360279 c 128,-1,48
 540.394561014 1754.51729625 540.394561014 1754.51729625 527.756197207 1746.04946577 c 128,-1,49
 515.1178334 1737.58163529 515.1178334 1737.58163529 505.456976347 1724.97534822 c 0,50,51
 498.666497078 1716.03850127 498.666497078 1716.03850127 494.087516079 1705.93261896 c 128,-1,52
 489.508535079 1695.82673664 489.508535079 1695.82673664 487.213465565 1684.84358643 c 128,-1,53
 484.918396051 1673.86043621 484.918396051 1673.86043621 484.868074567 1662.03824221 c 0,54,55
 485.026929609 1605.3728839 485.026929609 1605.3728839 559.426445871 1571.18266113 c 0,56,57
 583.793225622 1559.88003521 583.793225622 1559.88003521 635.900109142 1545.33274763 c 2,58,-1
 648.49373322 1541.81683844 l 1,59,-1
 653.695468043 1553.81279358 l 1,38,-1
EndSplineSet
EndChar

StartChar: uni0650
Encoding: 1616 1616 51
GlifName: uni0650
Width: -26
VWidth: 2316
GlyphClass: 4
Flags: W
AnchorPoint: "Anchor-7" 571.144 -44.8242 mark 0
AnchorPoint: "Anchor-6" 571.144 -44.8242 mark 0
AnchorPoint: "Anchor-0" 619.091 -324.624 basemark 0
AnchorPoint: "Anchor-0" 571.144 -44.8242 mark 0
LayerCount: 2
Fore
SplineSet
357.900390625 -323.256610554 m 1,0,-1
 357.900390625 -252.092709575 l 1,1,-1
 783.299804688 -78.064722854 l 1,2,-1
 783.299804688 -149.229536064 l 1,3,-1
 357.900390625 -323.256610554 l 1,0,-1
EndSplineSet
EndChar

StartChar: uni0651
Encoding: 1617 1617 52
GlifName: uni0651
Width: -26
VWidth: 2393
GlyphClass: 4
Flags: W
AnchorPoint: "Anchor-10" 598.801 1463.71 mark 0
AnchorPoint: "Anchor-9" 598.801 1463.71 mark 0
AnchorPoint: "Anchor-1" 570.087 1849.1 basemark 0
AnchorPoint: "Anchor-1" 598.801 1463.71 mark 0
LayerCount: 2
Fore
SplineSet
594.012129616 1753.46289062 m 1,0,1
 595.280395122 1719.20898379 595.280395122 1719.20898379 595.622693071 1685.85983544 c 0,2,3
 595.510538368 1661.45776951 595.510538368 1661.45776951 600.460564778 1641.94251862 c 128,-1,4
 605.410591189 1622.42726774 605.410591189 1622.42726774 615.295524285 1608.32798666 c 128,-1,5
 625.180457382 1594.22870559 625.180457382 1594.22870559 640.795714847 1586.68663671 c 128,-1,6
 656.410972313 1579.14456784 656.410972313 1579.14456784 676.806327825 1579.25240845 c 0,7,8
 705.171889645 1579.4734296 705.171889645 1579.4734296 724.563990151 1594.00057041 c 128,-1,9
 743.956090656 1608.52771122 743.956090656 1608.52771122 753.180499106 1634.051721 c 128,-1,10
 762.404907556 1659.57573077 762.404907556 1659.57573077 762.626569489 1695.06166562 c 0,11,12
 762.756196389 1713.18582098 762.756196389 1713.18582098 759.242495799 1739.95013233 c 128,-1,13
 755.728795209 1766.71444369 755.728795209 1766.71444369 748.954301795 1800.55124384 c 1,14,-1
 808.235143737 1809.94060882 l 1,15,16
 821.931741948 1756.31495298 821.931741948 1756.31495298 821.527205212 1705.08171258 c 0,17,18
 821.679846139 1639.83433886 821.679846139 1639.83433886 806.831355631 1598.00056982 c 128,-1,19
 791.982865122 1556.16680078 791.982865122 1556.16680078 763.179755796 1536.61679674 c 128,-1,20
 734.376646471 1517.06679271 734.376646471 1517.06679271 690.288282197 1516.66561828 c 0,21,22
 633.644819074 1516.25332323 633.644819074 1516.25332323 595.669364371 1564.53941652 c 2,23,-1
 576.96127383 1588.32690273 l 1,24,-1
 569.359807513 1559.03432924 l 2,25,26
 563.724621809 1537.31890165 563.724621809 1537.31890165 555.060864162 1520.28529072 c 128,-1,27
 546.397106515 1503.25167978 546.397106515 1503.25167978 534.50824836 1490.55334387 c 128,-1,28
 522.619390206 1477.85500796 522.619390206 1477.85500796 507.312528049 1469.53647113 c 128,-1,29
 492.005665893 1461.2179343 492.005665893 1461.2179343 473.279542757 1457.08256528 c 128,-1,30
 454.55341962 1452.94719626 454.55341962 1452.94719626 432.019860423 1452.88960874 c 0,31,32
 391.298892397 1452.98329127 391.298892397 1452.98329127 364.687167236 1468.93373388 c 128,-1,33
 338.075442074 1484.88417649 338.075442074 1484.88417649 324.117754628 1519.00475802 c 128,-1,34
 310.160067182 1553.12533954 310.160067182 1553.12533954 309.301003955 1606.7278368 c 0,35,36
 308.549166732 1656.22053263 308.549166732 1656.22053263 318.25308277 1698.67736703 c 1,37,-1
 367.623468669 1690.46908018 l 1,38,39
 360.335482617 1651.26461917 360.335482617 1651.26461917 360.577567656 1619.52164463 c 0,40,41
 360.804144542 1589.21645342 360.804144542 1589.21645342 370.092577508 1567.31094001 c 128,-1,42
 379.381010474 1545.4054266 379.381010474 1545.4054266 398.091465003 1533.23287348 c 128,-1,43
 416.801919531 1521.06032037 416.801919531 1521.06032037 443.566318496 1520.90262518 c 0,44,45
 491.443789564 1520.60933943 491.443789564 1520.60933943 517.029660446 1554.23078432 c 128,-1,46
 542.615531328 1587.8522292 542.615531328 1587.8522292 544.939190555 1648.64134524 c 0,47,48
 545.803817155 1671.20086903 545.803817155 1671.20086903 546.128661889 1697.68516011 c 128,-1,49
 546.453506623 1724.16945119 546.453506623 1724.16945119 546.241191555 1753.46289062 c 1,50,-1
 594.012129616 1753.46289062 l 1,0,1
EndSplineSet
EndChar

StartChar: uni0652
Encoding: 1618 1618 53
GlifName: uni0652
Width: -26
VWidth: 2316
GlyphClass: 4
Flags: W
AnchorPoint: "Anchor-10" 603.219 1222.43 mark 0
AnchorPoint: "Anchor-9" 603.219 1222.43 mark 0
AnchorPoint: "Anchor-1" 577.537 1799.66 basemark 0
AnchorPoint: "Anchor-1" 603.219 1222.43 mark 0
LayerCount: 2
Fore
SplineSet
413.139648438 1461.671875 m 128,-1,1
 413.139648438 1537.35913786 413.139648438 1537.35913786 465.445377565 1589.66576788 c 0,2,3
 491.79470327 1616.01463977 491.79470327 1616.01463977 523.521895199 1628.99315973 c 128,-1,4
 555.249087128 1641.97167969 555.249087128 1641.97167969 593.439453125 1641.97167969 c 128,-1,5
 631.630731374 1641.97167969 631.630731374 1641.97167969 663.358180636 1628.99195801 c 128,-1,6
 695.085629898 1616.01223633 695.085629898 1616.01223633 721.432460781 1589.66585922 c 0,7,8
 773.739257812 1537.35906219 773.739257812 1537.35906219 773.739257812 1461.671875 c 0,9,10
 773.739257812 1423.48059803 773.739257812 1423.48059803 760.759331371 1391.75320476 c 128,-1,11
 747.77940493 1360.02581149 747.77940493 1360.02581149 721.432460782 1333.67886734 c 0,12,13
 708.249360985 1320.49576754 708.249360985 1320.49576754 693.789759912 1310.69357556 c 128,-1,14
 679.330158839 1300.89138358 679.330158839 1300.89138358 663.384358081 1294.36505211 c 128,-1,15
 647.438557323 1287.83872063 647.438557323 1287.83872063 630.000425919 1284.60539547 c 128,-1,16
 612.562294515 1281.37207031 612.562294515 1281.37207031 593.439453125 1281.37207031 c 0,17,18
 517.752265935 1281.37207031 517.752265935 1281.37207031 465.445560247 1333.678776 c 128,-1,0
 413.139648438 1385.98558871 413.139648438 1385.98558871 413.139648438 1461.671875 c 128,-1,1
469.538669287 1460.77229323 m 0,19,20
 469.154806335 1407.67641399 469.154806335 1407.67641399 506.332279797 1370.96580754 c 0,21,22
 542.740031882 1334.09006669 542.740031882 1334.09006669 596.116316886 1334.17189315 c 0,23,24
 622.138489918 1334.13141725 622.138489918 1334.13141725 644.83773528 1343.41915996 c 128,-1,25
 667.536980642 1352.70690267 667.536980642 1352.70690267 685.945835543 1370.965851 c 0,26,27
 694.988361029 1380.08356791 694.988361029 1380.08356791 701.846258013 1390.34493566 c 128,-1,28
 708.704154996 1400.60630342 708.704154996 1400.60630342 713.307535102 1411.86900738 c 128,-1,29
 717.910915207 1423.13171134 717.910915207 1423.13171134 720.277816509 1435.38659446 c 128,-1,30
 722.644717812 1447.64147757 722.644717812 1447.64147757 722.739651025 1460.77262865 c 0,31,32
 722.549293811 1487.02162668 722.549293811 1487.02162668 713.299535791 1509.63221292 c 128,-1,33
 704.049777771 1532.24279916 704.049777771 1532.24279916 685.945878999 1550.57829726 c 0,34,35
 667.497970783 1568.79454047 667.497970783 1568.79454047 644.844910365 1578.06301739 c 128,-1,36
 622.191849947 1587.33149431 622.191849947 1587.33149431 596.116653294 1587.37205268 c 0,37,38
 569.83357666 1587.33176043 569.83357666 1587.33176043 547.076136551 1578.02309056 c 128,-1,39
 524.318696442 1568.71442069 524.318696442 1568.71442069 506.332483085 1550.57809395 c 0,40,41
 469.154807627 1513.70427182 469.154807627 1513.70427182 469.538669287 1460.77229323 c 0,19,20
EndSplineSet
EndChar

StartChar: uni0653
Encoding: 1619 1619 54
GlifName: uni0653
Width: -30
VWidth: 2673
GlyphClass: 4
Flags: W
AnchorPoint: "Anchor-10" 461.017 1539.11 mark 0
AnchorPoint: "Anchor-9" 461.017 1539.11 mark 0
AnchorPoint: "Anchor-1" 461.017 1975.25 basemark 0
AnchorPoint: "Anchor-1" 461.017 1539.11 mark 0
LayerCount: 2
Fore
SplineSet
402.393703146 1651.66462314 m 2,0,1
 290.107722581 1667.11776731 290.107722581 1667.11776731 196.601208338 1564.89212275 c 1,2,-1
 123.09765625 1640.65722656 l 5,3,4
 234.244104141 1792.33311647 234.244104141 1792.33311647 389.372070312 1767.34863281 c 6,5,-1
 538.047851562 1743.40332031 l 6,6,7
 635 1728 635 1728 753.043945312 1783.61230469 c 5,8,-1
 798.228845219 1683.0705373 l 1,9,10
 677.627632754 1613.78607791 677.627632754 1613.78607791 542.914210959 1632.32575595 c 2,11,-1
 402.393703146 1651.66462314 l 2,0,1
EndSplineSet
EndChar

StartChar: uni0657
Encoding: 1623 1623 57
GlifName: uni0657
Width: -26
VWidth: 2316
GlyphClass: 4
Flags: W
AnchorPoint: "Anchor-10" 513.285 1370.55 mark 0
AnchorPoint: "Anchor-9" 513.285 1370.55 mark 0
AnchorPoint: "Anchor-1" 573.285 2089.85 basemark 0
AnchorPoint: "Anchor-1" 513.285 1370.55 mark 0
LayerCount: 2
Fore
SplineSet
279.529296875 1789.14623345 m 1,0,1
 305.974197359 1788.09940632 305.974197359 1788.09940632 334.198691751 1785.99322113 c 128,-1,2
 362.423186143 1783.88703595 362.423186143 1783.88703595 392.962405428 1780.68342025 c 2,3,-1
 401.733310624 1779.76333748 l 1,4,-1
 406.802154275 1786.98013416 l 1,5,-1
 408.022041721 1788.71695794 l 2,6,7
 478.375928391 1888.96012979 478.375928391 1888.96012979 568.656820811 1945.52634776 c 128,-1,8
 658.937713232 2002.09256573 658.937713232 2002.09256573 769.673828125 2015.98223794 c 1,9,-1
 769.673828125 1967.23186779 l 1,10,11
 587.62711951 1933.52159641 587.62711951 1933.52159641 474.420882952 1787.37715713 c 2,12,-1
 460.970256221 1770.01296977 l 1,13,-1
 482.038594179 1763.80334034 l 2,14,15
 541.254362237 1746.35023241 541.254362237 1746.35023241 582.165247124 1716.43603027 c 0,16,17
 642.997789594 1670.52941975 642.997789594 1670.52941975 642.976563344 1598.86606216 c 0,18,19
 642.997958691 1535.08296672 642.997958691 1535.08296672 602.45282552 1493.33603739 c 0,20,21
 563.620607167 1453.00126983 563.620607167 1453.00126983 501.355640468 1453.01367163 c 0,22,23
 433.117070631 1453.00112497 433.117070631 1453.00112497 384.257513297 1500.81330813 c 0,24,25
 346.968358956 1538.22996169 346.968358956 1538.22996169 346.636061505 1603.25513859 c 0,26,27
 346.98109254 1644.66811292 346.98109254 1644.66811292 369.700871013 1717.98482097 c 2,28,-1
 375.199167893 1735.72782086 l 1,29,-1
 356.696179319 1737.36633475 l 2,30,31
 322.07690376 1740.43201052 322.07690376 1740.43201052 279.529296875 1741.19287157 c 1,32,-1
 279.529296875 1789.14623345 l 1,0,1
501.576955845 1501.40416564 m 0,33,34
 549.695970873 1502.11150927 549.695970873 1502.11150927 573.960192455 1535.29761851 c 0,35,36
 591.952057125 1561.23814505 591.952057125 1561.23814505 592.313881812 1596.59664545 c 0,37,38
 592.238933706 1610.79032238 592.238933706 1610.79032238 588.359794466 1623.75654237 c 128,-1,39
 584.480655225 1636.72276235 584.480655225 1636.72276235 577.179636696 1647.96899646 c 128,-1,40
 569.878618166 1659.21523058 569.878618166 1659.21523058 559.172453172 1669.18012058 c 128,-1,41
 548.466288177 1679.14501058 548.466288177 1679.14501058 534.913192764 1687.48605605 c 128,-1,42
 521.360097352 1695.82710152 521.360097352 1695.82710152 504.800900144 1702.83291573 c 0,43,44
 472.576816041 1716.34624132 472.576816041 1716.34624132 440.530633866 1723.5311645 c 2,45,-1
 428.348763643 1726.2624041 l 1,46,-1
 423.451365615 1714.77880169 l 2,47,48
 394.998227318 1648.0608168 394.998227318 1648.0608168 395.023446873 1604.98161288 c 0,49,50
 394.996499015 1580.87675346 394.996499015 1580.87675346 403.037496785 1562.45635759 c 0,51,52
 415.215512772 1534.49176574 415.215512772 1534.49176574 444.46778388 1517.54487383 c 0,53,54
 473.076027591 1500.93309482 473.076027591 1500.93309482 501.576955845 1501.40416564 c 0,33,34
EndSplineSet
EndChar

StartChar: uni065A
Encoding: 1626 1626 58
GlifName: uni065A_
Width: 1135
VWidth: 2316
GlyphClass: 4
Flags: W
AnchorPoint: "Anchor-10" 573.285 1350.55 mark 0
AnchorPoint: "Anchor-9" 573.285 1350.55 mark 0
AnchorPoint: "Anchor-1" 571.012 1862.38 basemark 0
AnchorPoint: "Anchor-1" 573.285 1350.55 mark 0
LayerCount: 2
Fore
SplineSet
510.873450561 1459.42578125 m 1,0,-1
 334.975512316 1753.49023438 l 1,1,-1
 404.894959599 1753.49023438 l 1,2,-1
 560.804284909 1519.61912557 l 1,3,-1
 573.285118248 1500.89730552 l 1,4,-1
 585.766004206 1519.61909049 l 1,5,-1
 741.676302345 1753.49023438 l 1,6,-1
 811.59654809 1753.49023438 l 1,7,-1
 635.695951372 1459.42578125 l 1,8,-1
 510.873450561 1459.42578125 l 1,0,-1
EndSplineSet
EndChar

StartChar: afii57392
Encoding: 1632 1632 59
GlifName: afii57392
Width: 1077
VWidth: 2952
GlyphClass: 2
Flags: W
LayerCount: 2
Fore
SplineSet
369.290039062 553.262695312 m 0,0,1
 369.290039062 481.259490433 369.290039062 481.259490433 419.186682516 431.366402812 c 0,2,3
 431.467631141 419.084869825 431.467631141 419.084869825 445.545423143 409.639639351 c 0,4,5
 459.623215144 400.194408877 459.623215144 400.194408877 475.20591412 393.852156444 c 0,6,7
 490.845622036 387.486458118 490.845622036 387.486458118 507.593203915 384.302689999 c 0,8,9
 524.340785795 381.118921881 524.340785795 381.118921881 542.595108324 380.965720763 c 0,10,11
 615.216035101 381.586503229 615.216035101 381.586503229 664.995429998 431.365898126 c 0,12,13
 689.787447853 456.157915981 689.787447853 456.157915981 702.370255683 486.983647116 c 0,14,15
 714.890625 517.65932385 714.890625 517.65932385 714.890625 553.262695312 c 0,16,17
 714.890625 588.866832348 714.890625 588.866832348 702.370255684 619.543696633 c 0,18,19
 696.078777411 634.958206285 696.078777411 634.958206285 686.66709102 648.930326919 c 0,20,21
 677.255404628 662.902447553 677.255404628 662.902447553 664.995177965 675.162674215 c 0,22,23
 615.214086113 724.942583198 615.214086113 724.942583198 541.58604674 725.56162269 c 0,24,25
 505.545241624 725.254173371 505.545241624 725.254173371 474.850765928 712.633992509 c 0,26,27
 443.958386185 699.932442451 443.958386185 699.932442451 419.18743915 675.162674143 c 0,28,29
 369.290039062 625.266459352 369.290039062 625.266459352 369.290039062 553.262695312 c 0,0,1
334.842864032 756.250441537 m 0,30,31
 356.165193645 777.57187773 356.165193645 777.57187773 379.414221989 793.438584736 c 0,32,33
 402.449383048 809.159613643 402.449383048 809.159613643 427.469791508 819.596628127 c 0,34,35
 444.157121059 826.557752169 444.157121059 826.557752169 461.732560344 831.194428491 c 0,36,37
 479.307999629 835.831104812 479.307999629 835.831104812 498.066260013 838.175318031 c 0,38,39
 516.824520398 840.51953125 516.824520398 840.51953125 536.678710938 840.51953125 c 0,40,41
 576.169123785 840.51953125 576.169123785 840.51953125 611.61790797 831.182724495 c 0,42,43
 646.813602598 821.912809558 646.813602598 821.912809558 678.344558262 803.342124019 c 0,44,45
 710.159288227 784.605711152 710.159288227 784.605711152 738.514335626 756.250663752 c 0,46,47
 780.898747226 713.866252153 780.898747226 713.866252153 801.856608574 663.628326341 c 0,48,49
 822.784179688 613.463009014 822.784179688 613.463009014 822.784179688 554.4140625 c 0,50,51
 822.784179688 495.035858596 822.784179688 495.035858596 801.956600095 445.114002359 c 0,52,53
 781.129020502 395.192146123 781.129020502 395.192146123 738.514335626 352.577461248 c 0,54,55
 717.205259069 331.26838469 717.205259069 331.26838469 693.973374751 315.449439852 c 0,56,57
 670.958220601 299.777789374 670.958220601 299.777789374 645.961378548 289.419638026 c 0,58,59
 642.839594251 288.125970963 642.839594251 288.125970963 639.687490429 286.91488727 c 0,60,61
 636.535386606 285.703803577 636.535386606 285.703803577 633.348158604 284.573567108 c 0,62,63
 630.160930602 283.443330639 630.160930602 283.443330639 626.941156366 282.395258784 c 0,64,65
 623.721382131 281.34718693 623.721382131 281.34718693 620.466005642 280.380142346 c 0,66,67
 617.210629154 279.413097763 617.210629154 279.413097763 613.920363149 278.527759119 c 0,68,69
 610.630097144 277.642420475 610.630097144 277.642420475 607.303750812 276.838289149 c 0,70,71
 603.97740448 276.034157824 603.97740448 276.034157824 600.613825349 275.311273762 c 0,72,73
 597.250246219 274.588389701 597.250246219 274.588389701 593.849992111 273.946853084 c 0,74,75
 566.498615349 268.787268128 566.498615349 268.787268128 536.624811166 268.924143882 c 0,76,77
 516.636997081 268.832312116 516.636997081 268.832312116 497.880446427 271.095178323 c 0,78,79
 479.123895773 273.358044529 479.123895773 273.358044529 461.612854971 277.924374286 c 0,80,81
 444.101814169 282.490704043 444.101814169 282.490704043 427.382589497 289.420691318 c 0,82,83
 410.737398541 296.31998458 410.737398541 296.31998458 394.983614059 305.567362221 c 0,84,85
 379.155050782 314.858634569 379.155050782 314.858634569 364.174355022 326.555284521 c 0,86,87
 356.642086579 332.436340298 356.642086579 332.436340298 349.309753257 338.939733928 c 0,88,89
 341.977419935 345.443127559 341.977419935 345.443127559 334.843308642 352.577238851 c 0,90,91
 320.58858812 366.832258265 320.58858812 366.832258265 308.802697152 381.905626792 c 0,92,93
 297.016806185 396.978995318 297.016806185 396.978995318 287.742745157 412.740754903 c 0,94,95
 278.46868413 428.502514488 278.46868413 428.502514488 271.503915448 445.198408687 c 0,96,97
 250.577148438 495.363906475 250.577148438 495.363906475 250.577148438 554.415039062 c 0,98,99
 250.577148438 613.469391552 250.577148438 613.469391552 271.499133152 663.626051024 c 0,100,101
 292.455028867 713.86260637 292.455028867 713.86260637 334.842864032 756.250441537 c 0,30,31
EndSplineSet
EndChar

StartChar: afii57393
Encoding: 1633 1633 60
GlifName: afii57393
Width: 756
VWidth: 2952
GlyphClass: 2
Flags: W
LayerCount: 2
Fore
SplineSet
293.611814964 1358.5260701 m 1,0,1
 388.760656985 1141.1609079 388.760656985 1141.1609079 436.43794568 878.853089244 c 0,2,3
 484.115234375 616.54527059 484.115234375 616.54527059 484.115234375 308.771484375 c 2,4,-1
 484.115234375 41.5537109375 l 1,5,-1
 364.796387315 41.5537109375 l 1,6,-1
 364.791990609 311.908234841 l 2,7,8
 364.994136516 934.923819111 364.994136516 934.923819111 186.354159814 1320.71920495 c 1,9,-1
 293.611814964 1358.5260701 l 1,0,1
EndSplineSet
EndChar

StartChar: afii57394
Encoding: 1634 1634 61
GlifName: afii57394
Width: 1217
VWidth: 2952
GlyphClass: 2
Flags: W
LayerCount: 2
Fore
SplineSet
382.996712492 1104.18343242 m 2,0,1
 416.503801691 1009.16597368 416.503801691 1009.16597368 493.713804812 960.529530068 c 128,-1,2
 570.923807933 911.89308646 570.923807933 911.89308646 685.086256191 911.769579903 c 0,3,4
 755.76100164 911.896864452 755.76100164 911.896864452 807.804708075 939.714850297 c 128,-1,5
 859.848414511 967.532836143 859.848414511 967.532836143 887.960472935 1022.24278955 c 0,6,7
 942.388118261 1127.71651544 942.388118261 1127.71651544 945.739715239 1354.45202932 c 1,8,-1
 1065.26262419 1354.08383495 l 1,9,10
 1064.13990302 1296.73247848 1064.13990302 1296.73247848 1060.82708479 1245.73291465 c 0,11,12
 1042.75940616 999.450492708 1042.75940616 999.450492708 959.313121883 894.824498976 c 0,13,14
 870.621439479 784.041871837 870.621439479 784.041871837 689.338911251 784.568206583 c 4,15,16
 543 785 543 785 442.350040994 861.073385644 c 5,17,-1
 450.685066727 797.602699575 l 1,18,-1
 451.520223774 791.24305565 l 2,19,20
 484.115234375 542.164818821 484.115234375 542.164818821 484.115234375 308.771484375 c 2,21,-1
 484.115234375 41.5537109375 l 1,22,-1
 364.796387315 41.5537109375 l 1,23,-1
 364.791990609 311.908234841 l 2,24,25
 364.994136516 934.923819111 364.994136516 934.923819111 186.35393556 1320.71968925 c 1,26,-1
 291.395826967 1357.74740619 l 1,27,-1
 382.996712492 1104.18343242 l 2,0,1
EndSplineSet
EndChar

StartChar: afii57395
Encoding: 1635 1635 62
GlifName: afii57395
Width: 1492
VWidth: 2952
GlyphClass: 2
Flags: W
LayerCount: 2
Fore
SplineSet
451.346100509 792.504919151 m 2,0,1
 484.115234375 545.304753964 484.115234375 545.304753964 484.115234375 308.771484375 c 2,2,-1
 484.115234375 41.5537109375 l 1,3,-1
 364.796387313 41.5537109375 l 1,4,-1
 364.791990609 311.907258294 l 2,5,6
 364.994136512 934.923780952 364.994136512 934.923780952 186.353940377 1320.71967742 c 1,7,-1
 291.058806729 1357.62854662 l 1,8,-1
 390.837527134 1071.74308461 l 2,9,10
 415.34889946 1001.5764946 415.34889946 1001.5764946 471.829902711 964.982188395 c 128,-1,11
 528.310905962 928.387882187 528.310905962 928.387882187 610.324859738 927.632383366 c 0,12,13
 706.489413903 927.251387888 706.489413903 927.251387888 751.992251983 1003.31970596 c 128,-1,14
 797.495090063 1079.38802404 797.495090063 1079.38802404 794.357236651 1215.25322247 c 2,15,-1
 792.340764398 1302.56399413 l 1,16,-1
 891.099845511 1305.70798364 l 1,17,-1
 894.020048377 1191.65125295 l 2,18,19
 897.18948001 1064.43575542 897.18948001 1064.43575542 943.442722764 992.997708825 c 128,-1,20
 989.695965517 921.559662226 989.695965517 921.559662226 1080.23620753 920.893039835 c 0,21,22
 1122.27517476 920.345521582 1122.27517476 920.345521582 1154.64808603 940.346333395 c 128,-1,23
 1187.0209973 960.347145208 1187.0209973 960.347145208 1204.88748946 998.327617396 c 0,24,25
 1225.39312043 1044.24689875 1225.39312043 1044.24689875 1231.17269878 1104.38610063 c 0,26,27
 1233.91715618 1138.18574798 1233.91715618 1138.18574798 1235.74830745 1167.39164658 c 128,-1,28
 1237.57945872 1196.59754518 1237.57945872 1196.59754518 1238.52398538 1221.79435011 c 128,-1,29
 1239.46851204 1246.99115504 1239.46851204 1246.99115504 1239.51847167 1268.22727442 c 2,30,-1
 1239.76062529 1371.15845418 l 1,31,-1
 1356.50042652 1371.26613701 l 1,32,-1
 1356.05474376 1270.69440169 l 2,33,34
 1356.03686827 1249.57387369 1356.03686827 1249.57387369 1355.23492269 1226.58411291 c 128,-1,35
 1354.4329771 1203.59435212 1354.4329771 1203.59435212 1352.82931041 1178.45428511 c 128,-1,36
 1351.22564372 1153.31421809 1351.22564372 1153.31421809 1348.81489572 1126.04299465 c 0,37,38
 1335.07365089 954.919203399 1335.07365089 954.919203399 1270.21873722 875.945626565 c 128,-1,39
 1205.36382354 796.972049732 1205.36382354 796.972049732 1086.92064555 797.767539357 c 0,40,41
 920 799 920 799 836.839190822 930.556065519 c 5,42,43
 758 797 758 797 623.117907124 796.943354375 c 0,44,45
 506 797 506 797 440.279476345 875.988093668 c 1,46,-1
 450.340241134 800.092809776 l 1,47,-1
 451.346100509 792.504919151 l 2,0,1
EndSplineSet
EndChar

StartChar: afii57396
Encoding: 1636 1636 63
GlifName: afii57396
Width: 1056
VWidth: 2952
GlyphClass: 2
Flags: W
LayerCount: 2
Fore
SplineSet
169.293874036 312.795106109 m 0,0,1
 161.616924768 542.07686324 161.616924768 542.07686324 515.480438201 725.446841288 c 2,2,-1
 576.493421707 757.063408188 l 5,3,4
 251 824 251 824 251.662947854 1039.86600905 c 4,5,6
 251.971473354 1141.5524371 251.971473354 1141.5524371 294.191525062 1202.25889768 c 0,7,8
 420.482710375 1386.74372102 420.482710375 1386.74372102 788.159872405 1350.68296343 c 1,9,-1
 779.671005329 1228.19116679 l 1,10,11
 745.020937794 1231.12957416 745.020937794 1231.12957416 714.188882703 1231.45867722 c 0,12,13
 566.30339511 1231.7423948 566.30339511 1231.7423948 483.921278603 1185.42830777 c 128,-1,14
 401.539162096 1139.11422073 401.539162096 1139.11422073 400.830597351 1042.2614639 c 0,15,16
 400.619355385 1006.35753666 400.619355385 1006.35753666 417.160524203 976.99993104 c 128,-1,17
 433.701693022 947.642325419 433.701693022 947.642325419 463.818198785 926.053450658 c 128,-1,18
 493.934704548 904.464575897 493.934704548 904.464575897 538.948617194 888.103958298 c 128,-1,19
 583.96252984 871.7433407 583.96252984 871.7433407 637.663328655 861.273889087 c 128,-1,20
 691.36412747 850.804437475 691.36412747 850.804437475 758.107329266 844.245178573 c 1,21,-1
 759.797087558 708.18888028 l 1,22,23
 646.320866498 661.634388682 646.320866498 661.634388682 563.724840062 618.936397536 c 128,-1,24
 481.128813626 576.238406389 481.128813626 576.238406389 420.666116037 531.590513439 c 128,-1,25
 360.203418449 486.942620489 360.203418449 486.942620489 331.40376734 441.196314836 c 128,-1,26
 302.60411623 395.450009182 302.60411623 395.450009182 305.579933207 348.315450147 c 0,27,28
 308.935318582 298.300360177 308.935318582 298.300360177 339.529592341 262.401391109 c 128,-1,29
 370.1238661 226.502422042 370.1238661 226.502422042 425.868337187 205.434073653 c 128,-1,30
 481.612808274 184.365725264 481.612808274 184.365725264 555.022674893 174.907500794 c 128,-1,31
 628.432541513 165.449276325 628.432541513 165.449276325 724.020938643 166.054311876 c 2,32,-1
 888.104935922 167.092896628 l 1,33,-1
 889.644589651 30.0867756828 l 1,34,-1
 717.161918735 30.4686410166 l 2,35,36
 439.744756639 31.2164128811 439.744756639 31.2164128811 306.678021335 102.987210195 c 128,-1,37
 173.611286031 174.758007509 173.611286031 174.758007509 169.293874036 312.795106109 c 0,0,1
EndSplineSet
EndChar

StartChar: afii57397
Encoding: 1637 1637 64
GlifName: afii57397
Width: 1257
VWidth: 2952
GlyphClass: 2
Flags: W
LayerCount: 2
Fore
SplineSet
578.683229961 1071.13976788 m 2,0,1
 280.013494702 751.858863962 280.013494702 751.858863962 279.721734781 493.167115028 c 0,2,3
 280.027911302 333.407429442 280.027911302 333.407429442 398.213010007 240.441469017 c 0,4,5
 494.686444546 164.979810462 494.686444546 164.979810462 654.08365879 165.290958786 c 0,6,7
 817.918124381 164.972925827 817.918124381 164.972925827 908.162631178 271.946328051 c 0,8,9
 977.059918099 353.047990745 977.059918099 353.047990745 976.259692074 500.403595664 c 0,10,11
 975.986570887 802.88633699 975.986570887 802.88633699 618.750222555 1074.52586746 c 2,12,-1
 597.188027787 1090.92157996 l 1,13,-1
 578.683229961 1071.13976788 l 2,0,1
437.028069096 1218.18684872 m 1,14,-1
 511.260559405 1337.88384004 l 1,15,16
 1106.0380043 946.296239712 1106.0380043 946.296239712 1106.70607217 477.231282853 c 0,17,18
 1106.77640171 412.089304961 1106.77640171 412.089304961 1095.47246593 356.897503355 c 0,19,20
 1084.16853015 301.70570175 1084.16853015 301.70570175 1061.37732249 256.060006412 c 0,21,22
 1038.58611483 210.414311075 1038.58611483 210.414311075 1004.72097684 174.002989633 c 0,23,24
 970.855838856 137.591668191 970.855838856 137.591668191 925.350818514 109.470236366 c 0,25,26
 808.563464386 37.0671841521 808.563464386 37.0671841521 640.416650889 38.3877769607 c 0,27,28
 470.849105328 38.9730854014 470.849105328 38.9730854014 349.62002178 106.591063159 c 0,29,30
 146.16996648 218.633471307 146.16996648 218.633471307 148.62731273 475.636105984 c 0,31,32
 151.881402649 791.339388227 151.881402649 791.339388227 474.27115771 1148.83870728 c 2,33,-1
 496.038453387 1172.97655055 l 1,34,-1
 470.237254549 1192.74391704 l 1,35,-1
 437.028069096 1218.18684872 l 1,14,-1
EndSplineSet
EndChar

StartChar: afii57398
Encoding: 1638 1638 65
GlifName: afii57398
Width: 1305
VWidth: 2952
GlyphClass: 2
Flags: W
LayerCount: 2
Fore
SplineSet
829.754401635 1175.25178984 m 2,0,1
 668.189878105 1130.98056606 668.189878105 1130.98056606 493.946369069 1130.0732171 c 0,2,3
 423.604832576 1130.05062365 423.604832576 1130.05062365 357.503256843 1138.21390593 c 0,4,5
 291.40168111 1146.37718822 291.40168111 1146.37718822 230.023076417 1162.55077274 c 0,6,7
 168.644471724 1178.72435727 168.644471724 1178.72435727 111.41796875 1202.93477704 c 1,8,-1
 111.41796875 1348.04820845 l 1,9,10
 297.413587148 1271.9875956 297.413587148 1271.9875956 509.86252012 1271.84286337 c 0,11,12
 575.395238713 1272.00332644 575.395238713 1272.00332644 639.380387543 1277.81052974 c 0,13,14
 652.431723989 1279.11112456 652.431723989 1279.11112456 665.31104468 1280.60495142 c 0,15,16
 678.19036537 1282.09877827 678.19036537 1282.09877827 690.964378529 1283.79374189 c 0,17,18
 703.738391687 1285.4887055 703.738391687 1285.4887055 716.431869194 1287.38975148 c 0,19,20
 729.1253467 1289.29079745 729.1253467 1289.29079745 741.76040858 1291.39947496 c 0,21,22
 754.395470459 1293.50815247 754.395470459 1293.50815247 767.041476792 1295.83576267 c 0,23,24
 830.982105849 1307.7854605 830.982105849 1307.7854605 892.809976435 1325.86135298 c 0,25,26
 913.170658601 1331.59277874 913.170658601 1331.59277874 934.914056314 1338.56108601 c 0,27,28
 956.657454027 1345.52939328 956.657454027 1345.52939328 976.157210748 1352.53222928 c 1,29,30
 990.030681822 516.646650269 990.030681822 516.646650269 1123.13146026 41.5537109375 c 1,31,-1
 997.952872628 41.5537109375 l 1,32,33
 940.324633002 283.129639109 940.324633002 283.129639109 908.722925539 558.485607913 c 0,34,35
 877.121218075 833.841576717 877.121218075 833.841576717 871.468652758 1144.02609848 c 2,36,-1
 871.398340258 1147.88449691 l 1,37,-1
 870.695183776 1186.47020878 l 1,38,-1
 833.475104795 1176.27132109 l 1,39,-1
 829.754401635 1175.25178984 l 2,0,1
EndSplineSet
EndChar

StartChar: afii57399
Encoding: 1639 1639 66
GlifName: afii57399
Width: 1301
VWidth: 2952
GlyphClass: 2
Flags: W
LayerCount: 2
Fore
SplineSet
1162.27740128 1296.98268367 m 1,0,1
 844.795057534 667.747729783 844.795057534 667.747729783 709.97448248 41.5537109375 c 1,2,-1
 590.670195101 41.5537109375 l 1,3,4
 451.361700334 660.997148484 451.361700334 660.997148484 138.328027608 1296.83443128 c 1,5,-1
 252.58256077 1354.86907911 l 1,6,7
 519.011029564 776.770789993 519.011029564 776.770789993 621.171363709 320.575041687 c 2,8,-1
 650.493428968 189.637710531 l 1,9,-1
 679.725702893 320.595117204 l 2,10,11
 781.987132432 778.715195365 781.987132432 778.715195365 1048.27861534 1354.88588474 c 1,12,-1
 1162.27740128 1296.98268367 l 1,0,1
EndSplineSet
EndChar

StartChar: afii57400
Encoding: 1640 1640 67
GlifName: afii57400
Width: 1301
VWidth: 2952
GlyphClass: 2
Flags: W
LayerCount: 2
Fore
SplineSet
252.630095546 32.7405780161 m 1,0,-1
 138.322329067 90.8022547498 l 1,1,2
 451.361616565 726.990189573 451.361616565 726.990189573 590.667246014 1346.08105469 c 1,3,-1
 710.159636476 1346.08105469 l 1,4,5
 847.803942859 727.496897236 847.803942859 727.496897236 1162.51951785 90.7752196481 c 1,6,-1
 1048.31950982 32.7688978859 l 1,7,8
 781.985253268 611.219417611 781.985253268 611.219417611 679.724554783 1067.04264211 c 2,9,-1
 650.345821559 1197.99724254 l 1,10,-1
 621.169622265 1066.99736951 l 2,11,12
 519.009083416 608.300968271 519.009083416 608.300968271 252.630095546 32.7405780161 c 1,0,-1
EndSplineSet
EndChar

StartChar: afii57401
Encoding: 1641 1641 68
GlifName: afii57401
Width: 1179
VWidth: 2952
GlyphClass: 2
Flags: W
LayerCount: 2
Fore
SplineSet
509.895996094 625.165039062 m 0,0,1
 462.230398071 625.165039062 462.230398071 625.165039062 421.167945929 630.044462294 c 128,-1,2
 380.105493787 634.923885527 380.105493787 634.923885527 345.27044595 644.808328794 c 128,-1,3
 310.435398113 654.692772061 310.435398113 654.692772061 281.874119905 669.481600973 c 128,-1,4
 253.312841697 684.270429885 253.312841697 684.270429885 230.700114823 704.258309648 c 128,-1,5
 208.08738795 724.246189411 208.08738795 724.246189411 191.415686234 749.152146004 c 128,-1,6
 174.743984519 774.058102597 174.743984519 774.058102597 163.741981169 804.357140858 c 128,-1,7
 152.739977818 834.656179119 152.739977818 834.656179119 147.346255155 869.886985395 c 128,-1,8
 141.952532492 905.117791671 141.952532492 905.117791671 141.946287006 945.924439205 c 0,9,10
 141.971714825 1014.6008187 141.971714825 1014.6008187 158.467169266 1075.05473895 c 128,-1,11
 174.962623706 1135.50865921 174.962623706 1135.50865921 207.980139012 1188.66451719 c 0,12,13
 265.187292862 1280.7138882 265.187292862 1280.7138882 341.146999177 1325.44148332 c 128,-1,14
 417.106705492 1370.16907845 417.106705492 1370.16907845 515.041199104 1370.3154387 c 0,15,16
 706.229585334 1370.16724203 706.229585334 1370.16724203 806.104529869 1255.35591824 c 128,-1,17
 905.979474404 1140.54459445 905.979474404 1140.54459445 918.987490655 899.871780623 c 0,18,19
 940.27536847 489.202014798 940.27536847 489.202014798 951.064345249 41.5537109375 c 1,20,-1
 839.124465589 41.5537109375 l 1,21,-1
 826.058812682 663.530451375 l 1,22,-1
 825.063750779 710.899332481 l 1,23,-1
 782.669910028 689.743640298 l 2,24,25
 653.261006118 625.165039062 653.261006118 625.165039062 509.895996094 625.165039062 c 0,0,1
512.732310196 754.890619166 m 0,26,27
 656.066420295 755.005661987 656.066420295 755.005661987 791.712441059 822.539858981 c 2,28,-1
 809.940927197 831.615290512 l 1,29,-1
 808.236521312 851.906573491 l 1,30,-1
 806.298987023 874.973266479 l 2,31,32
 791.48995816 1050.432791 791.48995816 1050.432791 720.733979102 1144.65664911 c 128,-1,33
 649.978000045 1238.88050722 649.978000045 1238.88050722 523.754420979 1238.72660686 c 0,34,35
 395.839133703 1239.03686032 395.839133703 1239.03686032 321.704049183 1138.10300093 c 0,36,37
 289.776571156 1094.53891925 289.776571156 1094.53891925 273.390222042 1048.60936382 c 128,-1,38
 257.003872929 1002.6798084 257.003872929 1002.6798084 257.008789102 955.304282629 c 0,39,40
 257.003693164 856.561992973 257.003693164 856.561992973 324.348750901 805.75563033 c 128,-1,41
 391.693808638 754.949267687 391.693808638 754.949267687 512.732310196 754.890619166 c 0,26,27
EndSplineSet
EndChar

StartChar: afii57381
Encoding: 1642 1642 69
GlifName: afii57381
Width: 1288
VWidth: 4038
GlyphClass: 2
Flags: W
LayerCount: 2
Fore
SplineSet
779.512695312 345.344726562 m 128,-1,1
 779.512695312 402.636448097 779.512695312 402.636448097 820.632555016 442.994234082 c 0,2,3
 861.097437334 483.4591164 861.097437334 483.4591164 918.698305432 483.840499175 c 0,4,5
 947.612108582 484.031628824 947.612108582 484.031628824 971.647629659 474.024344916 c 128,-1,6
 995.696424168 464.01153456 995.696424168 464.01153456 1016.12989633 443.192724173 c 0,7,8
 1036.56689771 422.754910635 1036.56689771 422.754910635 1046.5262297 398.606886876 c 0,9,10
 1049.83198281 390.592188924 1049.83198281 390.592188924 1052.03556073 382.130161792 c 128,-1,11
 1054.23913865 373.66813466 1054.23913865 373.66813466 1055.37152245 364.441651188 c 128,-1,12
 1056.50390625 355.215167717 1056.50390625 355.215167717 1056.50390625 345.344726562 c 0,13,14
 1056.50390625 287.869591347 1056.50390625 287.869591347 1016.22917937 247.59406281 c 128,-1,15
 975.95347594 207.318359375 975.95347594 207.318359375 918.48046875 207.318359375 c 0,16,17
 889.026897175 207.318359375 889.026897175 207.318359375 865.173831498 217.161502222 c 128,-1,18
 841.32076582 227.004645069 841.32076582 227.004645069 820.613091147 247.712731762 c 0,19,0
 779.512695312 288.051116975 779.512695312 288.051116975 779.512695312 345.344726562 c 128,-1,1
230.96875299 1199.37004637 m 0,20,21
 230.96875299 1256.42903076 230.96875299 1256.42903076 272.101285474 1297.03258432 c 0,22,23
 312.515791971 1337.1524998 312.515791971 1337.1524998 370.172379107 1337.86559131 c 0,24,25
 399.398266922 1337.92182394 399.398266922 1337.92182394 423.233363589 1327.99027436 c 128,-1,26
 447.068460257 1318.05872478 447.068460257 1318.05872478 467.574854449 1297.22959519 c 0,27,28
 507.992896903 1256.62185327 507.992896903 1256.62185327 507.959965794 1199.35304785 c 0,29,30
 507.99287658 1141.51113691 507.99287658 1141.51113691 467.836846688 1101.77191847 c 0,31,32
 457.370187963 1091.51142245 457.370187963 1091.51142245 446.127566506 1083.84723707 c 128,-1,33
 434.884945049 1076.18305169 434.884945049 1076.18305169 423.076040657 1071.13703422 c 128,-1,34
 411.105266211 1066.10668682 411.105266211 1066.10668682 398.004441054 1063.65283759 c 128,-1,35
 384.903615897 1061.19898836 384.903615897 1061.19898836 370.003184777 1061.34545339 c 0,36,37
 363.373953315 1061.31277382 363.373953315 1061.31277382 357.112278742 1061.75833888 c 128,-1,38
 350.850604169 1062.20390394 350.850604169 1062.20390394 344.854452151 1063.13678102 c 128,-1,39
 338.858300133 1064.06965809 338.858300133 1064.06965809 333.159780983 1065.50943358 c 128,-1,40
 327.461261834 1066.94920907 327.461261834 1066.94920907 321.994162928 1068.88997908 c 128,-1,41
 316.527064023 1070.8307491 316.527064023 1070.8307491 311.285285851 1073.30806939 c 128,-1,42
 306.043507679 1075.78538968 306.043507679 1075.78538968 300.999047441 1078.77738701 c 128,-1,43
 295.954587203 1081.76938434 295.954587203 1081.76938434 291.063135564 1085.32758381 c 128,-1,44
 286.171683924 1088.88578328 286.171683924 1088.88578328 281.443447908 1092.9723423 c 128,-1,45
 276.715211892 1097.05890133 276.715211892 1097.05890133 272.070060453 1101.74031627 c 0,46,47
 230.96875299 1141.70409366 230.96875299 1141.70409366 230.96875299 1199.37004637 c 0,20,21
885.553786914 1366.61076584 m 1,48,-1
 985.52301666 1315.10638938 l 1,49,-1
 342.464003619 74.7672728263 l 1,50,-1
 242.257005136 129.834126352 l 1,51,-1
 885.553786914 1366.61076584 l 1,48,-1
EndSplineSet
EndChar

StartChar: uni066B
Encoding: 1643 1643 70
GlifName: uni066B_
Width: 822
VWidth: 2952
GlyphClass: 2
Flags: W
LayerCount: 2
Fore
SplineSet
548.374832671 778.784238997 m 1,0,-1
 624.51387345 746.462493042 l 1,1,-1
 184.210172166 -269.563127803 l 1,2,-1
 105.868558653 -235.467177776 l 1,3,-1
 548.374832671 778.784238997 l 1,0,-1
EndSplineSet
EndChar

StartChar: uni066C
Encoding: 1644 1644 71
GlifName: uni066C_
Width: 588
VWidth: 2842
GlyphClass: 2
Flags: W
LayerCount: 2
Fore
SplineSet
157.026416176 150.380127991 m 0,0,1
 157.236227686 171.301152663 157.236227686 171.301152663 161.058831426 187.859497556 c 128,-1,2
 164.881435166 204.41784245 164.881435166 204.41784245 171.812656767 216.71901839 c 0,3,4
 176.29770215 224.679274513 176.29770215 224.679274513 182.044874195 231.127106038 c 128,-1,5
 187.79204624 237.574937563 187.79204624 237.574937563 195.307838549 242.914144623 c 128,-1,6
 202.823630858 248.253351684 202.823630858 248.253351684 212.240223393 252.466031125 c 0,7,8
 242.588911705 266.043054322 242.588911705 266.043054322 290.717725186 266.182910962 c 0,9,10
 355.133473169 266.46798403 355.133473169 266.46798403 389.012191493 241.335880661 c 128,-1,11
 422.890909818 216.203777292 422.890909818 216.203777292 434.294004227 161.721959665 c 0,12,13
 447.485587907 97.4240381975 447.485587907 97.4240381975 422.708932462 -1.79318956818 c 0,14,15
 369.189877814 -206.335406768 369.189877814 -206.335406768 186.208837656 -363.892303137 c 1,16,-1
 184.319614504 -362.684666221 l 1,17,18
 340.37898547 -192.275566805 340.37898547 -192.275566805 353.439115624 -12.4249141082 c 2,19,-1
 353.961639913 -5.25900605924 l 1,20,-1
 354.201874288 -1.96310762174 l 1,21,-1
 356.604540143 31.0002958663 l 1,22,-1
 323.563158435 30.2091779479 l 1,23,-1
 320.26355281 30.1301743987 l 1,24,-1
 313.092214708 29.9594505743 l 2,25,26
 291.284417692 29.4456519663 291.284417692 29.4456519663 275.731567838 30.2636184527 c 128,-1,27
 260.178717983 31.0815849391 260.178717983 31.0815849391 253.214735469 32.7176738592 c 0,28,29
 201.617168693 43.1296489304 201.617168693 43.1296489304 179.161096921 70.6950875892 c 128,-1,30
 156.70502515 98.260526248 156.70502515 98.260526248 157.026416176 150.380127991 c 0,0,1
EndSplineSet
EndChar

StartChar: afii63167
Encoding: 1645 1645 72
GlifName: afii63167
Width: 1584
VWidth: 2952
GlyphClass: 2
Flags: W
LayerCount: 2
Fore
SplineSet
324.462145328 1008.65136719 m 1,0,-1
 662.741210938 1008.65136719 l 1,1,-1
 664.913085938 1008.65136719 l 1,2,-1
 686.626721466 1008.65136719 l 1,3,-1
 693.411123001 1029.27790019 l 1,4,-1
 694.093836958 1031.35355585 l 1,5,-1
 799.99532428 1353.78872388 l 1,6,-1
 905.902353562 1031.34137675 l 1,7,-1
 906.581064499 1029.27790019 l 1,8,-1
 913.365466034 1008.65136719 l 1,9,-1
 935.079101562 1008.65136719 l 1,10,-1
 937.250976562 1008.65136719 l 1,11,-1
 1275.52983377 1008.65136719 l 1,12,-1
 1002.15373577 808.803461571 l 1,13,-1
 1000.39885296 807.520258447 l 1,14,-1
 982.851902759 794.68960036 l 1,15,-1
 989.579287801 774.019246253 l 1,16,-1
 990.252606604 771.95042796 l 1,17,-1
 1094.69460094 451.100066519 l 1,18,-1
 819.323084556 650.083320767 l 1,19,-1
 817.566248619 651.352852017 l 1,20,-1
 799.995117193 664.05016767 l 1,21,-1
 782.423985764 651.352852022 l 1,22,-1
 780.667443262 650.083532813 l 1,23,-1
 505.298207966 451.100261033 l 1,24,-1
 609.739071599 771.951863528 l 1,25,-1
 610.411923162 774.019246341 l 1,26,-1
 617.139308125 794.689600419 l 1,27,-1
 599.592357952 807.520258462 l 1,28,-1
 597.834632174 808.805540159 l 1,29,-1
 324.462145328 1008.65136719 l 1,0,-1
EndSplineSet
EndChar

StartChar: uni066E
Encoding: 1646 1646 73
GlifName: uni066E_
Width: 1837
VWidth: 2952
GlyphClass: 2
Flags: W
AnchorPoint: "Anchor-10" 1007.36 1415.35 basechar 0
AnchorPoint: "Anchor-7" 957.36 -257.261 basechar 0
LayerCount: 2
Fore
SplineSet
890.911132812 30 m 2,0,1
 502.436637683 30 502.436637683 30 316.260970324 144.443155367 c 128,-1,2
 130.085302965 258.886310734 130.085302965 258.886310734 130.160135179 485.90762687 c 0,3,4
 130.025880014 599.182148055 130.025880014 599.182148055 170.55756449 703.17125834 c 1,5,-1
 274.409463898 658.052076255 l 1,6,7
 249.03922455 583.855000778 249.03922455 583.855000778 249.424697603 514.457445298 c 0,8,9
 249.190450902 332.200587697 249.190450902 332.200587697 409.00189087 243.133711702 c 128,-1,10
 568.813330838 154.066835706 568.813330838 154.066835706 871.859002918 154.136719866 c 0,11,12
 1129.03773473 154.066556521 1129.03773473 154.066556521 1288.76464685 178.18984951 c 128,-1,13
 1448.49155898 202.313142499 1448.49155898 202.313142499 1521.23094902 255.850430836 c 0,14,15
 1597.95105483 311.695455462 1597.95105483 311.695455462 1598.38008686 445.426614538 c 0,16,17
 1598.02283149 529.679187991 1598.02283149 529.679187991 1567.5334696 668.685764797 c 1,18,-1
 1674.91238075 695.704260992 l 1,19,20
 1695.2348966 629.527470044 1695.2348966 629.527470044 1705.09100367 571.042985466 c 128,-1,21
 1714.94711075 512.558500889 1714.94711075 512.558500889 1714.90625235 459.697102698 c 0,22,23
 1714.99381045 238.622017746 1714.99381045 238.622017746 1589.62650273 150.930373621 c 0,24,25
 1416.55728517 30 1416.55728517 30 894.356445312 30 c 2,26,-1
 890.911132812 30 l 2,0,1
EndSplineSet
Substitution2: "'init' Initial Forms in Arabic lookup 13 subtable" uni066E.init
Substitution2: "'medi' Medial Forms in Arabic lookup 11 subtable" uni066E.medi
Substitution2: "'fina' Terminal Forms in Arabic lookup 9 subtable" uni066E.fina
EndChar

StartChar: uni066F
Encoding: 1647 1647 74
GlifName: uni066F_
Width: 1511
VWidth: 2952
GlyphClass: 2
Flags: W
AnchorPoint: "Anchor-10" 121.809 1362.22 basechar 0
AnchorPoint: "Anchor-7" 335.219 -761.353 basechar 0
LayerCount: 2
Fore
SplineSet
1366.87090631 24.9155520569 m 0,0,1
 1330.86644752 -204.088301474 1330.86644752 -204.088301474 1175.75085805 -317.059718868 c 128,-1,2
 1020.63526859 -430.031136263 1020.63526859 -430.031136263 736.885649183 -430.060548135 c 0,3,4
 534.361579222 -430.001842762 534.361579222 -430.001842762 400.829175001 -370.743804115 c 0,5,6
 266.357129111 -310.682653729 266.357129111 -310.682653729 199.715089522 -190.913393768 c 0,7,8
 131.957262282 -69.138837121 131.957262282 -69.138837121 130.957748088 112.898270991 c 0,9,10
 130.085540244 322.505553036 130.085540244 322.505553036 216.397106759 520.405183807 c 1,11,-1
 321.086099372 477.255175919 l 1,12,13
 285.549101262 383.648282552 285.549101262 383.648282552 267.4156752 301.074094538 c 0,14,15
 245.981241082 205.229762561 245.981241082 205.229762561 246.460551663 120.561736451 c 0,16,17
 247.804686498 -93.623384755 247.804686498 -93.623384755 373.037730056 -203.650152949 c 128,-1,18
 498.270773614 -313.676921143 498.270773614 -313.676921143 736.396511985 -313.326054241 c 0,19,20
 981.788782027 -312.638855157 981.788782027 -312.638855157 1118.48312887 -208.245810388 c 128,-1,21
 1255.17747572 -103.852765618 1255.17747572 -103.852765618 1272.22738185 100.700471412 c 2,22,-1
 1272.59554591 105.1174636 l 1,23,-1
 1276.25685125 149.043416257 l 1,24,-1
 1234.05015879 136.335560994 l 2,25,26
 1204.94203334 127.57150431 1204.94203334 127.57150431 1174.17100153 121.649511946 c 128,-1,27
 1143.39996972 115.727519581 1143.39996972 115.727519581 1110.69664393 112.632073495 c 128,-1,28
 1077.99331815 109.536627409 1077.99331815 109.536627409 1043.52802066 109.317594908 c 0,29,30
 890.184095655 108.22286087 890.184095655 108.22286087 818.61634981 167.392848956 c 128,-1,31
 747.048603965 226.562837042 747.048603965 226.562837042 745.423362324 350.974840499 c 0,32,33
 745.225876209 371.113430249 745.225876209 371.113430249 746.987563573 390.236040261 c 128,-1,34
 748.749250938 409.358650273 748.749250938 409.358650273 752.449303805 427.503623406 c 0,35,36
 783.633903416 580.372497761 783.633903416 580.372497761 857.96708756 656.657709747 c 0,37,38
 931.772331036 733.044325333 931.772331036 733.044325333 1044.08187733 733.434273787 c 0,39,40
 1119.12132715 733.939537151 1119.12132715 733.939537151 1174.58951277 697.509430948 c 0,41,42
 1333.83084486 595.423216725 1333.83084486 595.423216725 1368.96580869 291.251829049 c 0,43,44
 1385.73211947 147.551721541 1385.73211947 147.551721541 1366.87090631 24.9155520569 c 0,0,1
849.452074124 377.981808606 m 0,45,46
 849.792493631 300.269327981 849.792493631 300.269327981 905.253640634 261.314444165 c 128,-1,47
 960.714787636 222.359560349 960.714787636 222.359560349 1056.95634134 223.234638318 c 0,48,49
 1101.25217538 223.637374358 1101.25217538 223.637374358 1145.95184871 230.520095396 c 128,-1,50
 1190.65152205 237.402816434 1190.65152205 237.402816434 1235.63506573 250.709870036 c 2,51,-1
 1259.95959708 257.905564638 l 1,52,-1
 1256.90698093 283.087748435 l 2,53,54
 1242.20851544 404.340942818 1242.20851544 404.340942818 1203.3378658 487.838991588 c 0,55,56
 1146.35636384 614.030705546 1146.35636384 614.030705546 1037.43355172 613.857393894 c 0,57,58
 1011.85731417 613.892325611 1011.85731417 613.892325611 989.035938374 606.931215889 c 128,-1,59
 966.21456258 599.970106167 966.21456258 599.970106167 947.230981538 586.818155877 c 128,-1,60
 928.247400496 573.666205587 928.247400496 573.666205587 912.302190393 554.528781295 c 128,-1,61
 896.35698029 535.391357003 896.35698029 535.391357003 884.083225139 511.28020354 c 128,-1,62
 871.809469989 487.169050077 871.809469989 487.169050077 862.857594956 458.08299005 c 0,63,64
 850.072455838 416.770067436 850.072455838 416.770067436 849.452074124 377.981808606 c 0,45,46
EndSplineSet
Substitution2: "'init' Initial Forms in Arabic lookup 13 subtable" uni066F.init
Substitution2: "'medi' Medial Forms in Arabic lookup 11 subtable" uni066F.medi
Substitution2: "'fina' Terminal Forms in Arabic lookup 9 subtable" uni066F.fina
EndChar

StartChar: uni0670
Encoding: 1648 1648 75
GlifName: uni0670
Width: -29
VWidth: 2574
GlyphClass: 4
Flags: W
AnchorPoint: "Anchor-10" 636.984 1500.61 mark 0
AnchorPoint: "Anchor-9" 636.984 1500.61 mark 0
AnchorPoint: "Anchor-1" 636.984 1997.18 basemark 0
AnchorPoint: "Anchor-1" 636.984 1500.61 mark 0
LayerCount: 2
Fore
SplineSet
608.435546875 1583.26757812 m 1,0,-1
 608.435546875 1954.51660156 l 1,1,-1
 665.533203125 1954.51660156 l 1,2,-1
 665.533203125 1583.26757812 l 1,3,-1
 608.435546875 1583.26757812 l 1,0,-1
EndSplineSet
EndChar

StartChar: uni0674
Encoding: 1652 1652 76
GlifName: uni0674
Width: 551
VWidth: 2537
GlyphClass: 2
Flags: W
LayerCount: 2
Fore
SplineSet
183.757886409 1982.39992532 m 2,0,1
 161.197656378 1999.71246984 161.197656378 1999.71246984 146.047534936 2021.7513074 c 0,2,3
 131 2044 131 2044 123.441274369 2070.8233411 c 0,4,5
 116 2098 116 2098 115.783158099 2130.48180186 c 0,6,7
 116 2151 116 2151 119.260337765 2170.38866879 c 0,8,9
 123 2189 123 2189 129.532489537 2206.93715808 c 0,10,11
 136 2224 136 2224 146.615152961 2240.29417441 c 0,12,13
 157 2256 157 2256 170.573675192 2270.67230785 c 0,14,15
 235 2339 235 2339 337.010546305 2339.01562533 c 0,16,17
 403 2339 403 2339 462.907556103 2303.14595482 c 1,18,-1
 463.423875414 2206.42979704 l 1,19,20
 408 2236 408 2236 350.999041331 2236.2618442 c 0,21,22
 317 2236 317 2236 289.848102399 2226.53280215 c 0,23,24
 263 2217 263 2217 243.301410612 2197.44412264 c 0,25,26
 211 2164 211 2164 211.49443125 2117.72536917 c 0,27,28
 212 2099 212 2099 219.257872309 2083.35323887 c 0,29,30
 227 2067 227 2067 240.222852091 2053.9049281 c 0,31,32
 254 2041 254 2041 272.655429938 2029.60735594 c 0,33,34
 291 2019 291 2019 315.740711627 2009.73064178 c 0,35,36
 333 2003 333 2003 347.972366318 2006.59110664 c 0,37,38
 409 2018 409 2018 469.747070312 2030.34910251 c 1,39,-1
 469.747070312 1934.82910156 l 5,40,-1
 93.2861328125 1844.07324219 l 5,41,-1
 93.2861328125 1936.33748305 l 1,42,-1
 177.998468805 1955.88403968 l 1,43,-1
 208.991964495 1963.03549066 l 1,44,-1
 183.757886409 1982.39992532 l 2,0,1
EndSplineSet
EndChar

StartChar: uni06A1
Encoding: 1697 1697 80
GlifName: uni06A_1
Width: 1851
VWidth: 2952
GlyphClass: 2
Flags: W
AnchorPoint: "Anchor-10" 670.853 1630.62 basechar 0
AnchorPoint: "Anchor-7" 653.182 -352.248 basechar 0
LayerCount: 2
Fore
SplineSet
1717.55876922 473.264180325 m 0,0,1
 1716.08243471 205.058480514 1716.08243471 205.058480514 1594.23079949 113.637301818 c 0,2,3
 1482.04762778 30 1482.04762778 30 1190.20996094 30 c 2,4,-1
 859.911132812 30 l 2,5,6
 486.612525888 30 486.612525888 30 307.848840543 144.219012859 c 128,-1,7
 129.085155198 258.438025718 129.085155198 258.438025718 129.160135179 485.90762687 c 0,8,9
 129.025880014 599.182148055 129.025880014 599.182148055 169.55756449 703.17125834 c 1,10,-1
 273.586968028 657.974958347 l 1,11,12
 260.763296954 619.730764311 260.763296954 619.730764311 254.499196949 583.251920996 c 128,-1,13
 248.235096944 546.773077681 248.235096944 546.773077681 248.433482889 511.210609728 c 0,14,15
 248.19493501 331.15585275 248.19493501 331.15585275 401.768540503 242.721280456 c 128,-1,16
 555.342145995 154.286708162 555.342145995 154.286708162 846.136257787 154.159182573 c 2,17,-1
 1211.35066352 153.999023438 l 2,18,19
 1644.4714435 154.000143443 1644.4714435 154.000143443 1616.36043085 438.421054845 c 5,20,-1
 1581.36144707 427.758267376 l 2,21,22
 1552.18687126 418.869943555 1552.18687126 418.869943555 1521.36593202 412.901879861 c 128,-1,23
 1490.54499278 406.933816168 1490.54499278 406.933816168 1457.94128448 403.888518911 c 128,-1,24
 1425.33757618 400.843221654 1425.33757618 400.843221654 1391.16885693 400.76952362 c 0,25,26
 1238.50464043 400.87840373 1238.50464043 400.87840373 1166.84035729 460.131271266 c 128,-1,27
 1095.17607415 519.384138803 1095.17607415 519.384138803 1092.82445552 642.712632362 c 0,28,29
 1092.0608871 682.146000777 1092.0608871 682.146000777 1099.88342838 719.087033198 c 0,30,31
 1114.05827461 794.927076286 1114.05827461 794.927076286 1140.45913532 851.766103688 c 128,-1,32
 1166.85999603 908.60513109 1166.85999603 908.60513109 1205.36566837 948.101992369 c 0,33,34
 1279.71131503 1024.98828107 1279.71131503 1024.98828107 1391.32645153 1024.88479404 c 0,35,36
 1466.17800333 1024.98782801 1466.17800333 1024.98782801 1522.02929563 988.938788169 c 0,37,38
 1678.69867146 887.578945702 1678.69867146 887.578945702 1710.33235676 593.052710738 c 0,39,40
 1717.01520695 529.287142088 1717.01520695 529.287142088 1717.55876922 473.264180325 c 0,0,1
1196.85832728 669.304782184 m 0,41,42
 1196.94546551 592.223502305 1196.94546551 592.223502305 1252.41864198 553.267990428 c 128,-1,43
 1307.89181845 514.312478551 1307.89181845 514.312478551 1404.20163916 514.684782271 c 0,44,45
 1448.37518139 514.850834691 1448.37518139 514.850834691 1493.14102113 521.74374038 c 128,-1,46
 1537.90686087 528.636646069 1537.90686087 528.636646069 1583.14145585 542.191147759 c 2,47,-1
 1607.45006287 549.475197835 l 1,48,-1
 1604.29793497 574.655147209 l 2,49,50
 1599.29425404 614.625743584 1599.29425404 614.625743584 1591.77036547 650.466596586 c 128,-1,51
 1584.2464769 686.307449587 1584.2464769 686.307449587 1573.97647726 718.640393017 c 128,-1,52
 1563.70647762 750.973336446 1563.70647762 750.973336446 1550.75656066 779.259647152 c 0,53,54
 1493.30168161 904.933405587 1493.30168161 904.933405587 1384.80557398 905.308746555 c 0,55,56
 1342.70594975 905.184777592 1342.70594975 905.184777592 1308.3565478 886.091855307 c 128,-1,57
 1274.00714584 866.998933023 1274.00714584 866.998933023 1249.86604043 832.692394717 c 128,-1,58
 1225.72493501 798.385856411 1225.72493501 798.385856411 1210.32043107 749.718072001 c 0,59,60
 1203.72911103 728.893971191 1203.72911103 728.893971191 1200.33432642 708.775388494 c 128,-1,61
 1196.93954181 688.656805798 1196.93954181 688.656805798 1196.85832728 669.304782184 c 0,41,42
EndSplineSet
Substitution2: "'init' Initial Forms in Arabic lookup 13 subtable" uni06A1.init
Substitution2: "'medi' Medial Forms in Arabic lookup 11 subtable" uni06A1.medi
Substitution2: "'fina' Terminal Forms in Arabic lookup 9 subtable" uni06A1.fina
EndChar

StartChar: uni06A9
Encoding: 1705 1705 81
GlifName: uni06A_9
Width: 1878
VWidth: 2952
GlyphClass: 2
Flags: W
AnchorPoint: "Anchor-7" 750.268 -236.468 basechar 0
AnchorPoint: "Anchor-10" 1125.88 1435.07 basechar 0
LayerCount: 2
Fore
SplineSet
1507.23748554 639.288901825 m 0,0,1
 1628.8403967 507.450206389 1628.8403967 507.450206389 1626.71386115 350.848319313 c 0,2,3
 1625.20784448 272.212374924 1625.20784448 272.212374924 1590.35462743 213.104057672 c 128,-1,4
 1555.50141038 153.99574042 1555.50141038 153.99574042 1484.94413205 112.827533498 c 128,-1,5
 1414.38685371 71.6593265761 1414.38685371 71.6593265761 1304.03965695 50.8296632881 c 128,-1,6
 1193.69246018 30 1193.69246018 30 1044.10449219 30 c 2,7,-1
 862.553710938 30 l 2,8,9
 487.915045916 30 487.915045916 30 308.500106387 144.236698101 c 128,-1,10
 129.085166857 258.473396202 129.085166857 258.473396202 129.160135179 485.90762687 c 0,11,12
 129.025880014 599.182148055 129.025880014 599.182148055 169.55756449 703.17125834 c 1,13,-1
 273.586968028 657.974958347 l 1,14,15
 248.039790021 581.785291043 248.039790021 581.785291043 248.433937362 511.130829207 c 0,16,17
 249.298254678 330.546167307 249.298254678 330.546167307 406.943016795 242.269665684 c 128,-1,18
 564.587778913 153.993164062 564.587778913 153.993164062 862.553710938 153.993164062 c 2,19,-1
 1043.2748858 153.993164066 l 2,20,21
 1508.12313691 154.000473674 1508.12313691 154.000473674 1507.21672329 375.184610409 c 0,22,23
 1507.09188217 431.549251995 1507.09188217 431.549251995 1478.27392365 485.807895669 c 128,-1,24
 1449.45596514 540.066539343 1449.45596514 540.066539343 1394.14951314 592.056736664 c 0,25,26
 1342.55987758 640.01919625 1342.55987758 640.01919625 1294.93392755 682.392105164 c 128,-1,27
 1247.30797751 724.765014079 1247.30797751 724.765014079 1203.31785761 761.827756298 c 128,-1,28
 1159.32773771 798.890498518 1159.32773771 798.890498518 1118.97174153 830.632888918 c 0,29,30
 1065.82576901 871.945677655 1065.82576901 871.945677655 1041.03297444 912.700635354 c 128,-1,31
 1016.24017987 953.455593052 1016.24017987 953.455593052 1016.41133315 994.443348632 c 0,32,33
 1016.23463229 1049.68943799 1016.23463229 1049.68943799 1045.07443105 1087.21790234 c 128,-1,34
 1073.91422981 1124.7463667 1073.91422981 1124.7463667 1137.25651874 1148.79974199 c 2,35,-1
 1789.86328125 1396.61831064 l 1,36,-1
 1789.86328125 1280.29333445 l 1,37,-1
 1136.58383573 1036.66856736 l 1,38,-1
 1088.36906389 1018.68803447 l 1,39,-1
 1127.76986328 985.589079902 l 2,40,41
 1391.27793791 764.227028261 1391.27793791 764.227028261 1507.23748554 639.288901825 c 0,0,1
EndSplineSet
Substitution2: "'init' Initial Forms in Arabic lookup 13 subtable" uniFB90
Substitution2: "'medi' Medial Forms in Arabic lookup 11 subtable" uniFB91
Substitution2: "'fina' Terminal Forms in Arabic lookup 9 subtable" uniFB8F
EndChar

StartChar: afii57514
Encoding: 1722 1722 83
GlifName: afii57514
Width: 1475
VWidth: 2952
GlyphClass: 2
Flags: W
AnchorPoint: "Anchor-10" 727.479 1197.75 basechar 0
AnchorPoint: "Anchor-7" 758.023 -723.042 basechar 0
LayerCount: 2
Fore
SplineSet
716.534939778 -309.695152282 m 0,0,1
 964.172875903 -308.812360165 964.172875903 -308.812360165 1092.85799587 -188.675912793 c 0,2,3
 1221.54311583 -68.5394654207 1221.54311583 -68.5394654207 1221.03710882 163.435498846 c 0,4,5
 1221.00177056 345.862719079 1221.00177056 345.862719079 1142.22449131 522.712304101 c 1,6,-1
 1256.78526471 562.738137495 l 1,7,8
 1341.97254817 340.341316449 1341.97254817 340.341316449 1341.67891031 162.275386784 c 0,9,10
 1341.02550851 -16.9484949091 1341.02550851 -16.9484949091 1277.50716892 -145.652471161 c 0,11,12
 1136.49158604 -426.976498443 1136.49158604 -426.976498443 707.042958262 -426.43164831 c 0,13,14
 415.280542614 -426.222805815 415.280542614 -426.222805815 274.444980367 -297.212677272 c 0,15,16
 133.60941812 -168.202548729 133.60941812 -168.202548729 133.249979415 96.6288942137 c 0,17,18
 133.021363232 291.781382852 133.021363232 291.781382852 219.971442385 514.188114956 c 1,19,-1
 323.504162895 471.513911155 l 1,20,21
 248.027445479 269.353810296 248.027445479 269.353810296 248.753465243 94.878360332 c 0,22,23
 249.949163267 -105.227238278 249.949163267 -105.227238278 369.772114363 -207.801182398 c 0,24,25
 489.595065458 -310.375126518 489.595065458 -310.375126518 716.534939778 -309.695152282 c 0,0,1
EndSplineSet
Substitution2: "'init' Initial Forms in Arabic lookup 13 subtable" uni06BA.init
Substitution2: "'medi' Medial Forms in Arabic lookup 11 subtable" uni06BA.medi
Substitution2: "'fina' Terminal Forms in Arabic lookup 9 subtable" uniFB9F
EndChar

StartChar: uni06F4
Encoding: 1780 1780 90
GlifName: uni06F_4
Width: 1244
VWidth: 2952
GlyphClass: 2
Flags: W
LayerCount: 2
Fore
SplineSet
1048.02734375 1342.82714844 m 1,0,-1
 1019.25390625 1227.45898438 l 1,1,2
 985 1238 985 1238 950.653320312 1243.58300781 c 0,3,4
 916 1249 916 1249 880.256835938 1248.92675781 c 0,5,6
 767 1249 767 1249 689.209960938 1191.84179688 c 0,7,8
 562 1096 562 1096 546.827148438 950.331054688 c 0,9,10
 543 914 543 914 569.17578125 884.971679688 c 0,11,12
 595 856 595 856 643.65234375 831.051757812 c 0,13,14
 683 811 683 811 735.147460938 800.670898438 c 0,15,16
 787 791 787 791 852.9375 790.590820312 c 0,17,18
 978 791 978 791 1090.3671875 829.264648438 c 1,19,-1
 1105.67480469 714.666015625 l 1,20,21
 996 671 996 671 873.255859375 671.181640625 c 0,22,23
 561 672 561 672 432.295898438 866.8515625 c 1,24,-1
 447.491210938 781.709960938 l 1,25,-1
 449.014648438 771.169921875 l 2,26,27
 471 619 471 619 475.341796875 528.493164062 c 0,28,29
 484.115234375 316.211798629 484.115234375 316.211798629 484.115234375 308.771484375 c 2,30,-1
 484.115234375 41.5537109375 l 1,31,-1
 364.796387315 41.5537109375 l 1,32,-1
 364.791990703 311.908529325 l 2,33,34
 365 934 365 934 186.342773438 1320.71582031 c 1,35,-1
 291.083984375 1357.63671875 l 5,36,37
 348 1202 348 1202 405.08203125 1047.33203125 c 2,38,-1
 422.931640625 977.983398438 l 1,39,-1
 438.443359375 1024.29589844 l 2,40,41
 512 1245 512 1245 667.416015625 1333.26464844 c 0,42,43
 695 1349 695 1349 724.514648438 1359.08789062 c 128,-1,44
 754 1369 754 1369 786.938476562 1374.49121094 c 0,45,46
 819 1380 819 1380 854.940429688 1379.43164062 c 0,47,48
 956 1379 956 1379 1048.02734375 1342.82714844 c 1,0,-1
EndSplineSet
EndChar

StartChar: uni06F5
Encoding: 1781 1781 91
GlifName: uni06F_5
Width: 1328
VWidth: 2952
GlyphClass: 2
Flags: W
LayerCount: 2
Fore
SplineSet
253.965819864 339.40838429 m 0,0,1
 253.965819864 287.220047157 253.965819864 287.220047157 269.932111897 249.034922648 c 128,-1,2
 285.89840393 210.849798139 285.89840393 210.849798139 318.619249256 189.379089761 c 128,-1,3
 351.340094583 167.908381383 351.340094583 167.908381383 398.082918025 167.844743775 c 0,4,5
 561.396417758 168.019689517 561.396417758 168.019689517 633.804634969 482.56255804 c 1,6,-1
 708.912076821 482.49883316 l 1,7,8
 769.112152436 163.990142778 769.112152436 163.990142778 939.234180081 164.079110117 c 0,9,10
 1005.75781061 164.028871773 1005.75781061 164.028871773 1039.87416937 211.513544936 c 128,-1,11
 1073.99052813 258.998218099 1073.99052813 258.998218099 1073.97877208 339.674056601 c 0,12,13
 1074.00083699 666.392394272 1074.00083699 666.392394272 650.25322392 1091.74341981 c 2,14,-1
 625.93443412 1116.15422912 l 1,15,-1
 605.103149393 1088.70703026 l 2,16,17
 429.87812844 857.83139973 429.87812844 857.83139973 341.921974152 671.540904958 c 128,-1,18
 253.965819864 485.250410187 253.965819864 485.250410187 253.965819864 339.40838429 c 0,0,1
383.446995866 41.9833985087 m 0,19,20
 259 42 259 42 198.88582431 113.30438782 c 0,21,22
 139 185 139 185 139.24218005 339.365868747 c 0,23,24
 139.000103515 672.857394156 139.000103515 672.857394156 517.87596931 1181.64676803 c 2,25,-1
 519.476555247 1183.7961821 l 1,26,-1
 535.486441598 1205.2957306 l 1,27,-1
 515.917272019 1223.61497318 l 1,28,-1
 513.959364589 1225.44782462 l 1,29,-1
 480.17572271 1257.07109326 l 1,30,-1
 566.215224938 1362.20899696 l 1,31,-1
 667.859001256 1265.78672349 l 1,32,33
 1190 752 1190 752 1189.44201868 349.298868699 c 0,34,35
 1189 109 1189 109 1052.69863176 57.8178532526 c 0,36,37
 1010 42 1010 42 954.318138828 41.9433581513 c 0,38,39
 755 42 755 42 671.08203125 304.532226562 c 5,40,41
 583 42 583 42 383.446995866 41.9833985087 c 0,19,20
EndSplineSet
EndChar

StartChar: uni06F6
Encoding: 1782 1782 92
GlifName: uni06F_6
Width: 1104
VWidth: 2952
GlyphClass: 2
Flags: W
LayerCount: 2
Fore
SplineSet
726.884268258 1237.16067194 m 1,0,1
 684.906850245 1240.11364275 684.906850245 1240.11364275 637.749481493 1240.46609276 c 0,2,3
 432.485838033 1239.96724545 432.485838033 1239.96724545 346.558760502 1143.15761166 c 0,4,5
 282.061290742 1070.45872639 282.061290742 1070.45872639 281.594574085 983.818121006 c 0,6,7
 281.829136258 859.51712582 281.829136258 859.51712582 387.69399303 799.105362879 c 0,8,9
 493.558849803 738.693599939 493.558849803 738.693599939 688.714027345 738.36430052 c 2,10,-1
 692.149707028 738.35850325 l 1,11,-1
 695.497742891 739.129596208 l 1,12,-1
 696.812196015 739.432330584 l 1,13,-1
 700.812557303 740.35366194 l 1,14,-1
 704.418356596 742.31579174 l 2,15,16
 782.496993694 784.803020824 782.496993694 784.803020824 843.564887443 816.256686009 c 0,17,18
 904.632781192 847.710351193 904.632781192 847.710351193 945.71392585 866.679437136 c 1,19,-1
 950.755257847 744.448459737 l 1,20,21
 529.971005865 544.964242119 529.971005865 544.964242119 301.349942168 8.89010986252 c 1,22,-1
 188.914418373 46.5468139832 l 1,23,24
 328.158754076 379.552096237 328.158754076 379.552096237 545.725847241 594.320836882 c 2,25,-1
 591.385166144 639.392884668 l 1,26,-1
 527.521564891 645.533188342 l 2,27,28
 336.742839358 663.876020355 336.742839358 663.876020355 246.811100799 748.439607413 c 0,29,30
 156.87936224 833.003194472 156.87936224 833.003194472 157.644317241 988.778285571 c 0,31,32
 157.974053804 1076.07422905 157.974053804 1076.07422905 193.3516539 1149.24221305 c 0,33,34
 301.57959896 1367.9080762 301.57959896 1367.9080762 605.858622147 1366.40859377 c 0,35,36
 670.607898916 1366.07815965 670.607898916 1366.07815965 744.318136699 1356.66695389 c 1,37,-1
 726.884268258 1237.16067194 l 1,0,1
EndSplineSet
EndChar

StartChar: uniFB8F
Encoding: 64399 64399 107
GlifName: uniF_B_8F_
Width: 1954
VWidth: 2952
GlyphClass: 2
Flags: W
AnchorPoint: "Anchor-10" 1170.88 1438.07 basechar 0
AnchorPoint: "Anchor-7" 750.268 -236.468 basechar 0
LayerCount: 2
Fore
SplineSet
860.911132812 30 m 2,0,1
 487.106360044 30 487.106360044 30 308.095760187 144.226795242 c 128,-1,2
 129.085160329 258.453590484 129.085160329 258.453590484 129.160135179 485.90762687 c 0,3,4
 129.025880014 599.182148055 129.025880014 599.182148055 169.55756449 703.17125834 c 1,5,-1
 273.586968028 657.974958347 l 1,6,7
 248.039790021 581.785291043 248.039790021 581.785291043 248.433937362 511.130829207 c 0,8,9
 249.298098086 330.5788845 249.298098086 330.5788845 406.528440656 242.286024281 c 128,-1,10
 563.758783225 153.993164062 563.758783225 153.993164062 860.911132812 153.993164062 c 2,11,-1
 1042.63230916 153.993164066 l 2,12,13
 1505.90997401 154.000471795 1505.90997401 154.000471795 1506.57393492 374.987666748 c 0,14,15
 1507.05672413 485.974926686 1507.05672413 485.974926686 1393.44770523 592.111802008 c 0,16,17
 1233.4740427 740.857363944 1233.4740427 740.857363944 1118.32601924 830.635191527 c 0,18,19
 1065.60709918 871.847312597 1065.60709918 871.847312597 1040.73588683 912.72536877 c 128,-1,20
 1015.86467447 953.603424943 1015.86467447 953.603424943 1015.76861769 994.466468658 c 0,21,22
 1015.83438737 1031.27834582 1015.83438737 1031.27834582 1028.28041215 1059.74122807 c 128,-1,23
 1040.72643692 1088.20411032 1040.72643692 1088.20411032 1067.52672066 1110.47298084 c 128,-1,24
 1094.32700439 1132.74185137 1094.32700439 1132.74185137 1136.61394062 1148.79974199 c 2,25,-1
 1789.22070312 1396.61831064 l 1,26,-1
 1789.22070312 1280.29333445 l 1,27,-1
 1135.9412576 1036.66856736 l 1,28,-1
 1087.5793464 1018.6331624 l 1,29,-1
 1127.18821659 985.538031506 l 2,30,31
 1387.28826159 768.211836747 1387.28826159 768.211836747 1506.62028373 639.261562806 c 0,32,33
 1582.79067956 557.142003105 1582.79067956 557.142003105 1629.65196973 424.843068754 c 0,34,35
 1652.88976841 359.395094672 1652.88976841 359.395094672 1684.27940925 309.196639123 c 128,-1,36
 1715.6690501 258.998183575 1715.6690501 258.998183575 1755.09268442 224.338815672 c 128,-1,37
 1794.51631875 189.679447769 1794.51631875 189.679447769 1842.52270726 171.836305915 c 128,-1,38
 1890.52909577 153.993164062 1890.52909577 153.993164062 1945.76367188 153.993164062 c 2,39,-1
 1948.87521117 153.993164062 l 1,40,41
 1952.17382812 137.90103611 1952.17382812 137.90103611 1952.17382812 107.174804688 c 2,42,-1
 1952.17388624 88.363742502 l 2,43,44
 1952.09723872 49.4267964998 1952.09723872 49.4267964998 1948.09320765 30 c 1,45,-1
 1945.65722656 30 l 2,46,47
 1843.9339496 30 1843.9339496 30 1763.51275539 70.7566778269 c 128,-1,48
 1683.09156117 111.513355654 1683.09156117 111.513355654 1620.87751971 194.734210364 c 2,49,-1
 1595.01545617 229.328700322 l 1,50,-1
 1571.62794512 193.015487947 l 2,51,52
 1466.63788017 30 1466.63788017 30 1043.46191406 30 c 2,53,-1
 860.911132812 30 l 2,0,1
EndSplineSet
EndChar

StartChar: uniFB9F
Encoding: 64415 64415 115
GlifName: uniF_B_9F_
Width: 1549
VWidth: 2952
GlyphClass: 2
Flags: W
AnchorPoint: "Anchor-10" 703.458 1366.61 basechar 0
AnchorPoint: "Anchor-7" 595.902 -800.086 basechar 0
LayerCount: 2
Fore
SplineSet
1339.92058793 56.249711118 m 2,0,1
 1339.48362716 -9.32362791638 1339.48362716 -9.32362791638 1323.76335748 -74.3114159178 c 128,-1,2
 1308.0430878 -139.299203919 1308.0430878 -139.299203919 1276.8942681 -203.855384949 c 0,3,4
 1136.31939126 -489.988519854 1136.31939126 -489.988519854 707.316429839 -489.72461248 c 0,5,6
 414.523942606 -489.857816345 414.523942606 -489.857816345 273.197780265 -358.980401214 c 128,-1,7
 131.871617923 -228.102986083 131.871617923 -228.102986083 131.753292248 41.0080322825 c 0,8,9
 131.978371755 228.012401018 131.978371755 228.012401018 219.533009943 450.873820886 c 1,10,-1
 323.043226785 408.209692945 l 1,11,12
 248.009157495 207.223860375 248.009157495 207.223860375 248.268561954 42.8812312374 c 0,13,14
 248.126032823 -161.90514269 248.126032823 -161.90514269 367.435348172 -267.501227035 c 128,-1,15
 486.744663521 -373.097311379 486.744663521 -373.097311379 714.41347191 -373.203454252 c 0,16,17
 961.667311174 -373.097458485 961.667311174 -373.097458485 1090.70269239 -252.475023193 c 128,-1,18
 1219.73807361 -131.852587902 1219.73807361 -131.852587902 1220.55484497 101.861108175 c 0,19,20
 1220.9788821 277.230008688 1220.9788821 277.230008688 1141.69527933 454.40181101 c 1,21,-1
 1253.92854187 493.613777303 l 1,22,-1
 1317.71701386 294.870869906 l 2,23,24
 1328.99513388 259.905029561 1328.99513388 259.905029561 1349.44469898 233.203785264 c 128,-1,25
 1369.89426409 206.502540968 1369.89426409 206.502540968 1398.16102101 189.080407597 c 128,-1,26
 1426.42777793 171.658274225 1426.42777793 171.658274225 1461.82270583 162.828648832 c 128,-1,27
 1497.21763372 153.999023438 1497.21763372 153.999023438 1539.02050781 153.999023438 c 2,28,-1
 1545.23038361 153.999023438 l 1,29,30
 1548.21875 139.097012811 1548.21875 139.097012811 1548.21875 111.889648438 c 2,31,-1
 1548.21884203 88.38583401 l 2,32,33
 1548.12236963 49.4389782946 1548.12236963 49.4389782946 1544.11442637 30 c 5,34,35
 1411 30 1411 30 1340.38155631 125.425797309 c 1,36,-1
 1339.92058793 56.249711118 l 2,0,1
EndSplineSet
EndChar

StartChar: uniFBE8
Encoding: 64488 64488 118
GlifName: uniF_B_E_8
Width: 646
VWidth: 2952
GlyphClass: 2
Flags: W
AnchorPoint: "Anchor-10" 311.384 1353 basechar 0
AnchorPoint: "Anchor-7" 303.422 -223.625 basechar 0
LayerCount: 2
Fore
SplineSet
68.673828125 30 m 2,0,-1
 -6.9384765625 30 l 2,1,2
 -15.9167709632 30 -15.9167709632 30 -21.0628320443 32.8211581577 c 128,-1,3
 -26.2088931254 35.6423163154 -26.2088931254 35.6423163154 -30.4936067189 49.1514858278 c 128,-1,4
 -34.7783203125 62.6606553402 -34.7783203125 62.6606553402 -34.7783203125 88.3134765625 c 2,5,-1
 -34.7784452104 107.263324881 l 2,6,7
 -34.8656445262 137.482305413 -34.8656445262 137.482305413 -28.6211041183 145.737734737 c 128,-1,8
 -22.3765637104 153.993164062 -22.3765637104 153.993164062 -6.9384765625 153.993164062 c 2,9,-1
 68.685849529 153.993164089 l 2,10,11
 236.933448947 154.000338259 236.933448947 154.000338259 300.517734614 190.15537645 c 0,12,13
 400.975831412 248.754593566 400.975831412 248.754593566 401.221627605 425.090081283 c 0,14,15
 401.0159673 535.458997251 401.0159673 535.458997251 370.476546804 667.791168615 c 1,16,-1
 476.905042722 694.569885674 l 1,17,18
 516.026752664 557.489512384 516.026752664 557.489512384 516.223645276 428.355471973 c 0,19,20
 516.01363747 197.974156676 516.01363747 197.974156676 387.412575393 101.135603623 c 0,21,22
 357.510144688 78.3917146675 357.510144688 78.3917146675 312.975221676 62.6953273232 c 128,-1,23
 268.440298664 46.9989399788 268.440298664 46.9989399788 206.588678552 38.4994699894 c 128,-1,24
 144.737058439 30 144.737058439 30 68.673828125 30 c 2,0,-1
EndSplineSet
EndChar

StartChar: uniFBE9
Encoding: 64489 64489 119
GlifName: uniF_B_E_9
Width: 717
VWidth: 2952
GlyphClass: 2
Flags: W
AnchorPoint: "Anchor-10" 315.665 1297.09 basechar 0
AnchorPoint: "Anchor-7" 350.537 -177.742 basechar 0
LayerCount: 2
Fore
SplineSet
714.731445312 88.3408203125 m 2,0,1
 714.731445312 47.8039550244 714.731445312 47.8039550244 710.73750178 30.0163821106 c 1,2,3
 529 32 529 32 446.084960938 188.395507812 c 5,4,5
 334 30 334 30 95.759765625 30 c 2,6,-1
 -8.1171875 30 l 2,7,8
 -17 30 -17 30 -21.3867601815 32.6942348813 c 0,9,10
 -26 35 -26 35 -30.5216971941 48.9727282566 c 0,11,12
 -34.778148937 62.3051016679 -34.778148937 62.3051016679 -34.7783203125 88.3134765625 c 2,13,-1
 -34.7784452421 107.273101513 l 2,14,15
 -35 129 -35 129 -31.3123090796 138.916021198 c 0,16,17
 -28 149 -28 149 -22.8899454461 151.716539737 c 0,18,19
 -18.0146389104 153.993164061 -18.0146389104 153.993164061 -8.1171875 153.993164062 c 2,20,-1
 91.0135831454 153.993164075 l 2,21,22
 347 154 347 154 376.050980467 310.728549221 c 0,23,24
 383 348 383 348 383.293178487 399.261481353 c 0,25,26
 382.999455493 450.094234345 382.999455493 450.094234345 379.937465817 495.690757251 c 2,27,-1
 376.359619243 548.968978451 l 1,28,-1
 481.575364849 561.320896252 l 1,29,-1
 495.467179965 361.506922896 l 2,30,31
 499 313 499 313 514.845671842 274.075226895 c 0,32,33
 531 236 531 236 558.071798585 209.3774179 c 0,34,35
 585 183 585 183 623.957735261 168.994254894 c 128,-1,36
 663 155 663 155 710.882005524 154.034514395 c 1,37,38
 712 149 712 149 712.521928339 143.834404587 c 0,39,40
 713 138 713 138 713.725891185 131.347203732 c 0,41,42
 714 124 714 124 714.477495741 116.18149401 c 0,43,44
 714.731445312 112.205092176 714.731445312 112.205092176 714.731445312 98.322265625 c 2,45,-1
 714.731445312 88.3408203125 l 2,0,1
EndSplineSet
EndChar

StartChar: uniFE73
Encoding: 65139 65139 127
GlifName: uniF_E_73
Width: 672
VWidth: 2952
GlyphClass: 2
Flags: W
AnchorPoint: "Anchor-10" 342.943 1012.47 basechar 0
AnchorPoint: "Anchor-7" 416.943 -206.304 basechar 0
LayerCount: 2
Fore
SplineSet
270.35054713 422.69140625 m 1,0,1
 271.223700668 333.677787635 271.223700668 333.677787635 312.909540256 273.293597786 c 0,2,3
 354.595379845 212.909407937 354.595379845 212.909407937 431.416642402 183.626090687 c 0,4,5
 508.237904959 154.342773438 508.237904959 154.342773438 618.00390625 154.342773438 c 2,6,-1
 658.674804688 154.342773438 l 1,7,-1
 658.674804688 31.5537109375 l 1,8,-1
 608.033695896 31.5536989132 l 2,9,10
 369.559085364 31.7672129398 369.559085364 31.7672129398 255.475615278 128.298939499 c 0,11,12
 141.392145192 224.830666058 141.392145192 224.830666058 139.569553294 422.69140625 c 1,13,-1
 270.35054713 422.69140625 l 1,0,1
EndSplineSet
EndChar

StartChar: uniFE8E
Encoding: 65166 65166 153
GlifName: uniF_E_8E_
Width: 531
VWidth: 2952
GlyphClass: 2
Flags: W
AnchorPoint: "Anchor-10" 234.697 1549.11 basechar 0
AnchorPoint: "Anchor-7" 296.078 -239.903 basechar 0
LayerCount: 2
Fore
SplineSet
528.618164062 88.0758493082 m 2,0,1
 529.22791222 49.1079864887 529.22791222 49.1079864887 525.312919699 30 c 1,2,-1
 517.658203125 30 l 2,3,4
 346.297390081 30 346.297390081 30 263.290296603 128.125738934 c 0,5,6
 180.283203125 226.251477868 180.283203125 226.251477868 180.283203125 434.395507812 c 2,7,-1
 180.283203125 1378.171875 l 1,8,-1
 293.598632812 1378.171875 l 1,9,-1
 293.598670726 436.402500065 l 2,10,11
 293.812713183 301.771357337 293.812713183 301.771357337 351.471519015 227.8822607 c 0,12,13
 409.130324847 153.993164062 409.130324847 153.993164062 520.712890625 153.993164062 c 2,14,-1
 525.318970555 153.993164062 l 1,15,16
 526.860706228 146.472986915 526.860706228 146.472986915 527.739435145 134.587240157 c 0,17,18
 528.618164062 122.7014934 528.618164062 122.7014934 528.618164062 107.174804688 c 2,19,-1
 528.618164062 88.0758493082 l 2,0,1
EndSplineSet
EndChar

StartChar: uniFEA2
Encoding: 65186 65186 173
GlifName: uniF_E_A_2
Width: 1386
VWidth: 2952
GlyphClass: 2
Flags: W
AnchorPoint: "Anchor-7" 580.833 -810.619 basechar 0
AnchorPoint: "Anchor-10" 649.478 1262.07 basechar 0
LayerCount: 2
Fore
SplineSet
1225.75686146 633.03122351 m 1,0,-1
 1216.91300809 514.721255577 l 1,1,2
 1126.94884561 507.217231619 1126.94884561 507.217231619 1045.6900626 496.077476594 c 2,3,-1
 1019.76464844 492.523365247 l 1,4,-1
 1019.76464844 466.35546875 l 1,5,-1
 1019.76465942 458.111056802 l 2,6,7
 1019.8915339 309.788994671 1019.8915339 309.788994671 1099.94995397 231.665979744 c 0,8,9
 1180.00837403 153.542964818 1180.00837403 153.542964818 1330.72337166 154.06170113 c 2,10,-1
 1380.95135643 154.234577619 l 1,11,12
 1383.97851562 139.506282092 1383.97851562 139.506282092 1383.97851562 111.889648438 c 2,13,-1
 1383.97851651 88.3042250555 l 2,14,15
 1383.98807778 49.0026542024 1383.98807778 49.0026542024 1379.99374206 30 c 1,16,-1
 1331.49511719 30 l 2,17,18
 1124.72578588 30 1124.72578588 30 1025.71635865 126.442503844 c 0,19,20
 926.706931426 222.885007687 926.706931426 222.885007687 926.192284665 424.078691878 c 2,21,-1
 926.162011228 435.913652815 l 1,22,-1
 926.063898359 474.269455178 l 1,23,-1
 888.861152227 464.934955658 l 2,24,25
 581.646108989 387.851971962 581.646108989 387.851971962 423.381600078 239.038947548 c 0,26,27
 265.117091168 90.2259231332 265.117091168 90.2259231332 265.249030281 -129.282471948 c 0,28,29
 265.114686645 -328.187971229 265.114686645 -328.187971229 409.102116556 -428.041323872 c 0,30,31
 553.089546468 -527.894676515 553.089546468 -527.894676515 826.356693338 -527.7831881 c 0,32,33
 1030.8352429 -527.987839958 1030.8352429 -527.987839958 1221.37305436 -445.256601007 c 1,34,-1
 1245.30586364 -563.944538806 l 1,35,36
 1151.75541898 -606.090719728 1151.75541898 -606.090719728 1043.77324254 -627.112253159 c 0,37,38
 935.791066107 -648.133786589 935.791066107 -648.133786589 811.54769814 -648.249029696 c 0,39,40
 439.112131305 -648.008463231 439.112131305 -648.008463231 276.011845807 -471.923347364 c 0,41,42
 154.998898211 -341.241896187 154.998898211 -341.241896187 154.980468733 -144.545925975 c 0,43,44
 154.989862203 136.107473795 154.989862203 136.107473795 326.022171958 313.437797585 c 0,45,46
 497.054481713 490.768121376 497.054481713 490.768121376 847.495496549 568.48799877 c 2,47,-1
 857.495496549 570.705772207 l 1,48,-1
 954.6464056 592.251642755 l 1,49,-1
 861.774868768 627.992394196 l 2,50,51
 858.945258631 629.08134347 858.945258631 629.08134347 855.330557351 630.486854509 c 0,52,53
 851.715856071 631.892365547 851.715856071 631.892365547 847.31677984 633.614200427 c 0,54,55
 842.917703609 635.336035306 842.917703609 635.336035306 837.747918518 637.368790104 c 0,56,57
 832.578133426 639.401544902 832.578133426 639.401544902 826.625229266 641.750202408 c 0,58,59
 820.672325105 644.098859915 820.672325105 644.098859915 813.96396946 646.752447445 c 0,60,61
 807.255613815 649.406034975 807.255613815 649.406034975 799.765394982 652.375104081 c 0,62,63
 792.275176149 655.344173188 792.275176149 655.344173188 784.044763208 658.612182424 c 0,64,65
 775.814350266 661.88019166 775.814350266 661.88019166 766.803330018 665.46326134 c 0,66,67
 757.792309769 669.04633102 757.792309769 669.04633102 748.055477695 672.922698983 c 0,68,69
 547.78161932 754.025211432 547.78161932 754.025211432 469.528023806 753.687752923 c 0,70,71
 341.853429577 754.042160423 341.853429577 754.042160423 259.94175455 648.533895416 c 2,72,-1
 246.931496747 631.77572599 l 1,73,-1
 144.347569103 682.420814588 l 1,74,75
 262.332580992 875.987959021 262.332580992 875.987959021 471.82764378 875.841820444 c 0,76,77
 530.470087356 875.915328254 530.470087356 875.915328254 603.285480478 855.313628937 c 0,78,79
 676.1008736 834.71192962 676.1008736 834.71192962 761.850380812 793.060452191 c 0,80,81
 1052.59569329 651.391989715 1052.59569329 651.391989715 1225.75686146 633.03122351 c 1,0,-1
EndSplineSet
EndChar

StartChar: uniFEA3
Encoding: 65187 65187 174
GlifName: uniF_E_A_3
Width: 1337
VWidth: 2952
GlyphClass: 2
Flags: W
AnchorPoint: "Anchor-10" 565.825 1180.07 basechar 0
AnchorPoint: "Anchor-7" 513.524 -234.745 basechar 0
LayerCount: 2
Fore
SplineSet
-6.9384765625 30 m 2,0,1
 -15.9167709632 30 -15.9167709632 30 -21.0628320443 32.8211581577 c 128,-1,2
 -26.2088931254 35.6423163154 -26.2088931254 35.6423163154 -30.4936067189 49.1514858278 c 128,-1,3
 -34.7783203125 62.6606553402 -34.7783203125 62.6606553402 -34.7783203125 88.3134765625 c 2,4,-1
 -34.7784452421 107.273101513 l 2,5,6
 -34.8656489466 137.489761357 -34.8656489466 137.489761357 -28.6213981088 145.744392398 c 128,-1,7
 -22.3771472709 153.999023438 -22.3771472709 153.999023438 -6.9384765625 153.999023438 c 2,8,-1
 52.5430574056 153.999023438 l 2,9,10
 390.492778968 154.000022143 390.492778968 154.000022143 882.763787191 408.180617204 c 2,11,-1
 956.590935629 446.300734392 l 1,12,-1
 1025.02659196 481.636993401 l 1,13,-1
 950.719837194 501.90017317 l 2,14,15
 926.614128799 508.473711528 926.614128799 508.473711528 738.099917332 584.878920296 c 0,16,17
 536.747927892 666.028227969 536.747927892 666.028227969 460.291964734 665.657446601 c 0,18,19
 447.614798878 665.695793064 447.614798878 665.695793064 435.279406925 664.637550549 c 128,-1,20
 422.944014972 663.579308033 422.944014972 663.579308033 411.051803011 661.4429838 c 128,-1,21
 399.15959105 659.306659566 399.15959105 659.306659566 387.650933392 656.095238432 c 128,-1,22
 376.142275733 652.883817299 376.142275733 652.883817299 365.106989314 648.622671792 c 128,-1,23
 354.071702895 644.361526286 354.071702895 644.361526286 343.462523788 639.046318274 c 128,-1,24
 332.853344682 633.731110262 332.853344682 633.731110262 322.747728061 627.394535222 c 128,-1,25
 312.642111441 621.057960182 312.642111441 621.057960182 303.005155144 613.688357031 c 128,-1,26
 293.368198847 606.31875388 293.368198847 606.31875388 284.264996281 597.956141047 c 128,-1,27
 275.161793716 589.593528213 275.161793716 589.593528213 266.569804486 580.218921663 c 128,-1,28
 257.977815255 570.844315113 257.977815255 570.844315113 249.950543613 560.504598541 c 2,29,-1
 236.94028581 543.746429114 l 1,30,-1
 134.355664269 594.391860286 l 1,31,32
 251.406505522 787.062085908 251.406505522 787.062085908 461.377415544 787.812532867 c 0,33,34
 581.118737597 787.989781079 581.118737597 787.989781079 751.860917302 705.030303935 c 0,35,36
 897.801267977 633.931158734 897.801267977 633.931158734 1014.11465837 593.820254536 c 128,-1,37
 1130.42804876 553.709350338 1130.42804876 553.709350338 1217.62266327 544.814092697 c 1,38,-1
 1216.36446011 425.094950993 l 1,39,40
 1090.2966482 401.474287464 1090.2966482 401.474287464 807.684593092 252.685407992 c 0,41,42
 596.144146348 141.087318104 596.144146348 141.087318104 404.341878652 85.5436590519 c 128,-1,43
 212.539610955 30 212.539610955 30 40.767578125 30 c 2,44,-1
 -6.9384765625 30 l 2,0,1
EndSplineSet
EndChar

StartChar: uniFEA4
Encoding: 65188 65188 175
GlifName: uniF_E_A_4
Width: 1351
VWidth: 2952
GlyphClass: 2
Flags: W
AnchorPoint: "Anchor-10" 565.825 1180.07 basechar 0
AnchorPoint: "Anchor-7" 513.524 -234.745 basechar 0
LayerCount: 2
Fore
SplineSet
950.202166754 502.036389992 m 2,0,1
 941.738557896 504.182904669 941.738557896 504.182904669 884.495891174 526.419954602 c 128,-1,2
 827.253224452 548.657004535 827.253224452 548.657004535 738.099917332 584.878920296 c 0,3,4
 536.747927892 666.028227969 536.747927892 666.028227969 460.291964734 665.657446601 c 0,5,6
 447.614798878 665.695793064 447.614798878 665.695793064 435.279406925 664.637550549 c 128,-1,7
 422.944014972 663.579308033 422.944014972 663.579308033 411.051803011 661.4429838 c 128,-1,8
 399.15959105 659.306659566 399.15959105 659.306659566 387.650933392 656.095238432 c 128,-1,9
 376.142275733 652.883817299 376.142275733 652.883817299 365.106989314 648.622671792 c 128,-1,10
 354.071702895 644.361526286 354.071702895 644.361526286 343.462523788 639.046318274 c 128,-1,11
 332.853344682 633.731110262 332.853344682 633.731110262 322.747728061 627.394535222 c 128,-1,12
 312.642111441 621.057960182 312.642111441 621.057960182 303.005155144 613.688357031 c 128,-1,13
 293.368198847 606.31875388 293.368198847 606.31875388 284.264996281 597.956141047 c 128,-1,14
 275.161793716 589.593528213 275.161793716 589.593528213 266.569804486 580.218921663 c 128,-1,15
 257.977815255 570.844315113 257.977815255 570.844315113 249.950543613 560.504598541 c 2,16,-1
 236.94028581 543.746429114 l 1,17,-1
 134.355664269 594.391860286 l 1,18,19
 251.406505522 787.062085908 251.406505522 787.062085908 461.377415544 787.812532867 c 0,20,21
 581.118737597 787.989781079 581.118737597 787.989781079 751.860917302 705.030303935 c 0,22,23
 897.801267977 633.931158734 897.801267977 633.931158734 1014.11465837 593.820254536 c 128,-1,24
 1130.42804876 553.709350338 1130.42804876 553.709350338 1217.62266327 544.814092697 c 1,25,-1
 1216.37014818 425.636176299 l 1,26,27
 1135.94170434 412.453475736 1135.94170434 412.453475736 1025.4979332 356.789815081 c 2,28,-1
 1008.48962981 348.217630173 l 1,29,-1
 1009.01125281 329.178390488 l 2,30,31
 1010.26811683 283.302853935 1010.26811683 283.302853935 1032.59181631 249.373157851 c 128,-1,32
 1054.91551579 215.443461768 1054.91551579 215.443461768 1095.90338136 194.797499396 c 128,-1,33
 1136.89124692 174.151537024 1136.89124692 174.151537024 1191.77105346 164.215416949 c 128,-1,34
 1246.65085999 154.279296875 1246.65085999 154.279296875 1316.61132812 154.279296875 c 2,35,-1
 1347.46607005 154.279296875 l 1,36,37
 1350.50585938 139.505731017 1350.50585938 139.505731017 1350.50585938 111.889648438 c 2,38,-1
 1350.50585938 88.2432325471 l 2,39,40
 1350.72582472 48.9246444022 1350.72582472 48.9246444022 1346.75662014 30 c 1,41,-1
 1301.09667969 30 l 2,42,43
 1126.25006192 30 1126.25006192 30 1037.2695129 90.170268413 c 128,-1,44
 948.288963892 150.340536826 948.288963892 150.340536826 933.789047736 271.964513113 c 2,45,-1
 928.748591446 314.243401469 l 1,46,-1
 890.631495056 295.269799727 l 2,47,48
 882.761392206 291.352287344 882.761392206 291.352287344 874.720124602 287.297679247 c 128,-1,49
 866.678856997 283.24307115 866.678856997 283.24307115 858.470920715 279.053689893 c 128,-1,50
 850.262984432 274.864308636 850.262984432 274.864308636 841.882390073 270.537137263 c 128,-1,51
 833.501795714 266.20996589 833.501795714 266.20996589 824.954111973 261.747941431 c 128,-1,52
 816.406428231 257.285916971 816.406428231 257.285916971 807.684593092 252.685407992 c 0,53,54
 596.144146348 141.087318104 596.144146348 141.087318104 404.341878652 85.5436590519 c 128,-1,55
 212.539610955 30 212.539610955 30 40.767578125 30 c 2,56,-1
 -6.9384765625 30 l 2,57,58
 -15.9167709632 30 -15.9167709632 30 -21.0628320443 32.8211581577 c 128,-1,59
 -26.2088931254 35.6423163154 -26.2088931254 35.6423163154 -30.4936067189 49.1514858278 c 128,-1,60
 -34.7783203125 62.6606553402 -34.7783203125 62.6606553402 -34.7783203125 88.3134765625 c 2,61,-1
 -34.7784452421 107.273101513 l 2,62,63
 -34.8656489466 137.489761357 -34.8656489466 137.489761357 -28.6213981088 145.744392398 c 128,-1,64
 -22.3771472709 153.999023438 -22.3771472709 153.999023438 -6.9384765625 153.999023438 c 2,65,-1
 52.5430574056 153.999023438 l 2,66,67
 390.492778968 154.000022143 390.492778968 154.000022143 882.763787191 408.180617204 c 2,68,-1
 956.590935629 446.300734392 l 1,69,-1
 1026.87429108 482.591039555 l 1,70,-1
 950.202166754 502.036389992 l 2,0,1
EndSplineSet
EndChar

StartChar: uniFEAA
Encoding: 65194 65194 181
GlifName: uniF_E_A_A_
Width: 1101
VWidth: 2952
GlyphClass: 2
Flags: W
AnchorPoint: "Anchor-7" 437.24 -239.316 basechar 0
AnchorPoint: "Anchor-10" 562.848 1245.53 basechar 0
LayerCount: 2
Fore
SplineSet
387.571045996 30.8193478609 m 0,0,1
 328.004821798 30.8999222145 328.004821798 30.8999222145 263.647483247 36.9006501928 c 128,-1,2
 199.290144696 42.901378171 199.290144696 42.901378171 132.096679688 54.595743041 c 1,3,-1
 132.096679688 177.842326415 l 1,4,5
 258.38213479 155.007420939 258.38213479 155.007420939 392.974935279 155.068360081 c 0,6,7
 737.981434109 154.993493289 737.981434109 154.993493289 738.088837281 329.105836909 c 0,8,9
 737.990902743 398.463937221 737.990902743 398.463937221 644.479856977 620.071378885 c 2,10,-1
 528.942672597 893.877533417 l 1,11,-1
 638.335559053 944.139094821 l 1,12,-1
 824.65339907 470.856621045 l 2,13,14
 886.084075563 315.048102498 886.084075563 315.048102498 949.830604267 234.52063328 c 128,-1,15
 1013.57713297 153.993164062 1013.57713297 153.993164062 1088.87988281 153.993164062 c 2,16,-1
 1095.29863935 153.993164062 l 1,17,18
 1096.8402549 146.473209953 1096.8402549 146.473209953 1097.71895557 134.587275116 c 128,-1,19
 1098.59765625 122.701340279 1098.59765625 122.701340279 1098.59765625 107.174804688 c 2,20,-1
 1098.59765625 88.1372299208 l 2,21,22
 1098.79073543 72.1482115079 1098.79073543 72.1482115079 1098.18202996 61.1161243531 c 128,-1,23
 1097.57332448 50.0840371983 1097.57332448 50.0840371983 1096.22486975 42.8259452848 c 0,24,25
 1095.15605006 35.3004245004 1095.15605006 35.3004245004 1093.9989552 30 c 1,26,-1
 1088.53222656 30 l 2,27,28
 939.13359815 30 939.13359815 30 853.080273805 175.874631947 c 2,29,-1
 831.382197863 212.656463051 l 1,30,-1
 804.138774791 179.770212151 l 2,31,32
 680.888617308 30.9917127775 680.888617308 30.9917127775 387.571045996 30.8193478609 c 0,0,1
EndSplineSet
EndChar

StartChar: uniFEAE
Encoding: 65198 65198 185
GlifName: uniF_E_A_E_
Width: 910
VWidth: 2144
GlyphClass: 2
Flags: W
AnchorPoint: "Anchor-7" 322.969 -667.998 basechar 0
AnchorPoint: "Anchor-10" 507.256 926.2 basechar 0
LayerCount: 2
Fore
SplineSet
624.26860997 492.83451698 m 1,0,-1
 672.131791966 330.176072036 l 2,1,2
 696.952523369 245.045303686 696.952523369 245.045303686 753.016553992 199.522163562 c 128,-1,3
 809.080584616 153.999023438 809.080584616 153.999023438 891.31640625 153.999023438 c 2,4,-1
 905.682907377 153.999023438 l 1,5,6
 908.638671875 139.33375608 908.638671875 139.33375608 908.638671875 112.322265625 c 2,7,-1
 908.638671875 88.1475405303 l 2,8,9
 908.718357749 68.6942804469 908.718357749 68.6942804469 907.665371689 53.7509490644 c 128,-1,10
 906.612385629 38.8076176818 906.612385629 38.8076176818 904.835572647 30 c 1,11,-1
 901.80078125 30 l 6,12,13
 765 30 765 30 699.454331971 131.391324464 c 5,14,-1
 690.521439774 56.8006744324 l 2,15,16
 662.779003958 -174.85177088 662.779003958 -174.85177088 505.22961243 -307.594357054 c 128,-1,17
 347.680220902 -440.336943229 347.680220902 -440.336943229 52.1511067937 -477.315262064 c 1,18,-1
 24.2902151804 -365.870417295 l 1,19,20
 299.450651503 -331.544574816 299.450651503 -331.544574816 441.542480472 -200.881784731 c 128,-1,21
 583.634309442 -70.2189946456 583.634309442 -70.2189946456 583.249958142 153.392887888 c 0,22,23
 583.012138487 295.758608109 583.012138487 295.758608109 514.755984986 454.485643768 c 1,24,-1
 624.26860997 492.83451698 l 1,0,-1
EndSplineSet
PairPos2: "'kern' Horizontal Kerning lookup 15-2" uniFBFE dx=60 dy=0 dh=60 dv=0 dx=0 dy=0 dh=0 dv=0
PairPos2: "'kern' Horizontal Kerning lookup 15-1" uniFEE7 dx=-178 dy=0 dh=-178 dv=0 dx=0 dy=0 dh=0 dv=0
PairPos2: "'kern' Horizontal Kerning lookup 15-2" uniFB90 dx=-226 dy=0 dh=-226 dv=0 dx=0 dy=0 dh=0 dv=0
PairPos2: "'kern' Horizontal Kerning lookup 15-2" uniFB8E dx=-226 dy=0 dh=-226 dv=0 dx=0 dy=0 dh=0 dv=0
PairPos2: "'kern' Horizontal Kerning lookup 15-2" uni06A9 dx=-226 dy=0 dh=-226 dv=0 dx=0 dy=0 dh=0 dv=0
PairPos2: "'kern' Horizontal Kerning lookup 15-2" uni064A dx=-60 dy=0 dh=-60 dv=0 dx=0 dy=0 dh=0 dv=0
PairPos2: "'kern' Horizontal Kerning lookup 15-2" afii57414 dx=-60 dy=0 dh=-60 dv=0 dx=0 dy=0 dh=0 dv=0
PairPos2: "'kern' Horizontal Kerning lookup 15-2" uni0649 dx=-60 dy=0 dh=-60 dv=0 dx=0 dy=0 dh=0 dv=0
PairPos2: "'kern' Horizontal Kerning lookup 15-2" uniFEEB dx=-178 dy=0 dh=-178 dv=0 dx=0 dy=0 dh=0 dv=0
PairPos2: "'kern' Horizontal Kerning lookup 15-2" uni0647 dx=-178 dy=0 dh=-178 dv=0 dx=0 dy=0 dh=0 dv=0
PairPos2: "'kern' Horizontal Kerning lookup 15-2" uni0646 dx=-60 dy=0 dh=-60 dv=0 dx=0 dy=0 dh=0 dv=0
PairPos2: "'kern' Horizontal Kerning lookup 15-2" uniFEE3 dx=-178 dy=0 dh=-178 dv=0 dx=0 dy=0 dh=0 dv=0
PairPos2: "'kern' Horizontal Kerning lookup 15-2" uni0645 dx=-178 dy=0 dh=-178 dv=0 dx=0 dy=0 dh=0 dv=0
PairPos2: "'kern' Horizontal Kerning lookup 15-2" uniFEFB dx=-143 dy=0 dh=-143 dv=0 dx=0 dy=0 dh=0 dv=0
PairPos2: "'kern' Horizontal Kerning lookup 15-2" uniFEDF dx=-143 dy=0 dh=-143 dv=0 dx=0 dy=0 dh=0 dv=0
PairPos2: "'kern' Horizontal Kerning lookup 15-2" uni0644 dx=-60 dy=0 dh=-60 dv=0 dx=0 dy=0 dh=0 dv=0
PairPos2: "'kern' Horizontal Kerning lookup 15-2" uniFEDB dx=-226 dy=0 dh=-226 dv=0 dx=0 dy=0 dh=0 dv=0
PairPos2: "'kern' Horizontal Kerning lookup 15-2" uni0643 dx=-143 dy=0 dh=-143 dv=0 dx=0 dy=0 dh=0 dv=0
PairPos2: "'kern' Horizontal Kerning lookup 15-2" uniFED7 dx=-178 dy=0 dh=-178 dv=0 dx=0 dy=0 dh=0 dv=0
PairPos2: "'kern' Horizontal Kerning lookup 15-2" uni0642 dx=-60 dy=0 dh=-60 dv=0 dx=0 dy=0 dh=0 dv=0
PairPos2: "'kern' Horizontal Kerning lookup 15-2" uniFED3 dx=-178 dy=0 dh=-178 dv=0 dx=0 dy=0 dh=0 dv=0
PairPos2: "'kern' Horizontal Kerning lookup 15-2" uni0641 dx=-178 dy=0 dh=-178 dv=0 dx=0 dy=0 dh=0 dv=0
PairPos2: "'kern' Horizontal Kerning lookup 15-2" uniFECF dx=-178 dy=0 dh=-178 dv=0 dx=0 dy=0 dh=0 dv=0
PairPos2: "'kern' Horizontal Kerning lookup 15-2" uniFECB dx=-178 dy=0 dh=-178 dv=0 dx=0 dy=0 dh=0 dv=0
PairPos2: "'kern' Horizontal Kerning lookup 15-2" uniFEC7 dx=-178 dy=0 dh=-178 dv=0 dx=0 dy=0 dh=0 dv=0
PairPos2: "'kern' Horizontal Kerning lookup 15-2" uni0638 dx=-178 dy=0 dh=-178 dv=0 dx=0 dy=0 dh=0 dv=0
PairPos2: "'kern' Horizontal Kerning lookup 15-2" uniFEC3 dx=-178 dy=0 dh=-178 dv=0 dx=0 dy=0 dh=0 dv=0
PairPos2: "'kern' Horizontal Kerning lookup 15-2" uni0637 dx=-178 dy=0 dh=-178 dv=0 dx=0 dy=0 dh=0 dv=0
PairPos2: "'kern' Horizontal Kerning lookup 15-2" uniFEBF dx=-178 dy=0 dh=-178 dv=0 dx=0 dy=0 dh=0 dv=0
PairPos2: "'kern' Horizontal Kerning lookup 15-2" uni0636 dx=-178 dy=0 dh=-178 dv=0 dx=0 dy=0 dh=0 dv=0
PairPos2: "'kern' Horizontal Kerning lookup 15-2" uniFEBB dx=-178 dy=0 dh=-178 dv=0 dx=0 dy=0 dh=0 dv=0
PairPos2: "'kern' Horizontal Kerning lookup 15-2" uni0635 dx=-178 dy=0 dh=-178 dv=0 dx=0 dy=0 dh=0 dv=0
PairPos2: "'kern' Horizontal Kerning lookup 15-2" uniFEB7 dx=-178 dy=0 dh=-178 dv=0 dx=0 dy=0 dh=0 dv=0
PairPos2: "'kern' Horizontal Kerning lookup 15-2" uni0634 dx=-178 dy=0 dh=-178 dv=0 dx=0 dy=0 dh=0 dv=0
PairPos2: "'kern' Horizontal Kerning lookup 15-2" uniFEB3 dx=-178 dy=0 dh=-178 dv=0 dx=0 dy=0 dh=0 dv=0
PairPos2: "'kern' Horizontal Kerning lookup 15-2" uni0633 dx=-178 dy=0 dh=-178 dv=0 dx=0 dy=0 dh=0 dv=0
PairPos2: "'kern' Horizontal Kerning lookup 15-2" uni0630 dx=-178 dy=0 dh=-178 dv=0 dx=0 dy=0 dh=0 dv=0
PairPos2: "'kern' Horizontal Kerning lookup 15-2" uni062F dx=-178 dy=0 dh=-178 dv=0 dx=0 dy=0 dh=0 dv=0
PairPos2: "'kern' Horizontal Kerning lookup 15-2" uniFEA7 dx=-178 dy=0 dh=-178 dv=0 dx=0 dy=0 dh=0 dv=0
PairPos2: "'kern' Horizontal Kerning lookup 15-2" uniFEA3 dx=-178 dy=0 dh=-178 dv=0 dx=0 dy=0 dh=0 dv=0
PairPos2: "'kern' Horizontal Kerning lookup 15-2" uniFE9F dx=-178 dy=0 dh=-178 dv=0 dx=0 dy=0 dh=0 dv=0
PairPos2: "'kern' Horizontal Kerning lookup 15-2" uniFE9B dx=-178 dy=0 dh=-178 dv=0 dx=0 dy=0 dh=0 dv=0
PairPos2: "'kern' Horizontal Kerning lookup 15-2" uni062B dx=-178 dy=0 dh=-178 dv=0 dx=0 dy=0 dh=0 dv=0
PairPos2: "'kern' Horizontal Kerning lookup 15-2" uniFE97 dx=-178 dy=0 dh=-178 dv=0 dx=0 dy=0 dh=0 dv=0
PairPos2: "'kern' Horizontal Kerning lookup 15-2" uni062A dx=-178 dy=0 dh=-178 dv=0 dx=0 dy=0 dh=0 dv=0
PairPos2: "'kern' Horizontal Kerning lookup 15-2" uni0629 dx=-178 dy=0 dh=-178 dv=0 dx=0 dy=0 dh=0 dv=0
PairPos2: "'kern' Horizontal Kerning lookup 15-2" uni0628 dx=-178 dy=0 dh=-178 dv=0 dx=0 dy=0 dh=0 dv=0
PairPos2: "'kern' Horizontal Kerning lookup 15-2" uni0627 dx=-143 dy=0 dh=-143 dv=0 dx=0 dy=0 dh=0 dv=0
PairPos2: "'kern' Horizontal Kerning lookup 15-2" uni0623 dx=-143 dy=0 dh=-143 dv=0 dx=0 dy=0 dh=0 dv=0
PairPos2: "'kern' Horizontal Kerning lookup 15-2" uni0622 dx=-143 dy=0 dh=-143 dv=0 dx=0 dy=0 dh=0 dv=0
PairPos2: "'kern' Horizontal Kerning lookup 15-2" uni0621 dx=-178 dy=0 dh=-178 dv=0 dx=0 dy=0 dh=0 dv=0
PairPos2: "'kern' Horizontal Kerning lookup 15-2" uniFB94 dx=-226 dy=0 dh=-226 dv=0 dx=0 dy=0 dh=0 dv=0
PairPos2: "'kern' Horizontal Kerning lookup 15-2" uniFB92 dx=-226 dy=0 dh=-226 dv=0 dx=0 dy=0 dh=0 dv=0
PairPos2: "'kern' Horizontal Kerning lookup 15-2" uni06AF dx=-226 dy=0 dh=-226 dv=0 dx=0 dy=0 dh=0 dv=0
PairPos2: "'kern' Horizontal Kerning lookup 15-2" afii57506 dx=-178 dy=0 dh=-178 dv=0 dx=0 dy=0 dh=0 dv=0
PairPos2: "'kern' Horizontal Kerning lookup 15-2" afii57440 dx=-178 dy=0 dh=-178 dv=0 dx=0 dy=0 dh=0 dv=0
PairPos2: "'kern' Horizontal Kerning lookup 15-2" uniFE8B dx=-178 dy=0 dh=-178 dv=0 dx=0 dy=0 dh=0 dv=0
EndChar

StartChar: uniFEB2
Encoding: 65202 65202 189
GlifName: uniF_E_B_2
Width: 2589
VWidth: 2952
GlyphClass: 2
Flags: W
AnchorPoint: "Anchor-7" 681.902 -756.086 basechar 0
AnchorPoint: "Anchor-10" 1810.53 1090.1 basechar 0
LayerCount: 2
Fore
SplineSet
1304.45808134 337.761013095 m 2,0,1
 1333.67236323 247.509596341 1333.67236323 247.509596341 1397.31829641 201.087964559 c 0,2,3
 1461 154 1461 154 1554.07619757 154.073244467 c 0,4,5
 1658 154 1658 154 1715.15849715 209.160064853 c 0,6,7
 1772 264 1772 264 1771.96777092 366.353916012 c 4,8,9
 1772 393 1772 393 1771.78312003 413.287967827 c 4,10,11
 1772 434 1772 434 1771.15582206 449.103722804 c 0,12,13
 1771.00929141 460.290645057 1771.00929141 460.290645057 1770.04389364 474.664650375 c 2,14,-1
 1766.46533482 527.94654649 l 1,15,-1
 1871.68087931 540.29844068 l 1,16,-1
 1885.56540552 340.595221428 l 2,17,18
 1892 252 1892 252 1940.06366601 203.521343531 c 0,19,20
 1989 155 1989 155 2073.2113965 154.520350362 c 0,21,22
 2161 155 2161 155 2207.08265467 216.235186452 c 0,23,24
 2253 278 2253 278 2253.51087742 386.579035165 c 0,25,26
 2254.00106409 453.144499636 2254.00106409 453.144499636 2248.33110844 516.852808251 c 2,27,-1
 2245.49700287 548.697161783 l 1,28,-1
 2350.57908403 561.111470594 l 1,29,-1
 2363.96117923 402.844780666 l 2,30,31
 2371 325 2371 325 2396.56181151 269.437220597 c 128,-1,32
 2422 214 2422 214 2468.75005907 184.140676225 c 0,33,34
 2514.9786552 154.013910219 2514.9786552 154.013910219 2579.35191616 154.0000007 c 2,35,-1
 2584.22050807 153.998948714 l 2,36,37
 2585 154 2585 154 2585.57570267 145.574717435 c 0,38,39
 2586 141 2586 141 2586.61490414 135.014810375 c 0,40,41
 2585.08279458 128.643572516 2585.08279458 128.643572516 2587.29079118 122.101359688 c 0,42,43
 2587.52636719 121.735523966 2587.52636719 121.735523966 2587.52636719 107.1171875 c 2,44,-1
 2587.52636719 88.5639466473 l 2,45,46
 2588 48 2588 48 2582.76528577 29.943359375 c 1,47,-1
 2581.12865083 29.9433581613 l 2,48,49
 2400 30 2400 30 2336.65527344 208.900390625 c 1,50,51
 2247 30 2247 30 2082.5 30 c 0,52,53
 1907 30 1907 30 1838.59667969 192.801757812 c 1,54,55
 1725 31 1725 31 1552.82763803 30.9189379643 c 0,56,57
 1448 31 1448 31 1340.34888636 119.126424274 c 1,58,59
 1339 -75 1339 -75 1276.7864863 -204.079030685 c 0,60,61
 1139 -490 1139 -490 707.321312762 -489.72461248 c 0,62,63
 279 -490 279 -490 171.845451469 -206.85563311 c 0,64,65
 132 -102 132 -102 131.75290789 41.0077809553 c 0,66,67
 132 228 132 228 219.533009047 450.873821255 c 1,68,-1
 323.043226785 408.209692945 l 1,69,70
 248 207 248 207 248.268561954 42.8812312374 c 0,71,72
 248 -162 248 -162 367.425397425 -267.500679163 c 128,-1,73
 487 -373 487 -373 714.375143427 -373.203122253 c 0,74,75
 962 -373 962 -373 1090.71211257 -252.004193942 c 0,76,77
 1220 -131 1220 -131 1220.55677898 103.662588343 c 0,78,79
 1221 278 1221 278 1141.75701443 454.423379972 c 1,80,-1
 1254.00057115 493.638942835 l 1,81,-1
 1304.45808134 337.761013095 l 2,0,1
EndSplineSet
EndChar

StartChar: uniFEB3
Encoding: 65203 65203 190
GlifName: uniF_E_B_3
Width: 1599
VWidth: 2952
GlyphClass: 2
Flags: W
AnchorPoint: "Anchor-10" 859.961 1083.67 basechar 0
AnchorPoint: "Anchor-7" 759.534 -236.974 basechar 0
LayerCount: 2
Fore
SplineSet
866.573306976 325.10476626 m 0,0,1
 874.475719482 364.323893896 874.475719482 364.323893896 870.556387707 472.211312517 c 4,2,3
 870.263221612 478.422886618 870.263221612 478.422886618 868.663280347 496.410797699 c 2,4,-1
 865.847053702 528.073231547 l 1,5,-1
 970.360386461 540.339432133 l 1,6,-1
 984.248188724 340.577013122 l 2,7,8
 987 305 987 305 995.922126698 276.362896952 c 0,9,10
 1005 247 1005 247 1021.1214872 224.638232601 c 0,11,12
 1037 202 1037 202 1059.0465858 186.507459869 c 128,-1,13
 1081 171 1081 171 1109.4381287 162.772548678 c 0,14,15
 1138 155 1138 155 1171.49643148 154.537938826 c 0,16,17
 1260 155 1260 155 1305.19465991 219.6911864 c 0,18,19
 1350 285 1350 285 1349.98632785 399.394439935 c 0,20,21
 1350 496 1350 496 1313.03855529 633.167183053 c 1,22,-1
 1426.67551707 663.572246726 l 1,23,24
 1467 526 1467 526 1466.02014721 406.24009369 c 0,25,26
 1466 405 1466 405 1466.005177 403.245243058 c 0,27,28
 1466 402 1466 402 1466 400.565933747 c 0,29,30
 1465 187 1465 187 1354.51640865 89.7568081905 c 0,31,32
 1288 31 1288 31 1174.72669612 30.993164042 c 0,33,34
 1006 31 1006 31 937.452148438 192.094726562 c 1,35,36
 822 30 822 30 646.440089247 30 c 0,37,38
 448 31 448 31 375.924804688 198.510742188 c 1,39,40
 280 30 280 30 48.849609375 30 c 2,41,-1
 -6.9384765625 30 l 2,42,43
 -16 30 -16 30 -21.0628320443 32.8211581577 c 0,44,45
 -26 36 -26 36 -30.4936067189 49.1514858278 c 0,46,47
 -34.7781490235 62.3182338505 -34.7781490235 62.3182338505 -34.7783203125 88.3134765625 c 2,48,-1
 -34.7784452421 107.273101513 l 2,49,50
 -35 138 -35 138 -28.6213981088 145.744392398 c 0,51,52
 -22.0007832501 153.999023438 -22.0007832501 153.999023438 -6.9384765625 153.999023438 c 2,53,-1
 51.0040491642 153.999023438 l 2,54,55
 124 154 124 154 178.165759076 172.382892638 c 0,56,57
 233 191 233 191 268.533367305 229.2826937 c 0,58,59
 304 268 304 268 316.280370524 324.843157502 c 0,60,61
 320 341 320 341 321.288924918 360.370587492 c 0,62,63
 323 380 323 380 322.717478983 401.472280909 c 0,64,65
 323.000068496 445.010553167 323.000068496 445.010553167 318.426952222 496.425446135 c 2,66,-1
 315.610725577 528.087879985 l 1,67,-1
 420.124058336 540.35408057 l 1,68,-1
 434.014025378 340.560369776 l 2,69,70
 438 281 438 281 464.911917967 238.545239106 c 0,71,72
 492 197 492 197 538.067810377 175.315022307 c 0,73,74
 585 154 585 154 648.050714682 154.073245334 c 0,75,76
 707 154 707 154 752.107535212 173.494490121 c 0,77,78
 797 193 797 193 826.403310781 231.337968737 c 0,79,80
 856 270 856 270 866.573306976 325.10476626 c 0,0,1
EndSplineSet
EndChar

StartChar: uniFEB4
Encoding: 65204 65204 191
GlifName: uniF_E_B_4
Width: 1688
VWidth: 2945
GlyphClass: 2
Flags: W
AnchorPoint: "Anchor-7" 759.534 -236.974 basechar 0
AnchorPoint: "Anchor-10" 873.961 1083.67 basechar 0
LayerCount: 2
Fore
SplineSet
984.2499713 340.551211747 m 2,0,1
 990.435951643 251.571878067 990.435951643 251.571878067 1039.40470144 203.48260905 c 0,2,3
 1088 155 1088 155 1173.36780469 154.578981866 c 0,4,5
 1262 155 1262 155 1307.32924443 215.679290502 c 0,6,7
 1353 277 1353 277 1352.38733204 384.367361469 c 0,8,9
 1351.44379361 449.244302811 1351.44379361 449.244302811 1349.96427995 478.433938202 c 0,10,11
 1348 506 1348 506 1347.29106938 516.909448876 c 2,12,-1
 1344.45696381 548.753802408 l 1,13,-1
 1449.53904497 561.168111219 l 1,14,-1
 1462.9215476 402.896714566 l 2,15,16
 1475.84251055 243.937502535 1475.84251055 243.937502535 1567.72881646 184.121528001 c 0,17,18
 1614.01367273 153.99109935 1614.01367273 153.99109935 1678.32160052 153.99804705 c 2,19,-1
 1683.18433402 153.99857241 l 1,20,21
 1685 146 1685 146 1685.60754177 134.587294289 c 0,22,23
 1686 109 1686 109 1686.48632812 107.173828125 c 2,24,-1
 1686.48632812 88.4438853557 l 2,25,26
 1686 73 1686 73 1682.24587373 30 c 1,27,-1
 1680.08007812 30 l 2,28,29
 1488 30 1488 30 1435.87402344 209.53125 c 1,30,31
 1346 30 1346 30 1179 30 c 0,32,33
 1013 30 1013 30 935.688476562 189.625 c 1,34,35
 822 30 822 30 646.440089247 30 c 0,36,37
 448 31 448 31 375.924804688 198.510742188 c 1,38,39
 280 30 280 30 48.849609375 30 c 2,40,-1
 -6.9384765625 30 l 2,41,42
 -16 30 -16 30 -21.0628320443 32.8211581577 c 0,43,44
 -24 35 -24 35 -30.4936067189 49.1514858278 c 0,45,46
 -34.7781239637 58.5151001801 -34.7781239637 58.5151001801 -34.7783203125 88.3134765625 c 2,47,-1
 -34.7784452421 107.273101513 l 2,48,49
 -35 138 -35 138 -28.6213981088 145.744392398 c 0,50,51
 -22.0007832501 153.999023438 -22.0007832501 153.999023438 -6.9384765625 153.999023438 c 2,52,-1
 51.0040484705 153.999023438 l 2,53,54
 161 154 161 154 230.336296563 196.800608638 c 0,55,56
 302 242 302 242 317.268412983 324.786406238 c 0,57,58
 327.431763826 378.86453515 327.431763826 378.86453515 319.488656799 483.752219783 c 0,59,60
 319.011180051 489.857056118 319.011180051 489.857056118 318.426952222 496.425446135 c 2,61,-1
 315.610725577 528.087879985 l 1,62,-1
 420.124058336 540.35408057 l 1,63,-1
 434.014025378 340.560369776 l 2,64,65
 440 250 440 250 496.2101101 202.171917363 c 0,66,67
 552 154 552 154 648.050800048 154.073245295 c 0,68,69
 737 154 737 154 794.211924332 197.967399995 c 0,70,71
 851 242 851 242 867.562809646 325.052661264 c 0,72,73
 874.629955308 360.078245372 874.629955308 360.078245372 870.556387707 472.211312517 c 0,74,75
 870 478 870 478 868.663280347 496.410797699 c 2,76,-1
 865.847053702 528.073231547 l 1,77,-1
 970.360386461 540.339432133 l 1,78,-1
 984.2499713 340.551211747 l 2,0,1
EndSplineSet
EndChar

StartChar: uniFEBA
Encoding: 65210 65210 197
GlifName: uniF_E_B_A_
Width: 2626
VWidth: 2952
GlyphClass: 2
Flags: W
AnchorPoint: "Anchor-7" 681.902 -756.086 basechar 0
AnchorPoint: "Anchor-10" 2058.53 1213.1 basechar 0
LayerCount: 2
Fore
SplineSet
1459.59193004 197.806728072 m 2,0,1
 1797.07187858 766.971084918 1797.07187858 766.971084918 2119.25042142 766.425894925 c 0,2,3
 2263.19581331 766.029629064 2263.19581331 766.029629064 2348.93412683 695.376755181 c 0,4,5
 2464.96995572 599.862764877 2464.96995572 599.862764877 2464.59657349 423.773714031 c 0,6,7
 2464.96702978 312.824295561 2464.96702978 312.824295561 2400.76628973 225.804675963 c 2,8,-1
 2385.09150156 204.558595261 l 1,9,10
 2437.96505082 154 2437.96505082 154 2615.73828125 154 c 2,11,-1
 2620.94344376 154 l 1,12,13
 2622.60398202 145.771461777 2622.60398202 145.771461777 2623.49846346 134.231069461 c 128,-1,14
 2624.3929449 122.690677144 2624.3929449 122.690677144 2624.49316406 107.078516164 c 2,15,-1
 2624.49316406 88.3056640625 l 2,16,17
 2624.49316406 80.3551128832 2624.49316406 80.3551128832 2624.26825535 72.6790160525 c 128,-1,18
 2624.04334663 65.0029192218 2624.04334663 65.0029192218 2623.66128718 58.6731643013 c 128,-1,19
 2623.27922774 52.3434093809 2623.27922774 52.3434093809 2622.76423602 46.7698687344 c 128,-1,20
 2622.2492443 41.1963280879 2622.2492443 41.1963280879 2621.67907195 37.0515606588 c 128,-1,21
 2621.10889959 32.9067932297 2621.10889959 32.9067932297 2620.49777142 30 c 2,22,-1
 2610.2265625 30 l 2,23,24
 2382.72187803 30 2382.72187803 30 2268.14074363 123.895052229 c 5,25,-1
 2250.27548248 113.850163123 l 2,26,27
 2201.82777047 86.6100410538 2201.82777047 86.6100410538 2133.1977358 68.040108495 c 128,-1,28
 2064.56770114 49.4701759362 2064.56770114 49.4701759362 1973.80142328 39.7350879681 c 128,-1,29
 1883.03514543 30 1883.03514543 30 1773.15136719 30 c 2,30,-1
 1722.34082031 30 l 2,31,32
 1663.80913407 30 1663.80913407 30 1612.63200799 33.5081180944 c 128,-1,33
 1561.4548819 37.0162361888 1561.4548819 37.0162361888 1519.19598728 43.8126881134 c 128,-1,34
 1476.93709267 50.609140038 1476.93709267 50.609140038 1442.94298127 60.3983650653 c 128,-1,35
 1408.94886987 70.1875900926 1408.94886987 70.1875900926 1383.24302535 82.9290701883 c 2,36,-1
 1340.24040694 104.243950788 l 1,37,-1
 1339.92058793 56.249711118 l 2,38,39
 1339.04567244 -75.0461245497 1339.04567244 -75.0461245497 1276.83618404 -203.975792935 c 0,40,41
 1139.1521706 -489.988502658 1139.1521706 -489.988502658 706.57025775 -489.724631069 c 0,42,43
 281.522226095 -489.213467057 281.522226095 -489.213467057 172.126194265 -206.932940055 c 0,44,45
 132.487222622 -103.506460754 132.487222622 -103.506460754 131.758585548 38.1105025118 c 0,46,47
 131.066170104 226.091047654 131.066170104 226.091047654 219.516512091 450.880620857 c 1,48,-1
 323.083482601 408.193100581 l 1,49,50
 248.009109668 206.223432161 248.009109668 206.223432161 248.269584207 41.7082800822 c 0,51,52
 248.38054078 -17.3442028479 248.38054078 -17.3442028479 258.621902066 -68.4421870767 c 128,-1,53
 268.863263351 -119.540171306 268.863263351 -119.540171306 288.950459455 -161.919149977 c 128,-1,54
 309.037655559 -204.298128648 309.037655559 -204.298128648 338.730783183 -238.460418393 c 128,-1,55
 368.423910808 -272.622708137 368.423910808 -272.622708137 407.541572191 -298.053014369 c 128,-1,56
 446.659233574 -323.483320601 446.659233574 -323.483320601 494.851475144 -340.418133529 c 128,-1,57
 543.043716715 -357.352946457 543.043716715 -357.352946457 600.239190984 -365.542797917 c 128,-1,58
 657.434665254 -373.732649377 657.434665254 -373.732649377 723.180246521 -373.164817309 c 0,59,60
 966.179493396 -370.992826404 966.179493396 -370.992826404 1092.95818601 -250.824954276 c 128,-1,61
 1219.73687863 -130.657082147 1219.73687863 -130.657082147 1220.55264659 100.043636001 c 0,62,63
 1220.69479707 158.803616173 1220.69479707 158.803616173 1211.76562535 218.433449129 c 128,-1,64
 1202.83645363 278.063282086 1202.83645363 278.063282086 1185.26055758 337.047555819 c 128,-1,65
 1167.68466152 396.031829552 1167.68466152 396.031829552 1141.6336344 454.380273554 c 1,66,-1
 1253.79057366 493.565574082 l 1,67,-1
 1312.39214709 307.967240078 l 2,68,69
 1349.31523843 191.0273042 1349.31523843 191.0273042 1430.93896079 183.242927076 c 2,70,-1
 1449.88511108 181.43605066 l 1,71,-1
 1459.59193004 197.806728072 l 2,0,1
1768.78092015 154.534190148 m 2,72,73
 2341.91409917 155.025639676 2341.91409917 155.025639676 2342.66096603 415.273990361 c 0,74,75
 2342.8520986 472.594480532 2342.8520986 472.594480532 2319.88548537 518.583828238 c 128,-1,76
 2296.91887214 564.573175944 2296.91887214 564.573175944 2252.03507625 595.58194924 c 0,77,78
 2233.51001648 608.361270561 2233.51001648 608.361270561 2212.60480094 617.003335419 c 128,-1,79
 2191.69958539 625.645400276 2191.69958539 625.645400276 2169.16861105 630.001565415 c 128,-1,80
 2146.6376367 634.357730554 2146.6376367 634.357730554 2122.43729084 634.571544775 c 0,81,82
 1996.37103842 635.912657896 1996.37103842 635.912657896 1866.81785558 526.41040693 c 128,-1,83
 1737.26467273 416.908155964 1737.26467273 416.908155964 1599.35799818 200.541459776 c 2,84,-1
 1569.93105349 154.372477574 l 1,85,-1
 1624.68064718 154.417002108 l 1,86,-1
 1768.78092015 154.534190148 l 2,72,73
EndSplineSet
EndChar

StartChar: uniFEBB
Encoding: 65211 65211 198
GlifName: uniF_E_B_B_
Width: 1680
VWidth: 2952
GlyphClass: 2
Flags: W
AnchorPoint: "Anchor-10" 1118.91 1202.52 basechar 0
AnchorPoint: "Anchor-7" 699.209 -240.348 basechar 0
LayerCount: 2
Fore
SplineSet
1202.2488315 766.425850917 m 0,0,1
 1346.19426942 766.02962996 1346.19426942 766.02962996 1431.91812169 695.375460486 c 0,2,3
 1547.96867713 599.862568111 1547.96867713 599.862568111 1547.57930982 423.903775135 c 0,4,5
 1546.85091433 228.420354536 1546.85091433 228.420354536 1378.04333257 129.210177268 c 0,6,7
 1209.23575081 30 1209.23575081 30 856.133789062 30 c 2,8,-1
 805.323242188 30 l 2,9,10
 452.031637443 30 452.031637443 30 374.110090247 160.553938586 c 2,11,-1
 350.905026289 199.432947075 l 1,12,-1
 324.148338302 162.907176141 l 2,13,14
 226.788152539 30 226.788152539 30 9.984375 30 c 2,15,-1
 -6.9384765625 30 l 2,16,17
 -16.0208167011 30 -16.0208167011 30 -21.1803647324 32.8126059901 c 0,18,19
 -26.3399127638 35.6252119802 -26.3399127638 35.6252119802 -30.5913668609 49.1213555704 c 0,20,21
 -34.842820958 62.6174991606 -34.842820958 62.6174991606 -34.7783203125 88.3134765625 c 2,22,-1
 -34.7783203125 107.186523438 l 2,23,24
 -34.7783203125 123.099506271 -34.7783203125 123.099506271 -33.1060047022 132.707053917 c 0,25,26
 -31.4336890919 142.314601564 -31.4336890919 142.314601564 -27.2951217032 146.876111257 c 0,27,28
 -23.1565543145 151.437620951 -23.1565543145 151.437620951 -18.6080484376 152.718810475 c 0,29,30
 -14.0595425606 154 -14.0595425606 154 -5.9384765625 154 c 2,31,-1
 10.1103515625 154 l 2,32,33
 127.729252032 154 127.729252032 154 199.475683878 192.444821581 c 0,34,35
 271.222115725 230.889643162 271.222115725 230.889643162 286.033298631 310.633329982 c 0,36,37
 298.193694183 374.166780317 298.193694183 374.166780317 289.937465817 495.690757251 c 2,38,-1
 286.359619243 548.968978451 l 1,39,-1
 391.803322302 561.347657567 l 1,40,-1
 407.255256241 360.356673381 l 2,41,42
 419.02957346 207.202277601 419.02957346 207.202277601 509.317115998 184.047802006 c 2,43,-1
 531.131603476 178.453419839 l 1,44,-1
 542.593393323 197.838887315 l 2,45,46
 879.096701143 766.971109803 879.096701143 766.971109803 1202.2488315 766.425850917 c 0,0,1
851.7633416 154.534190148 m 2,47,48
 1424.91637541 155.025640798 1424.91637541 155.025640798 1425.64337016 415.268801389 c 0,49,50
 1426.05525479 532.701060536 1426.05525479 532.701060536 1335.02172586 595.579032254 c 0,51,52
 1279.46621601 633.917467392 1279.46621601 633.917467392 1205.29213499 634.572630664 c 0,53,54
 1079.45046618 635.376142105 1079.45046618 635.376142105 949.940089699 525.910158698 c 0,55,56
 820.429713217 416.444175291 820.429713217 416.444175291 682.365832678 200.581261393 c 2,57,-1
 652.811077807 154.3723943 l 1,58,-1
 707.663069053 154.417002108 l 1,59,-1
 851.7633416 154.534190148 l 2,47,48
EndSplineSet
EndChar

StartChar: uniFEBC
Encoding: 65212 65212 199
GlifName: uniF_E_B_C_
Width: 1719
VWidth: 2952
GlyphClass: 2
Flags: W
AnchorPoint: "Anchor-7" 699.209 -240.348 basechar 0
AnchorPoint: "Anchor-10" 1148.91 1202.52 basechar 0
LayerCount: 2
Fore
SplineSet
1547.5789859 423.772917411 m 0,0,1
 1547.77403492 367.796564763 1547.77403492 367.796564763 1531.9193804 318.696179745 c 128,-1,2
 1516.06472587 269.595794727 1516.06472587 269.595794727 1483.75084545 225.80756787 c 2,3,-1
 1468.06608868 204.553305661 l 1,4,5
 1520.97114153 154 1520.97114153 154 1698.72070312 154 c 2,6,-1
 1703.93453092 154 l 1,7,8
 1707.28803979 137.377775655 1707.28803979 137.377775655 1707.47558594 107.081948162 c 2,9,-1
 1707.47558594 88.3056640625 l 2,10,11
 1707.47558594 49.0038370276 1707.47558594 49.0038370276 1703.48019329 30 c 1,12,-1
 1693.20898438 30 l 2,13,14
 1465.72051606 30 1465.72051606 30 1351.1208021 123.894855414 c 5,15,-1
 1333.2566453 113.849455167 l 2,16,17
 1184.14364059 30 1184.14364059 30 856.133789062 30 c 2,18,-1
 805.323242188 30 l 2,19,20
 628.085384796 30 628.085384796 30 520.476449915 64.2472135891 c 128,-1,21
 412.867515035 98.4944271782 412.867515035 98.4944271782 373.796354915 161.067799692 c 2,22,-1
 350.330586303 198.648774409 l 1,23,-1
 324.148338302 162.907176141 l 2,24,25
 226.788152539 30 226.788152539 30 9.984375 30 c 2,26,-1
 -6.9384765625 30 l 2,27,28
 -16.0208167011 30 -16.0208167011 30 -21.1803647324 32.8126059901 c 128,-1,29
 -26.3399127638 35.6252119802 -26.3399127638 35.6252119802 -30.5913668609 49.1213555704 c 128,-1,30
 -34.842820958 62.6174991606 -34.842820958 62.6174991606 -34.7783203125 88.3134765625 c 2,31,-1
 -34.7783203125 107.186523438 l 2,32,33
 -34.7783203125 137.43875245 -34.7783203125 137.43875245 -28.5143367591 145.719376225 c 128,-1,34
 -22.2503532057 154 -22.2503532057 154 -6.9384765625 154 c 2,35,-1
 9.1103515625 154 l 2,36,37
 127.218040805 154 127.218040805 154 199.216048747 192.423126581 c 128,-1,38
 271.214056689 230.846253162 271.214056689 230.846253162 286.033298631 310.633329982 c 0,39,40
 298.193694183 374.166780317 298.193694183 374.166780317 289.937465817 495.690757251 c 2,41,-1
 286.359619243 548.968978451 l 1,42,-1
 391.803322302 561.347657567 l 1,43,-1
 407.255256241 360.356673381 l 2,44,45
 419.02957346 207.202277601 419.02957346 207.202277601 509.317115998 184.047802006 c 2,46,-1
 531.102809739 178.460804068 l 1,47,-1
 542.574011097 197.806153306 l 2,48,49
 880.071434745 766.971084156 880.071434745 766.971084156 1202.23285268 766.4258949 c 0,50,51
 1346.19426942 766.02962996 1346.19426942 766.02962996 1431.91812169 695.375460486 c 0,52,53
 1547.96864285 599.862596331 1547.96864285 599.862596331 1547.5789859 423.772917411 c 0,0,1
851.7633416 154.534190148 m 2,54,55
 1424.91637541 155.025640798 1424.91637541 155.025640798 1425.64337016 415.268801389 c 0,56,57
 1426.05525479 532.701060536 1426.05525479 532.701060536 1335.02172586 595.579032254 c 0,58,59
 1321.11617469 605.175147434 1321.11617469 605.175147434 1305.85547126 612.4494257 c 128,-1,60
 1290.59476782 619.723703967 1290.59476782 619.723703967 1274.31582799 624.563062267 c 128,-1,61
 1258.03688815 629.402420567 1258.03688815 629.402420567 1240.79318261 631.906914547 c 128,-1,62
 1223.54947707 634.411408527 1223.54947707 634.411408527 1205.41973731 634.571544513 c 0,63,64
 1141.72296827 635.249213232 1141.72296827 635.249213232 1077.00669105 607.479550141 c 128,-1,65
 1012.29041383 579.70988705 1012.29041383 579.70988705 947.009071841 524.019949704 c 128,-1,66
 881.727729848 468.330012358 881.727729848 468.330012358 816.218029944 388.064661285 c 128,-1,67
 750.708330041 307.799310211 750.708330041 307.799310211 682.340897023 200.542208079 c 2,68,-1
 652.911553867 154.372476011 l 1,69,-1
 707.663069053 154.417002108 l 1,70,-1
 851.7633416 154.534190148 l 2,54,55
EndSplineSet
EndChar

StartChar: uniFEC2
Encoding: 65218 65218 205
GlifName: uniF_E_C_2
Width: 1515
VWidth: 2952
GlyphClass: 2
Flags: W
AnchorPoint: "Anchor-7" 641.602 -236.453 basechar 0
AnchorPoint: "Anchor-10" 475.36 1544.78 basechar 0
LayerCount: 2
Fore
SplineSet
1003.56216823 766.425149842 m 0,0,1
 1145.35630189 766.959663849 1145.35630189 766.959663849 1233.03049097 695.36298216 c 0,2,3
 1346.19607599 601.722881751 1346.19607599 601.722881751 1348.67972446 423.445471708 c 0,4,5
 1349.89133613 318.260755164 1349.89133613 318.260755164 1284.29751348 224.07112576 c 2,6,-1
 1273.86419751 209.089377107 l 1,7,8
 1302.90010298 154 1302.90010298 154 1504.70800781 154 c 6,9,-1
 1510.15432363 154 l 1,10,11
 1511.70383769 146.457032496 1511.70383769 146.457032496 1512.58336416 134.585336185 c 128,-1,12
 1513.46289062 122.713639874 1513.46289062 122.713639874 1513.46289062 107.173828125 c 2,13,-1
 1513.46289062 88.392097764 l 2,14,15
 1513.25895633 49.4841017302 1513.25895633 49.4841017302 1509.23675478 29.9990234375 c 1,16,-1
 1499.1964008 29.9990234373 l 2,17,18
 1247.60962443 29.9999604842 1247.60962443 29.9999604842 1139.39348087 117.483339146 c 1,19,-1
 1121.88497494 108.192420189 l 2,20,21
 974.530416449 29.9984688168 974.530416449 29.9984688168 658.232474479 29.9990234375 c 2,22,-1
 131.302734375 29.9999473958 l 1,23,-1
 131.302734375 154.242795644 l 1,24,-1
 321.843130615 154.376957918 l 1,25,-1
 323.570669678 154.377934481 l 1,26,-1
 340.849775742 154.387702212 l 1,27,-1
 349.51185498 169.338822072 l 1,28,-1
 350.334093897 170.758041669 l 2,29,30
 353.48937699 176.131507381 353.48937699 176.131507381 359.452131275 185.813049934 c 128,-1,31
 365.414885561 195.494592486 365.414885561 195.494592486 374.040825253 209.251414164 c 128,-1,32
 382.666764945 223.008235841 382.666764945 223.008235841 394.151765629 241.138617915 c 128,-1,33
 405.636766314 259.268999988 405.636766314 259.268999988 419.510446628 281.025119082 c 2,34,-1
 424.638671875 289.066985169 l 1,35,-1
 424.638671875 298.69140625 l 1,36,-1
 424.638671875 1378.87304688 l 1,37,-1
 538.950195312 1378.87304688 l 1,38,-1
 538.950195312 544.208984375 l 1,39,-1
 538.950195312 458.824040003 l 1,40,-1
 592.357262641 525.444411397 l 2,41,42
 784.470407425 765.08777126 784.470407425 765.08777126 1003.56216823 766.425149842 c 0,0,1
1226.7411244 415.628526046 m 0,43,44
 1225.88609823 533.858393697 1225.88609823 533.858393697 1136.19112399 595.529453499 c 0,45,46
 1107.51186823 615.637312247 1107.51186823 615.637312247 1074.42637302 625.508126042 c 128,-1,47
 1041.34087781 635.378939837 1041.34087781 635.378939837 1005.51736471 634.564515875 c 0,48,49
 753.03975206 628.824603738 753.03975206 628.824603738 484.356310752 200.474300572 c 2,50,-1
 455.539680839 154.533203125 l 1,51,-1
 509.770507812 154.533203125 l 1,52,-1
 653.836914062 154.533203125 l 2,53,54
 665.810191838 154.533203125 665.810191838 154.533203125 677.531594237 154.6433244 c 0,55,56
 808.914232871 155.877973035 808.914232871 155.877973035 908.899108247 171.232306822 c 128,-1,57
 1008.88398362 186.58664061 1008.88398362 186.58664061 1081.14671492 217.558772433 c 128,-1,58
 1153.40944622 248.530904257 1153.40944622 248.530904257 1190.40640205 298.294636256 c 128,-1,59
 1227.40335789 348.058368255 1227.40335789 348.058368255 1226.7411244 415.628526046 c 0,43,44
EndSplineSet
EndChar

StartChar: uniFEC3
Encoding: 65219 65219 206
GlifName: uniF_E_C_3
Width: 1320
VWidth: 2952
GlyphClass: 2
Flags: W
AnchorPoint: "Anchor-7" 501.602 -236.453 basechar 0
AnchorPoint: "Anchor-10" 312.36 1553.78 basechar 0
LayerCount: 2
Fore
SplineSet
495.57041865 29.9882812557 m 2,0,-1
 -6.9384765625 30 l 2,1,2
 -15.9167709632 30 -15.9167709632 30 -21.0628320443 32.8211581577 c 0,3,4
 -26.2088931254 35.6423163154 -26.2088931254 35.6423163154 -30.4936067189 49.1514858278 c 0,5,6
 -34.7783203125 62.6606553402 -34.7783203125 62.6606553402 -34.7783203125 88.3134765625 c 2,7,-1
 -34.7784452421 107.273101513 l 2,8,9
 -34.8656523577 137.490943307 -34.8656523577 137.490943307 -28.6220745657 145.745471654 c 0,10,11
 -22.3784967736 154 -22.3784967736 154 -6.943359375 154 c 2,12,-1
 159.16796875 154 l 1,13,-1
 175.474152195 154 l 1,14,-1
 184.342804673 167.683516425 l 1,15,-1
 258.151398423 281.563399237 l 1,16,-1
 262.9765625 289.008184346 l 1,17,-1
 262.9765625 297.879882812 l 1,18,-1
 262.9765625 1378.87402344 l 1,19,-1
 376.288085938 1378.87402344 l 1,20,-1
 376.288085938 544.198242188 l 1,21,-1
 376.288085938 458.764359581 l 1,22,-1
 429.70187536 525.442057478 l 2,23,24
 622.427092475 766.025508733 622.427092475 766.025508733 841.74939835 766.414010908 c 0,25,26
 1038.90230884 766.031200241 1038.90230884 766.031200241 1128.42357369 631.424696355 c 0,27,28
 1187.00110108 542.965781294 1187.00110108 542.965781294 1187.01562502 423.781379554 c 0,29,30
 1187.00409145 110.968660162 1187.00409145 110.968660162 755.804596508 46.9774445866 c 0,31,32
 640.640686567 30.0535741533 640.640686567 30.0535741533 495.57041865 29.9882812557 c 2,0,-1
844.6605443 634.561346701 m 0,33,34
 717.181902862 634.796656429 717.181902862 634.796656429 587.627274556 525.326613235 c 0,35,36
 458.07264625 415.85657004 458.07264625 415.85657004 321.751697719 200.571834327 c 2,37,-1
 292.592666826 154.522460938 l 1,38,-1
 347.09765625 154.522460938 l 1,39,-1
 491.200532695 154.52247197 l 2,40,41
 1064.24589121 155.013915986 1064.24589121 155.013915986 1065.07990313 415.259839214 c 0,42,43
 1065.22722517 458.392761886 1065.22722517 458.392761886 1052.69909341 494.997157775 c 0,44,45
 1040.17096165 531.601553664 1040.17096165 531.601553664 1014.72696301 560.066864265 c 0,46,47
 947.70313148 633.903604218 947.70313148 633.903604218 844.6605443 634.561346701 c 0,33,34
EndSplineSet
EndChar

StartChar: uniFEC4
Encoding: 65220 65220 207
GlifName: uniF_E_C_4
Width: 1352
VWidth: 2952
GlyphClass: 2
Flags: W
AnchorPoint: "Anchor-10" 309.36 1541.78 basechar 0
AnchorPoint: "Anchor-7" 501.602 -236.453 basechar 0
LayerCount: 2
Fore
SplineSet
429.712511724 525.464669675 m 2,0,1
 478.443895019 586.355235765 478.443895019 586.355235765 528.669002115 631.728914105 c 128,-1,2
 578.894109211 677.102592444 578.894109211 677.102592444 630.286222314 706.794003574 c 128,-1,3
 681.678335416 736.485414705 681.678335416 736.485414705 734.131501684 751.290177627 c 128,-1,4
 786.584667952 766.094940548 786.584667952 766.094940548 840.858259306 766.425994603 c 0,5,6
 982.384936463 766.959752668 982.384936463 766.959752668 1070.36573897 695.360279415 c 0,7,8
 1184.48026055 600.681132436 1184.48026055 600.681132436 1186.00990741 423.532956526 c 0,9,10
 1186.46544257 370.777497014 1186.46544257 370.777497014 1170.50770431 321.172018064 c 128,-1,11
 1154.54996605 271.566539114 1154.54996605 271.566539114 1121.591202 224.018321191 c 2,12,-1
 1111.3488429 209.242101995 l 1,13,14
 1139.66586075 154.000976562 1139.66586075 154.000976562 1342.0390625 154.000976562 c 2,15,-1
 1347.48528039 154.000976562 l 1,16,17
 1348.50103127 149.056358582 1348.50103127 149.056358582 1349.22722549 142.374148429 c 128,-1,18
 1349.95341972 135.691938277 1349.95341972 135.691938277 1350.37368251 126.662646105 c 128,-1,19
 1350.79394531 117.633353933 1350.79394531 117.633353933 1350.79394531 107.174804688 c 2,20,-1
 1350.79402697 88.2444575166 l 2,21,22
 1350.88565972 48.9709187809 1350.88565972 48.9709187809 1346.90092538 30 c 1,23,-1
 1336.52734375 30 l 2,24,25
 1084.63676547 30 1084.63676547 30 976.770014575 117.488585105 c 5,26,-1
 959.239460364 108.205817039 l 2,27,28
 886.849523008 69.8739428283 886.849523008 69.8739428283 770.369007457 49.9369714141 c 128,-1,29
 653.888491907 30 653.888491907 30 495.563476562 30 c 2,30,-1
 -6.9384765625 30 l 2,31,32
 -15.9167709632 30 -15.9167709632 30 -21.0628320443 32.8211581577 c 128,-1,33
 -26.2088931254 35.6423163154 -26.2088931254 35.6423163154 -30.4936067189 49.1514858278 c 128,-1,34
 -34.7783203125 62.6606553402 -34.7783203125 62.6606553402 -34.7783203125 88.3134765625 c 2,35,-1
 -34.7784452421 107.273101513 l 2,36,37
 -34.8656523577 137.490943307 -34.8656523577 137.490943307 -28.6220745657 145.745471654 c 128,-1,38
 -22.3784967736 154 -22.3784967736 154 -6.943359375 154 c 2,39,-1
 160.875976562 154 l 1,40,-1
 177.387763521 154 l 1,41,-1
 186.221555017 167.950026394 l 2,42,43
 253.328449247 273.922976524 253.328449247 273.922976524 257.878645152 281.074674216 c 2,44,-1
 262.9765625 289.087244331 l 1,45,-1
 262.9765625 298.692382812 l 1,46,-1
 262.9765625 1378.87402344 l 1,47,-1
 376.290037707 1378.87402344 l 1,48,-1
 376.29 544.209962293 l 1,49,-1
 376.289996138 458.712466507 l 1,50,-1
 429.712511724 525.464669675 l 2,0,1
1064.0719303 415.656331926 m 0,51,52
 1063.77242684 444.295567307 1063.77242684 444.295567307 1057.89367546 470.216651015 c 128,-1,53
 1052.01492408 496.137734722 1052.01492408 496.137734722 1040.72173518 518.851925436 c 128,-1,54
 1029.42854627 541.566116149 1029.42854627 541.566116149 1012.51374333 560.925598167 c 128,-1,55
 995.598940387 580.285080186 995.598940387 580.285080186 973.508691066 595.539480926 c 0,56,57
 915.108056635 636.215836182 915.108056635 636.215836182 842.823594883 634.56491779 c 0,58,59
 590.158073805 628.611488992 590.158073805 628.611488992 321.685269428 200.471935066 c 2,60,-1
 292.879152591 154.534179688 l 1,61,-1
 347.1015625 154.534179688 l 1,62,-1
 491.16796875 154.534179688 l 2,63,64
 501.638358609 154.534179688 501.638358609 154.534179688 511.916134016 154.618486883 c 0,65,66
 643.935758163 155.70167295 643.935758163 155.70167295 744.421031234 170.984223775 c 128,-1,67
 844.906304305 186.266774601 844.906304305 186.266774601 917.539825737 217.241893475 c 128,-1,68
 990.173347168 248.21701235 990.173347168 248.21701235 1027.40591888 298.066101986 c 128,-1,69
 1064.63849058 347.915191622 1064.63849058 347.915191622 1064.0719303 415.656331926 c 0,51,52
EndSplineSet
EndChar

